SplineFontDB: 3.0
FontName: HiObl
FullName: Hi. Regular Oblique
FamilyName: Hi.
Weight: Regular
Copyright: Copyright (c) 2015, Mew Too/Cannot Into Space Fonts, All Rights Reserved.
Version: 1.996
ItalicAngle: 0
UnderlinePosition: -100
UnderlineWidth: 50
Ascent: 800
Descent: 200
InvalidEm: 0
sfntRevision: 0x0001fefa
LayerCount: 2
Layer: 0 0 "Back" 1
Layer: 1 0 "Fore" 0
XUID: [1021 604 120746000 20015]
StyleMap: 0x0000
FSType: 0
OS2Version: 4
OS2_WeightWidthSlopeOnly: 0
OS2_UseTypoMetrics: 1
CreationTime: 1421008990
ModificationTime: 1424211215
PfmFamily: 17
TTFWeight: 400
TTFWidth: 5
LineGap: 90
VLineGap: 0
Panose: 2 0 5 3 0 0 0 0 0 0
OS2TypoAscent: 800
OS2TypoAOffset: 0
OS2TypoDescent: -200
OS2TypoDOffset: 0
OS2TypoLinegap: 90
OS2WinAscent: 813
OS2WinAOffset: 0
OS2WinDescent: 184
OS2WinDOffset: 0
HheadAscent: 813
HheadAOffset: 0
HheadDescent: -184
HheadDOffset: 0
OS2SubXSize: 650
OS2SubYSize: 699
OS2SubXOff: 0
OS2SubYOff: 140
OS2SupXSize: 650
OS2SupYSize: 699
OS2SupXOff: 0
OS2SupYOff: 479
OS2StrikeYSize: 49
OS2StrikeYPos: 258
OS2CapHeight: 590
OS2XHeight: 590
OS2FamilyClass: 2063
OS2Vendor: 'CiSf'
OS2CodePages: 00000001.00000000
OS2UnicodeRanges: 0000002f.10000000.00000000.00000000
Lookup: 3 0 0 "'salt' Stylistic Alternatives in Latin lookup 0" { "'salt' Stylistic Alternatives in Latin lookup 0 subtable"  } ['salt' ('DFLT' <'dflt' > 'latn' <'dflt' > ) ]
Lookup: 4 0 1 "'liga' Standard Ligatures lookup 1" { "'liga' Standard Ligatures lookup 1 subtable"  } ['liga' ('DFLT' <'dflt' > ) ]
Lookup: 258 0 0 "'kern' Horizontal Kerning lookup 0" { "'kern' Horizontal Kerning lookup 0 subtable"  } ['kern' ('DFLT' <'dflt' > 'arab' <'dflt' > 'latn' <'dflt' > ) ]
MarkAttachClasses: 1
DEI: 91125

StartChar: .notdef
Encoding: 65536 -1 0
Width: 556
Flags: MW
HStem: 0 50<97.5732 397.573 97.5732 440.546> 483 50<158.427 458.427 158.427 158.427>
LayerCount: 2
Back
Fore
SplineSet
40.5458984375 0 m 1
 115.454101562 533 l 1
 515.454101562 533 l 1
 440.545898438 0 l 1
 40.5458984375 0 l 1
97.5732421875 50 m 1
 397.573242188 50 l 1
 458.426757812 483 l 1
 158.426757812 483 l 1
 97.5732421875 50 l 1
EndSplineSet
EndChar

StartChar: space
Encoding: 32 32 1
Width: 146
GlyphClass: 2
Flags: W
LayerCount: 2
Back
Fore
SplineSet
1106.99707031 402 m 1024,0,0
EndSplineSet
EndChar

StartChar: exclam
Encoding: 33 33 2
Width: 232
GlyphClass: 2
Flags: MW
HStem: -0.25 92.5<77.6328 89.6328> 128 28<62.7139 106.278>
VStem: 39.8828 152.584
LayerCount: 2
Back
Fore
SplineSet
39.8828125 46 m 0
 43.396484375 71 65.1328125 92.25 90.1328125 92.25 c 0
 115.1328125 92.25 132.146484375 71 128.6328125 46 c 0
 125.119140625 21 102.1328125 -0.25 77.1328125 -0.25 c 0
 52.1328125 -0.25 36.369140625 21 39.8828125 46 c 0
192.466796875 552 m 2
 136.813476562 156 l 2
 134.705078125 141 116.727539062 128 95.828125 128 c 0
 74.927734375 128 60.6337890625 141.20703125 62.7138671875 156 c 2
 62.7138671875 156 118.137695312 551.842773438 118.3671875 552 c 0
 120.475585938 567 138.452148438 580 159.352539062 580 c 0
 180.251953125 580 194.149414062 567 192.466796875 552 c 2
EndSplineSet
EndChar

StartChar: quotedbl
Encoding: 34 34 3
Width: 319
GlyphClass: 2
Flags: MW
HStem: 557.5 21G 607.5 92.5<91.0898 94.4507 212.09 215.451>
VStem: 53.3398 87.6621 174.34 87.6621
LayerCount: 2
Back
Fore
SplineSet
174.33984375 653.75 m 0
 177.853515625 678.75 199.58984375 700 224.58984375 700 c 0
 249.58984375 700 266.603515625 678.75 263.08984375 653.75 c 1
 265.21875 633.318359375 270.53515625 600 262.001953125 583.75 c 0
 256.670898438 572.5 208.956054688 562.083984375 173.3125 557.5 c 1
 203.385742188 571.014648438 228.91796875 577.020507812 233.665039062 613.06640625 c 1
 226.840820312 609.52734375 219.311523438 607.5 211.58984375 607.5 c 0
 186.58984375 607.5 170.826171875 628.75 174.33984375 653.75 c 0
53.33984375 653.75 m 0
 56.853515625 678.75 78.58984375 700 103.58984375 700 c 0
 128.58984375 700 145.603515625 678.75 142.08984375 653.75 c 1
 144.21875 633.318359375 149.53515625 600 141.001953125 583.75 c 0
 135.670898438 572.5 87.9560546875 562.083984375 52.3125 557.5 c 1
 82.3857421875 571.014648438 107.91796875 577.020507812 112.665039062 613.06640625 c 1
 105.840820312 609.52734375 98.3115234375 607.5 90.58984375 607.5 c 0
 65.58984375 607.5 49.826171875 628.75 53.33984375 653.75 c 0
EndSplineSet
EndChar

StartChar: numbersign
Encoding: 35 35 4
Width: 803
GlyphClass: 2
Flags: MW
HStem: 171.937 69.5332 343.68 69.4951<571.658 607.003>
LayerCount: 2
Back
Fore
SplineSet
696.934570312 590 m 2
 607.002929688 413.174804688 l 1
 728.3046875 412.73828125 l 2
 744.279296875 412.680664062 761.516601562 397.455078125 765.904296875 377.81640625 c 0
 770.29296875 358.176757812 759.618164062 343.049804688 743.862304688 343.107421875 c 2
 743.862304688 343.107421875 668.706054688 343.353515625 571.658203125 343.6796875 c 1
 519.141601562 240.420898438 l 1
 657.694335938 239.921875 l 2
 673.669921875 239.864257812 690.907226562 224.638671875 695.293945312 205 c 0
 699.682617188 185.360351562 689.0078125 170.233398438 673.251953125 170.291015625 c 2
 673.251953125 170.291015625 589.04296875 170.56640625 483.794921875 170.920898438 c 1
 411.107421875 28 l 2
 403.478515625 13 380.716796875 0 359.817382812 0 c 0
 338.916992188 0 329.483398438 13.20703125 337.0078125 28 c 2
 337.0078125 28 368.100585938 89.181640625 409.77734375 171.171875 c 1
 361.461914062 171.336914062 311.881835938 171.5078125 266.17578125 171.669921875 c 1
 193.107421875 28 l 2
 185.478515625 13 162.716796875 0 141.817382812 0 c 0
 120.916992188 0 111.483398438 13.20703125 119.0078125 28 c 2
 119.0078125 28 150.293945312 89.5625 192.166015625 171.936523438 c 1
 123.047851562 172.19140625 74.7626953125 172.389648438 74.703125 172.4453125 c 0
 58.728515625 172.502929688 41.4921875 187.727539062 37.103515625 207.3671875 c 0
 32.71484375 227.006835938 43.259765625 241.733398438 59.1455078125 242.076171875 c 2
 227.51171875 241.469726562 l 1
 244.658203125 275.198242188 262.505859375 310.306640625 279.98828125 344.690429688 c 1
 201.806640625 344.974609375 145.377929688 345.201171875 145.313476562 345.26171875 c 0
 129.337890625 345.319335938 112.1015625 360.543945312 107.713867188 380.18359375 c 0
 103.325195312 399.823242188 113.869140625 414.549804688 129.755859375 414.892578125 c 2
 315.345703125 414.224609375 l 1
 365.078125 512.020507812 404.727539062 589.94140625 404.834960938 590 c 0
 412.463867188 605 435.224609375 618 456.125 618 c 0
 477.024414062 618 486.137695312 605 478.934570312 590 c 2
 389.401367188 413.958007812 l 1
 532.947265625 413.44140625 l 1
 582.866210938 511.604492188 622.727539062 589.94140625 622.834960938 590 c 0
 630.463867188 605 653.224609375 618 674.125 618 c 0
 695.024414062 618 704.137695312 605 696.934570312 590 c 2
354.038085938 344.42578125 m 1
 301.541015625 241.204101562 l 1
 445.114257812 240.686523438 l 1
 462.255859375 274.40625 480.108398438 309.522460938 497.6015625 343.9296875 c 1
 449.91796875 344.091796875 400.37890625 344.262695312 354.038085938 344.42578125 c 1
EndSplineSet
AlternateSubs2: "'salt' Stylistic Alternatives in Latin lookup 0 subtable" uniE008
EndChar

StartChar: dollar
Encoding: 36 36 5
Width: 568
GlyphClass: 2
Flags: MW
HStem: 77.4688 55.5742<48.4697 61.9053> 265.496 56.0977<186.654 186.654 186.654 189.453> 454.606 56.082<339.647 347.529>
LayerCount: 2
Back
Fore
SplineSet
265.259765625 453.200195312 m 1
 197.770507812 447.919921875 142.083984375 426.737304688 134.440429688 372.349609375 c 0
 134.240234375 370.926757812 111.251953125 321.391601562 186.654296875 321.59375 c 2
 186.654296875 321.59375 208.663085938 321.740234375 246.811523438 321.879882812 c 1
 253.385742188 368.715820312 259.811523438 414.4375 265.259765625 453.200195312 c 1
294.571289062 133.87109375 m 1
 365.688476562 138.065429688 425.609375 158.713867188 433.559570312 215.28125 c 0
 433.759765625 216.704101562 456.736328125 266.146484375 381.345703125 266.037109375 c 0
 381.146484375 266.09765625 356.081054688 265.924804688 313.106445312 265.7578125 c 1
 294.571289062 133.87109375 l 1
354.741210938 562 m 2
 347.529296875 510.688476562 l 1
 448.462890625 510.598632812 513.905273438 510.162109375 513.905273438 510.162109375 c 2
 525.155273438 510.162109375 533.203125 498.049804688 531 482.375 c 0
 528.797851562 466.700195312 517.344726562 454.587890625 506.094726562 454.587890625 c 2
 506.094726562 454.587890625 417.640625 454.602539062 339.647460938 454.606445312 c 1
 321.021484375 322.077148438 l 1
 341.908203125 322.112304688 364.760742188 322.134765625 389.23046875 322.134765625 c 0
 444.35546875 322.134765625 512.186523438 334.629882812 495.413085938 215.28125 c 0
 480.340820312 108.036132812 394.09375 81.1826171875 286.637695312 77.4228515625 c 1
 279.692382812 28 l 2
 277.583984375 13 259.606445312 0 238.70703125 0 c 0
 217.806640625 0 203.512695312 13.20703125 205.592773438 28 c 2
 205.592773438 28 208.205078125 46.638671875 212.454101562 76.951171875 c 1
 116.0859375 77.0556640625 54.0947265625 77.46875 54.0947265625 77.46875 c 2
 42.8447265625 77.46875 34.796875 89.5810546875 37 105.255859375 c 0
 39.203125 120.930664062 50.6552734375 133.04296875 61.9052734375 133.04296875 c 2
 61.9052734375 133.04296875 144.413085938 133.029296875 220.31640625 133.024414062 c 1
 225.764648438 171.876953125 232.245117188 218.084960938 238.905273438 265.548828125 c 1
 220.255859375 265.516601562 200.135742188 265.49609375 178.770507812 265.49609375 c 0
 123.645507812 265.49609375 55.8134765625 253.000976562 72.5869140625 372.349609375 c 0
 87.27734375 476.877929688 169.58203125 505.036132812 273.237304688 509.876953125 c 1
 277.770507812 542.03125 280.596679688 561.969726562 280.641601562 562 c 0
 282.749023438 577 300.725585938 590 321.625976562 590 c 0
 342.525390625 590 356.422851562 577 354.741210938 562 c 2
EndSplineSet
EndChar

StartChar: percent
Encoding: 37 37 6
Width: 591
GlyphClass: 2
Flags: MW
HStem: -0.44043 58.2041<386.264 421.308 386.264 429.318> 175.436 58.2041<402.802 437.846> 383.92 58.2041<153.826 188.87 153.826 196.879> 559.796 58.2041<170.363 205.407>
LayerCount: 2
Back
Fore
SplineSet
243.18359375 500.959960938 m 0
 247.572265625 532.185546875 222.928710938 559.795898438 187.884765625 559.795898438 c 0
 152.840820312 559.795898438 120.4375 532.185546875 116.048828125 500.959960938 c 0
 111.66015625 469.734375 136.303710938 442.124023438 171.34765625 442.124023438 c 0
 206.391601562 442.124023438 238.794921875 469.734375 243.18359375 500.959960938 c 0
301.919921875 500.959960938 m 0
 292.840820312 436.360351562 230.590820312 383.919921875 163.166992188 383.919921875 c 0
 95.7431640625 383.919921875 48.2333984375 436.360351562 57.3125 500.959960938 c 0
 66.3916015625 565.559570312 128.641601562 618 196.065429688 618 c 0
 263.489257812 618 310.999023438 565.559570312 301.919921875 500.959960938 c 0
348.487304688 116.599609375 m 0
 344.099609375 85.3740234375 368.7421875 57.763671875 403.786132812 57.763671875 c 0
 438.830078125 57.763671875 471.234375 85.3740234375 475.622070312 116.599609375 c 0
 480.010742188 147.825195312 455.368164062 175.435546875 420.32421875 175.435546875 c 0
 385.280273438 175.435546875 352.875976562 147.825195312 348.487304688 116.599609375 c 0
289.750976562 116.599609375 m 0
 298.830078125 181.19921875 361.080078125 233.639648438 428.50390625 233.639648438 c 0
 495.927734375 233.639648438 543.4375 181.19921875 534.358398438 116.599609375 c 0
 525.280273438 52 463.030273438 -0.4404296875 395.606445312 -0.4404296875 c 0
 328.182617188 -0.4404296875 280.672851562 52 289.750976562 116.599609375 c 0
547.27734375 590 m 2
 117.942382812 28 l 2
 106.482421875 13 80.4013671875 0 59.501953125 0 c 0
 38.6015625 0 32.5400390625 13.20703125 43.8427734375 28 c 2
 43.8427734375 28 472.849609375 589.842773438 473.177734375 590 c 0
 484.637695312 605 510.717773438 618 531.618164062 618 c 0
 552.517578125 618 558.311523438 605 547.27734375 590 c 2
EndSplineSet
EndChar

StartChar: ampersand
Encoding: 38 38 7
Width: 835
GlyphClass: 2
Flags: MW
HStem: 0 74.0996<135.029 559.027 135.029 594.736> 252.633 74.167 364 74.0996<404.343 633.659 763.843 763.843> 505.426 74.7959<399.231 504.729>
LayerCount: 2
Back
Fore
SplineSet
422.256835938 438.099609375 m 2
 633.659179688 438.099609375 l 2
 638.018554688 439.354492188 642.696289062 440.049804688 647.530273438 440.049804688 c 0
 652.364257812 440.049804688 656.823242188 439.354492188 660.803710938 438.099609375 c 2
 774.256835938 438.099609375 l 2
 789.256835938 438.099609375 799.986328125 421.94921875 797.049804688 401.049804688 c 0
 794.112304688 380.149414062 778.634765625 363.999023438 763.842773438 364 c 2
 673.883789062 363.931640625 l 1
 627.943359375 37.0498046875 l 2
 625.005859375 16.1494140625 609.736328125 0 594.736328125 0 c 0
 594.548828125 -0.2080078125 60.736328125 0 60.736328125 0 c 2
 45.943359375 -0.0009765625 35.005859375 16.1494140625 37.943359375 37.0498046875 c 0
 51.08984375 130.59375 77.1728515625 213.970703125 128.790039062 267.137695312 c 1
 125.991210938 273.337890625 124.84765625 281.140625 126.057617188 289.75 c 0
 148.5625 449.881835938 297.98046875 580.221679688 459.48046875 580.221679688 c 0
 620.98046875 580.221679688 597.37890625 579.5 597.37890625 579.5 c 2
 612.37890625 579.5 623.109375 563.349609375 620.171875 542.450195312 c 0
 617.234375 521.549804688 601.96484375 505.400390625 586.96484375 505.400390625 c 2
 586.96484375 505.400390625 560.48828125 505.42578125 448.96875 505.42578125 c 0
 349.494140625 505.42578125 267.928710938 426.551757812 223.143554688 326.799804688 c 1
 261.995117188 326.799804688 l 2
 268.599609375 327.278320312 275.389648438 327.521484375 282.366210938 327.521484375 c 0
 443.866210938 327.521484375 445.264648438 326.799804688 445.264648438 326.799804688 c 2
 460.264648438 326.799804688 470.995117188 310.649414062 468.057617188 289.75 c 0
 465.120117188 268.849609375 449.850585938 252.700195312 434.850585938 252.700195312 c 0
 434.74609375 252.583984375 344.974609375 252.59765625 266.047851562 252.6328125 c 0
 172.654296875 249.58203125 178.923828125 171.869140625 135.029296875 74.099609375 c 1
 559.02734375 74.099609375 l 1
 567.731445312 136.299804688 585.708007812 264.650390625 599.705078125 363.9140625 c 1
 500.888671875 363.897460938 411.899414062 363.907226562 411.842773438 364 c 0
 396.842773438 364 386.112304688 380.149414062 389.049804688 401.049804688 c 0
 391.986328125 421.94921875 407.196289062 437.673828125 422.256835938 438.099609375 c 2
EndSplineSet
EndChar

StartChar: quotesingle
Encoding: 39 39 8
Width: 198
GlyphClass: 2
Flags: MW
HStem: 557.5 21G 607.5 92.5<91.0898 94.4507>
VStem: 53.3398 87.6621
LayerCount: 2
Back
Fore
SplineSet
53.33984375 653.75 m 0
 56.853515625 678.75 78.58984375 700 103.58984375 700 c 0
 128.58984375 700 145.603515625 678.75 142.08984375 653.75 c 1
 144.21875 633.318359375 149.53515625 600 141.001953125 583.75 c 0
 135.670898438 572.5 87.9560546875 562.083984375 52.3125 557.5 c 1
 82.3857421875 571.014648438 107.91796875 577.020507812 112.665039062 613.06640625 c 1
 105.840820312 609.52734375 98.3115234375 607.5 90.58984375 607.5 c 0
 65.58984375 607.5 49.826171875 628.75 53.33984375 653.75 c 0
EndSplineSet
EndChar

StartChar: parenleft
Encoding: 40 40 9
Width: 435
GlyphClass: 2
Flags: MW
HStem: -0.171875 0.696289<242.095 249.595 242.095 322.747> 505.976 74.7959<257.372 320.632>
LayerCount: 2
Back
Fore
SplineSet
323.545898438 580.075195312 m 1
 338.545898438 580.075195312 349.276367188 563.924804688 346.338867188 543.025390625 c 0
 343.401367188 522.125 328.131835938 505.975585938 313.131835938 505.975585938 c 0
 201.612304688 505.975585938 143.401367188 409.197265625 126.69140625 290.299804688 c 0
 109.981445312 171.40234375 140.989257812 74.6240234375 252.508789062 74.6240234375 c 0
 267.508789062 74.6240234375 278.239257812 58.474609375 275.301757812 37.57421875 c 0
 272.365234375 16.6748046875 257.094726562 0.5244140625 242.094726562 0.5244140625 c 1
 242.094726562 0.5244140625 403.497070312 -0.171875 241.997070312 -0.171875 c 0
 80.4970703125 -0.171875 21.7158203125 130.16796875 44.220703125 290.299804688 c 0
 66.7255859375 450.431640625 162.143554688 580.771484375 323.643554688 580.771484375 c 0
 485.143554688 580.771484375 323.545898438 580.075195312 323.545898438 580.075195312 c 1
EndSplineSet
EndChar

StartChar: parenright
Encoding: 41 41 10
Width: 435
GlyphClass: 2
Flags: MW
HStem: -0.171875 0.696289<103.954 111.454 103.954 192.106> -0.171875 74.7959<114.368 177.628 114.368 192.106> 580.075 0.696289<185.405 192.905>
LayerCount: 2
Back
Fore
SplineSet
192.905273438 580.075195312 m 1x60
 192.905273438 580.075195312 31.5029296875 580.771484375 193.002929688 580.771484375 c 0
 354.502929688 580.771484375 413.284179688 450.431640625 390.779296875 290.299804688 c 0
 368.274414062 130.16796875 272.856445312 -0.171875 111.356445312 -0.171875 c 0x60
 -50.1435546875 -0.171875 111.454101562 0.5244140625 111.454101562 0.5244140625 c 1xa0
 96.4541015625 0.5244140625 85.724609375 16.6748046875 88.6611328125 37.57421875 c 0
 91.5986328125 58.474609375 106.868164062 74.6240234375 121.868164062 74.6240234375 c 0
 233.387695312 74.6240234375 291.598632812 171.40234375 308.30859375 290.299804688 c 0
 325.018554688 409.197265625 294.010742188 505.975585938 182.491210938 505.975585938 c 0
 167.491210938 505.975585938 156.760742188 522.125 159.698242188 543.025390625 c 0
 162.635742188 563.924804688 177.905273438 580.075195312 192.905273438 580.075195312 c 1x60
EndSplineSet
EndChar

StartChar: asterisk
Encoding: 42 42 11
Width: 337
GlyphClass: 2
Flags: MW
HStem: 607.58 29.6406<51.0166 58.1826 55.2241 58.1826 55.2241 130.605>
VStem: 44.9004 247.199<622 622>
LayerCount: 2
Back
Fore
SplineSet
199.1171875 734.80078125 m 2
 188.35546875 658.23046875 l 1
 222.23046875 687.935546875 250.102539062 712.364257812 250.142578125 712.358398438 c 0
 261.762695312 722.548828125 279.490234375 701.842773438 268.155273438 691.400390625 c 2
 206.40234375 637.256835938 l 1
 248.409179688 637.259765625 282.962890625 637.252929688 282.983398438 637.220703125 c 0
 288.983398438 637.220703125 293.274414062 630.760742188 292.099609375 622.400390625 c 0
 290.924804688 614.041015625 284.841796875 607.750976562 278.817382812 607.580078125 c 2
 202.247070312 607.580078125 l 1
 227.778320312 577.879882812 248.772460938 553.44140625 248.760742188 553.400390625 c 0
 257.51953125 543.212890625 233.913085938 522.575195312 224.857421875 532.442382812 c 2
 178.291992188 586.622070312 l 1
 167.5234375 510 l 2
 166.680664062 504 159.48828125 498.80078125 151.12890625 498.80078125 c 0
 142.768554688 498.80078125 137.051757812 504.083007812 137.8828125 510 c 2
 137.8828125 510 142.728515625 544.571289062 148.625976562 586.598632812 c 1
 86.857421875 532.442382812 l 2
 75.203125 522.22265625 57.3125 543.291992188 68.8447265625 553.400390625 c 2
 68.8447265625 553.400390625 96.7177734375 577.85546875 130.60546875 607.580078125 c 1
 54.0166015625 607.580078125 l 2
 48.0166015625 607.580078125 43.7255859375 614.041015625 44.900390625 622.400390625 c 0
 46.0751953125 630.760742188 52.265625 637.220703125 58.1826171875 637.220703125 c 2
 58.1826171875 637.220703125 92.755859375 637.233398438 134.784179688 637.243164062 c 1
 88.2392578125 691.400390625 l 2
 79.4560546875 701.618164062 103.455078125 722.469726562 112.142578125 712.358398438 c 2
 112.142578125 712.358398438 133.145507812 687.942382812 158.681640625 658.248046875 c 1
 164.580078125 700.239257812 169.440429688 734.775390625 169.4765625 734.80078125 c 0
 170.319335938 740.80078125 177.510742188 746 185.87109375 746 c 0
 194.23046875 746 199.7890625 740.80078125 199.1171875 734.80078125 c 2
EndSplineSet
AlternateSubs2: "'salt' Stylistic Alternatives in Latin lookup 0 subtable" uniE006
EndChar

StartChar: plus
Encoding: 43 43 12
Width: 567
GlyphClass: 2
Flags: MW
HStem: 271.904 74.0996<59.793 77.707 77.707 77.707 77.707 241.243>
LayerCount: 2
Back
Fore
SplineSet
489.29296875 271.904296875 m 2
 315.428710938 271.904296875 l 1
 302.547851562 180.137695312 290.997070312 98.0234375 290.895507812 97.9541015625 c 0
 288.787109375 82.9541015625 270.810546875 69.9541015625 249.91015625 69.9541015625 c 0
 229.010742188 69.9541015625 215.11328125 82.9541015625 216.795898438 97.9541015625 c 2
 241.243164062 271.904296875 l 1
 67.29296875 271.904296875 l 2
 52.29296875 271.904296875 41.5625 288.0546875 44.5 308.954101562 c 0
 47.4375 329.854492188 62.9140625 346.004882812 77.70703125 346.00390625 c 2
 77.70703125 346.00390625 159.857421875 346.043945312 251.666992188 346.072265625 c 1
 276.104492188 519.954101562 l 2
 278.211914062 534.954101562 296.189453125 547.954101562 317.088867188 547.954101562 c 0
 337.989257812 547.954101562 352.283203125 534.747070312 350.204101562 519.954101562 c 2
 350.204101562 519.954101562 338.706054688 437.860351562 325.8359375 346.08984375 c 1
 417.577148438 346.106445312 499.650390625 346.095703125 499.70703125 346.00390625 c 0
 514.70703125 346.00390625 525.4375 329.854492188 522.5 308.954101562 c 0
 519.5625 288.0546875 504.352539062 272.330078125 489.29296875 271.904296875 c 2
EndSplineSet
AlternateSubs2: "'salt' Stylistic Alternatives in Latin lookup 0 subtable" uniE005
EndChar

StartChar: comma
Encoding: 44 44 13
Width: 198
GlyphClass: 2
Flags: MW
HStem: -0.25 92.5<91.0889 94.4497>
VStem: 53.3389 87.6621
LayerCount: 2
Back
Fore
SplineSet
53.3388671875 46 m 0
 56.8525390625 71 78.5888671875 92.25 103.588867188 92.25 c 0
 128.588867188 92.25 145.602539062 71 142.088867188 46 c 1
 144.21875 25.568359375 149.53515625 -7.75 141.000976562 -24 c 0
 135.669921875 -35.25 87.955078125 -45.666015625 52.3115234375 -50.25 c 1
 82.384765625 -36.7353515625 107.91796875 -30.7294921875 112.6640625 5.31640625 c 1
 105.840820312 1.77734375 98.310546875 -0.25 90.5888671875 -0.25 c 0
 65.5888671875 -0.25 49.8251953125 21 53.3388671875 46 c 0
EndSplineSet
EndChar

StartChar: hyphen
Encoding: 45 45 14
Width: 586
GlyphClass: 2
Flags: MW
HStem: 271.904 74.0996<69.293 509.207 87.207 498.793>
LayerCount: 2
Back
Fore
SplineSet
498.79296875 271.904296875 m 2
 76.79296875 271.904296875 l 2
 61.79296875 271.904296875 51.0625 288.0546875 54 308.954101562 c 0
 56.9375 329.854492188 72.4140625 346.004882812 87.20703125 346.00390625 c 2
 87.20703125 346.00390625 509.079101562 346.211914062 509.20703125 346.00390625 c 0
 524.20703125 346.00390625 534.9375 329.854492188 532 308.954101562 c 0
 529.0625 288.0546875 513.852539062 272.330078125 498.79296875 271.904296875 c 2
EndSplineSet
EndChar

StartChar: period
Encoding: 46 46 15
Width: 195
GlyphClass: 2
Flags: MW
HStem: -0.25 92.5<90.8896 102.89>
VStem: 53.1396 88.75<46 46>
LayerCount: 2
Back
Fore
SplineSet
53.1396484375 46 m 0
 56.6533203125 71 78.3896484375 92.25 103.389648438 92.25 c 0
 128.389648438 92.25 145.403320312 71 141.889648438 46 c 0
 138.375976562 21 115.389648438 -0.25 90.3896484375 -0.25 c 0
 65.3896484375 -0.25 49.6259765625 21 53.1396484375 46 c 0
EndSplineSet
EndChar

StartChar: slash
Encoding: 47 47 16
Width: 442
GlyphClass: 2
Flags: W
LayerCount: 2
Back
Fore
SplineSet
401.029296875 590 m 2
 115.202148438 28 l 2
 107.573242188 13 84.8115234375 0 63.912109375 0 c 0
 43.01171875 0 33.578125 13.20703125 41.1025390625 28 c 2
 41.1025390625 28 326.641601562 589.842773438 326.9296875 590 c 0
 334.55859375 605 357.319335938 618 378.219726562 618 c 0
 399.119140625 618 408.232421875 605 401.029296875 590 c 2
EndSplineSet
EndChar

StartChar: zero
Encoding: 48 48 17
Width: 704
GlyphClass: 2
Flags: MW
HStem: 0 82.4707<259.891 385.046 259.891 395.158> 502.729 82.4707<318.955 444.11>
LayerCount: 2
Back
Fore
SplineSet
124.97265625 292.599609375 m 0
 109.299804688 181.079101562 197.313476562 82.470703125 322.46875 82.470703125 c 0
 447.624023438 82.470703125 563.354492188 181.079101562 579.02734375 292.599609375 c 0
 594.700195312 404.119140625 506.6875 502.728515625 381.532226562 502.728515625 c 0
 256.376953125 502.728515625 140.645507812 404.119140625 124.97265625 292.599609375 c 0
46.240234375 292.599609375 m 0
 68.9375 454.099609375 224.5625 585.19921875 393.122070312 585.19921875 c 0
 561.681640625 585.19921875 680.45703125 454.099609375 657.759765625 292.599609375 c 0
 635.0625 131.099609375 479.4375 0 310.877929688 0 c 0
 142.318359375 0 23.54296875 131.099609375 46.240234375 292.599609375 c 0
EndSplineSet
AlternateSubs2: "'salt' Stylistic Alternatives in Latin lookup 0 subtable" uniE019
EndChar

StartChar: one
Encoding: 49 49 18
Width: 296
GlyphClass: 2
Flags: MW
HStem: 0 28<107.375 150.939>
LayerCount: 2
Back
Fore
SplineSet
168.71875 465.118164062 m 1
 93.64453125 399.294921875 l 2
 81.5478515625 388.688476562 61.248046875 390.916015625 48.546875 405.694335938 c 0
 35.8447265625 420.47265625 36.6806640625 441.231445312 48.6123046875 451.69140625 c 2
 48.6123046875 451.69140625 174.190429688 561.8671875 174.423828125 562 c 0
 186.520507812 572.606445312 198.143554688 592 223.408203125 590 c 0
 244.307617188 590 258.205078125 577 256.5234375 562 c 2
 181.474609375 28 l 2
 179.366210938 13 161.388671875 0 140.489257812 0 c 0
 119.588867188 0 105.294921875 13.20703125 107.375 28 c 2
 107.375 28 146.102539062 304.362304688 168.71875 465.118164062 c 1
EndSplineSet
EndChar

StartChar: two
Encoding: 50 50 19
Width: 710
GlyphClass: 2
Flags: MW
HStem: 0.402344 74.7959<268.875 380.395 268.875 394.873> 210.55 74.7959<186.419 212.657> 503.976 74.7959<336.135 447.655>
LayerCount: 2
Back
Fore
SplineSet
584.224609375 1.1240234375 m 2
 584.224609375 1.1240234375 475.623046875 0.40234375 314.123046875 0.40234375 c 0
 152.623046875 0.40234375 18.900390625 -18.2578125 40.84375 137.874023438 c 0
 63.2080078125 297.005859375 149.668945312 285.345703125 223.168945312 285.345703125 c 0
 384.668945312 285.345703125 493.067382812 284.624023438 493.067382812 284.624023438 c 2
 547.586914062 284.624023438 577.490234375 329.40234375 586.469726562 393.299804688 c 0
 603.1796875 512.197265625 503.415039062 503.975585938 391.895507812 503.975585938 c 0
 280.375 503.975585938 121.891601562 503.950195312 121.891601562 503.950195312 c 2
 106.891601562 503.950195312 96.162109375 520.099609375 99.0986328125 541 c 0
 102.036132812 561.899414062 117.305664062 578.049804688 132.305664062 578.049804688 c 2
 132.305664062 578.049804688 240.907226562 578.771484375 402.407226562 578.771484375 c 0
 563.907226562 578.771484375 691.4453125 553.431640625 668.940429688 393.299804688 c 0
 648.403320312 247.16796875 578.055664062 209.828125 482.555664062 209.828125 c 0
 321.055664062 209.828125 212.657226562 210.549804688 212.657226562 210.549804688 c 2
 101.137695312 210.549804688 123.581054688 139.771484375 123.314453125 137.874023438 c 0
 114.615234375 75.9765625 213.115234375 75.1982421875 324.634765625 75.1982421875 c 0
 436.155273438 75.1982421875 594.638671875 75.2236328125 594.638671875 75.2236328125 c 2
 609.638671875 75.2236328125 620.369140625 59.07421875 617.431640625 38.173828125 c 0
 614.494140625 17.2744140625 599.224609375 1.1240234375 584.224609375 1.1240234375 c 2
EndSplineSet
EndChar

StartChar: three
Encoding: 51 51 20
Width: 765
GlyphClass: 2
Flags: MW
HStem: -0.171875 74.7959<340.29 451.81 340.29 466.288> 252.95 74.0996<58.958 470.872 76.8721 460.458> 505.976 74.7959<400.913 512.433>
LayerCount: 2
Back
Fore
SplineSet
76.8720703125 327.049804688 m 2
 470.872070312 327.049804688 l 2
 485.872070312 327.049804688 496.461914062 309.899414062 493.524414062 289 c 0
 490.586914062 268.099609375 475.250976562 252.94921875 460.458007812 252.950195312 c 2
 460.458007812 252.950195312 66.5859375 252.7421875 66.4580078125 252.950195312 c 0
 51.4580078125 252.950195312 40.7275390625 269.099609375 43.6650390625 290 c 0
 46.6025390625 310.899414062 61.8125 326.624023438 76.8720703125 327.049804688 c 2
197.083007812 580.049804688 m 2
 197.083007812 580.049804688 305.684570312 580.771484375 467.184570312 580.771484375 c 0
 628.684570312 580.771484375 741.465820312 450.431640625 718.9609375 290.299804688 c 0
 696.456054688 130.16796875 547.038085938 -0.171875 385.538085938 -0.171875 c 0
 224.038085938 -0.171875 115.639648438 0.5498046875 115.639648438 0.5498046875 c 2
 100.639648438 0.5498046875 89.9091796875 16.7001953125 92.8466796875 37.599609375 c 0
 95.7841796875 58.5 111.053710938 74.6494140625 126.053710938 74.6494140625 c 2
 126.053710938 74.6494140625 284.529296875 74.6240234375 396.049804688 74.6240234375 c 0
 507.569335938 74.6240234375 619.780273438 171.40234375 636.490234375 290.299804688 c 0
 653.200195312 409.197265625 568.192382812 505.975585938 456.672851562 505.975585938 c 0
 345.15234375 505.975585938 186.668945312 505.950195312 186.668945312 505.950195312 c 2
 171.668945312 505.950195312 160.938476562 522.099609375 163.875976562 543 c 0
 166.813476562 563.899414062 182.083007812 580.049804688 197.083007812 580.049804688 c 2
EndSplineSet
EndChar

StartChar: four
Encoding: 52 52 21
Width: 644
GlyphClass: 2
Flags: MW
HStem: 239.229 74.7959<303.856 349.644> 515.376 74.7959
LayerCount: 2
Back
Fore
SplineSet
530.360351562 557.400390625 m 1
 496.057617188 313.328125 l 1
 580.057617188 313.328125 l 2
 595.057617188 313.328125 605.788085938 297.177734375 602.850585938 276.278320312 c 0
 599.913085938 255.377929688 584.436523438 239.227539062 569.643554688 239.228515625 c 2
 569.643554688 239.228515625 536.6953125 239.1875 485.608398438 239.16015625 c 1
 455.932617188 28 l 2
 453.82421875 13 435.846679688 0 414.947265625 0 c 0
 394.046875 0 379.752929688 13.20703125 381.833007812 28 c 2
 381.833007812 28 394.861328125 121.001953125 411.436523438 239.135742188 c 1
 376.255859375 239.135742188 349.686523438 239.158203125 349.643554688 239.228515625 c 0
 258.068359375 239.228515625 213.095703125 238.399414062 62.5390625 239.014648438 c 1
 20.640625 248.647460938 46.3837890625 276.8671875 77.6513671875 314.700195312 c 0
 201.70703125 464.807617188 308.717773438 586.159179688 398.965820312 590.171875 c 0
 545.03515625 596.666015625 530.360351562 557.400390625 530.360351562 557.400390625 c 1
450.352539062 515.915039062 m 1
 435.099609375 515.877929688 414.962890625 515.7265625 388.454101562 515.375976562 c 0
 346.102539062 514.815429688 294.135742188 470.859375 178.370117188 330.700195312 c 0
 161.846679688 310.6953125 213.635742188 314.024414062 360.155273438 314.024414062 c 2
 360.155273438 314.024414062 366.588867188 314.03515625 421.94921875 314.04296875 c 1
 433.18359375 394.071289062 444.143554688 471.984375 450.352539062 515.915039062 c 1
EndSplineSet
AlternateSubs2: "'salt' Stylistic Alternatives in Latin lookup 0 subtable" uniE012
EndChar

StartChar: five
Encoding: 53 53 22
Width: 739
GlyphClass: 2
Flags: MW
HStem: -0.291992 74.7959<287.109 398.629 287.109 413.107> 293.134 74.7959<198.846 246.107 190.348 316.346> 503.281 74.7959<340.371 451.891>
LayerCount: 2
Back
Fore
SplineSet
676.541015625 577.35546875 m 2
 691.541015625 577.35546875 702.271484375 561.205078125 699.333984375 540.305664062 c 0
 696.396484375 519.405273438 681.126953125 503.255859375 666.126953125 503.255859375 c 2
 666.126953125 503.255859375 507.650390625 503.28125 396.130859375 503.28125 c 0
 284.611328125 503.28125 185.892578125 502.502929688 177.193359375 440.60546875 c 0
 176.92578125 438.708007812 134.587890625 367.9296875 246.107421875 367.9296875 c 2
 246.107421875 367.9296875 354.708984375 368.651367188 516.208984375 368.651367188 c 0
 611.708984375 368.651367188 671.560546875 331.311523438 651.0234375 185.1796875 c 0
 628.51953125 25.0478515625 493.857421875 -0.2919921875 332.357421875 -0.2919921875 c 0
 170.857421875 -0.2919921875 62.458984375 0.4296875 62.458984375 0.4296875 c 2
 47.458984375 0.4296875 36.728515625 16.580078125 39.666015625 37.4794921875 c 0
 42.603515625 58.3798828125 57.873046875 74.529296875 72.873046875 74.529296875 c 2
 72.873046875 74.529296875 231.349609375 74.50390625 342.869140625 74.50390625 c 0
 454.388671875 74.50390625 551.84375 66.2822265625 568.552734375 185.1796875 c 0
 577.533203125 249.077148438 560.216796875 293.85546875 505.697265625 293.85546875 c 2
 505.697265625 293.85546875 397.095703125 293.133789062 235.595703125 293.133789062 c 0
 162.095703125 293.133789062 72.357421875 281.473632812 94.7216796875 440.60546875 c 0
 116.665039062 596.737304688 245.142578125 578.077148438 406.642578125 578.077148438 c 0
 568.142578125 578.077148438 676.541015625 577.35546875 676.541015625 577.35546875 c 2
EndSplineSet
EndChar

StartChar: six
Encoding: 54 54 23
Width: 720
GlyphClass: 2
Flags: MW
HStem: 0 74.7979<307.593 322.878 307.593 322.878 308.642 322.878 311.342 322.878 314.042 322.878> 251.743 75.0342 503.573 74.7959<321.055 432.575>
LayerCount: 2
Back
Fore
SplineSet
353.26953125 0.62890625 m 2
 353.26953125 0.62890625 432.146484375 0.015625 315.090820312 0 c 2
 314.041992188 0 l 1
 311.341796875 0 l 1
 308.641601562 0 l 1
 307.592773438 0 l 2
 190.541015625 0.015625 269.591796875 0.62890625 269.591796875 0.62890625 c 2
 127.2578125 5.5205078125 21.828125 41.1689453125 41.9677734375 184.471679688 c 0
 48.8759765625 233.625 61.83203125 266.005859375 78.6064453125 287.286132812 c 1
 66.26171875 308.44921875 61.46875 341.725585938 68.80078125 393.897460938 c 0
 90.744140625 550.029296875 225.826171875 578.369140625 387.326171875 578.369140625 c 0
 548.826171875 578.369140625 657.224609375 577.647460938 657.224609375 577.647460938 c 2
 672.224609375 577.647460938 682.955078125 561.497070312 680.017578125 540.59765625 c 0
 677.081054688 519.697265625 661.810546875 503.547851562 646.810546875 503.547851562 c 2
 646.810546875 503.547851562 488.334960938 503.573242188 376.814453125 503.573242188 c 0
 265.294921875 503.573242188 163.34375 479.794921875 151.271484375 393.897460938 c 0
 151.025390625 392.145507812 124.881835938 335.720703125 199.97265625 327.274414062 c 0
 207.921875 327.12890625 215.825195312 326.943359375 223.590820312 326.943359375 c 0
 273.84765625 326.943359375 318.961914062 326.873046875 357.267578125 326.77734375 c 0
 395.600585938 326.873046875 440.734375 326.943359375 490.991210938 326.943359375 c 0
 564.491210938 326.943359375 654.931640625 343.603515625 632.567382812 184.471679688 c 0
 612.427734375 41.1689453125 496.9765625 5.5205078125 353.26953125 0.62890625 c 2
381.014648438 251.743164062 m 0
 336.115234375 251.577148438 277.9140625 251.42578125 210.377929688 251.42578125 c 0
 204.755859375 251.42578125 199.03515625 251.328125 193.2734375 251.219726562 c 0
 114.260742188 243.224609375 124.686523438 186.234375 124.438476562 184.471679688 c 0
 112.491210938 99.4599609375 205.6796875 75.29296875 315.70703125 74.8037109375 c 0
 317.756835938 74.8037109375 319.8046875 74.7978515625 321.853515625 74.7978515625 c 0
 323.90234375 74.7978515625 325.952148438 74.8037109375 328.001953125 74.8037109375 c 0
 438.16796875 75.29296875 538.149414062 99.4599609375 550.096679688 184.471679688 c 0
 550.361328125 186.352539062 580.48046875 251.17578125 483.014648438 252.13671875 c 0
 482.962890625 251.671875 482.94921875 251.42578125 482.977539062 251.42578125 c 2
 482.977539062 251.42578125 435.869140625 251.577148438 381.014648438 251.743164062 c 0
EndSplineSet
EndChar

StartChar: seven
Encoding: 55 55 24
Width: 648
GlyphClass: 2
Flags: MW
HStem: 505.976 74.7959<283.262 394.782>
LayerCount: 2
Back
Fore
SplineSet
481.59765625 28 m 0
 481.647460938 28 502.129882812 171.40234375 518.83984375 290.299804688 c 0
 535.549804688 409.197265625 450.541992188 505.975585938 339.022460938 505.975585938 c 0
 227.501953125 505.975585938 69.0185546875 505.950195312 69.0185546875 505.950195312 c 2
 54.0185546875 505.950195312 43.2880859375 522.099609375 46.2255859375 543 c 0
 49.1630859375 563.899414062 64.4326171875 580.049804688 79.4326171875 580.049804688 c 2
 79.4326171875 580.049804688 188.034179688 580.771484375 349.534179688 580.771484375 c 0
 511.034179688 580.771484375 613.288085938 450.087890625 601.310546875 290.299804688 c 1
 555.697265625 28 l 2
 553.5390625 13 535.611328125 0 514.711914062 0 c 0
 493.811523438 0 479.5390625 13 481.59765625 28 c 0
EndSplineSet
EndChar

StartChar: eight
Encoding: 56 56 25
Width: 707
GlyphClass: 2
Flags: MW
HStem: 0.000976562 74.7979<307.287 324.691 318.167 324.691> 251.625 75.1484 503.57 74.7979<382.311 388.833>
LayerCount: 2
Back
Fore
SplineSet
503.412109375 251.159179688 m 0
 496.609375 251.2890625 489.8515625 251.42578125 483.193359375 251.42578125 c 0
 432.322265625 251.42578125 386.771484375 251.51171875 348.220703125 251.625 c 0
 309.638671875 251.51171875 264.064453125 251.42578125 213.194335938 251.42578125 c 0
 206.536132812 251.42578125 199.739257812 251.2890625 192.900390625 251.159179688 c 0
 114.529296875 242.940429688 124.90234375 186.229492188 124.655273438 184.471679688 c 0
 112.724609375 99.5830078125 205.62890625 75.3623046875 315.44921875 74.8056640625 c 0
 318.08984375 74.8056640625 320.73046875 74.798828125 323.37109375 74.798828125 c 0
 326.01171875 74.798828125 328.65234375 74.8056640625 331.29296875 74.8056640625 c 0
 441.271484375 75.3623046875 540.982421875 99.5830078125 552.912109375 184.471679688 c 0
 553.16015625 186.229492188 579.47265625 242.940429688 503.412109375 251.159179688 c 0
351.177734375 577.749023438 m 2
 351.177734375 577.749023438 277.23828125 578.346679688 388.572265625 578.368164062 c 0
 389.09375 578.368164062 389.619140625 578.369140625 390.142578125 578.369140625 c 2
 394.142578125 578.369140625 l 1
 398.142578125 578.369140625 l 2
 398.666015625 578.369140625 399.189453125 578.368164062 399.712890625 578.368164062 c 0
 511.0390625 578.346679688 436.931640625 577.749023438 436.931640625 577.749023438 c 2
 579.396484375 572.892578125 684.96875 537.288085938 664.81640625 393.897460938 c 0
 657.69921875 343.259765625 644.1640625 310.422851562 626.646484375 289.184570312 c 1
 638.193359375 267.946289062 642.5 235.109375 635.3828125 184.471679688 c 0
 615.23046875 41.0810546875 499.65234375 5.4765625 355.822265625 0.6201171875 c 2
 355.822265625 0.6201171875 429.76171875 0.0224609375 318.427734375 0.0009765625 c 0
 317.90625 0.0009765625 317.380859375 0 316.857421875 0 c 2
 312.857421875 0 l 1
 308.857421875 0 l 2
 308.333984375 0 307.810546875 0.0009765625 307.287109375 0.0009765625 c 0
 195.9609375 0.0224609375 270.068359375 0.6201171875 270.068359375 0.6201171875 c 2
 127.603515625 5.4765625 22.0322265625 41.0810546875 42.1845703125 184.471679688 c 0
 49.30078125 235.109375 62.8369140625 267.946289062 80.35546875 289.184570312 c 1
 68.806640625 310.422851562 64.5009765625 343.259765625 71.6171875 393.897460938 c 0
 91.76953125 537.288085938 207.348632812 572.892578125 351.177734375 577.749023438 c 2
358.783203125 326.7734375 m 0
 397.39453125 326.872070312 442.98046875 326.943359375 493.806640625 326.943359375 c 0
 500.552734375 326.943359375 507.439453125 327.083984375 514.37109375 327.215820312 c 0
 592.431640625 335.455078125 582.099609375 392.141601562 582.345703125 393.897460938 c 0
 594.275390625 478.786132812 501.373046875 503.006835938 391.55078125 503.563476562 c 0
 388.91015625 503.563476562 386.271484375 503.5703125 383.630859375 503.5703125 c 0
 380.990234375 503.5703125 378.34765625 503.563476562 375.70703125 503.563476562 c 0
 265.73046875 503.006835938 166.018554688 478.786132812 154.087890625 393.897460938 c 0
 153.841796875 392.141601562 127.576171875 335.455078125 203.3203125 327.215820312 c 0
 210.213867188 327.083984375 217.0625 326.943359375 223.807617188 326.943359375 c 0
 274.6328125 326.943359375 320.19921875 326.872070312 358.783203125 326.7734375 c 0
EndSplineSet
EndChar

StartChar: nine
Encoding: 57 57 26
Width: 721
GlyphClass: 2
Flags: MW
HStem: 0 74.7959<287.925 399.445 287.925 413.924> 251.592 75.0342 503.571 74.7979<397.622 406.458>
LayerCount: 2
Back
Fore
SplineSet
367.231445312 577.740234375 m 2
 367.231445312 577.740234375 288.353515625 578.353515625 405.409179688 578.369140625 c 2
 406.458007812 578.369140625 l 1
 409.158203125 578.369140625 l 1
 411.858398438 578.369140625 l 1
 412.907226562 578.369140625 l 2
 529.958984375 578.353515625 450.909179688 577.740234375 450.909179688 577.740234375 c 2
 593.2421875 572.848632812 698.672851562 537.200195312 678.532226562 393.897460938 c 0
 671.624023438 344.744140625 666.893554688 291.083007812 666.893554688 291.083007812 c 2
 651.69921875 184.471679688 659.03125 236.643554688 651.69921875 184.471679688 c 0
 629.755859375 28.33984375 494.673828125 0 333.173828125 0 c 0
 171.673828125 0 63.275390625 0.7216796875 63.275390625 0.7216796875 c 2
 48.275390625 0.7216796875 37.544921875 16.8720703125 40.482421875 37.771484375 c 0
 43.419921875 58.671875 58.689453125 74.8212890625 73.689453125 74.8212890625 c 2
 73.689453125 74.8212890625 232.165039062 74.7958984375 343.685546875 74.7958984375 c 0
 455.205078125 74.7958984375 557.15625 98.57421875 569.228515625 184.471679688 c 0
 569.474609375 186.223632812 595.618164062 242.6484375 520.52734375 251.094726562 c 0
 512.578125 251.240234375 504.67578125 251.42578125 496.91015625 251.42578125 c 0
 446.653320312 251.42578125 401.5390625 251.49609375 363.233398438 251.591796875 c 0
 324.900390625 251.49609375 279.766601562 251.42578125 229.509765625 251.42578125 c 0
 156.009765625 251.42578125 65.568359375 234.765625 87.9326171875 393.897460938 c 0
 108.073242188 537.200195312 223.5234375 572.848632812 367.231445312 577.740234375 c 2
339.485351562 326.625976562 m 0
 384.384765625 326.791992188 442.586914062 326.943359375 510.123046875 326.943359375 c 0
 515.745117188 326.943359375 521.465820312 327.041015625 527.2265625 327.149414062 c 0
 606.239257812 335.14453125 595.814453125 392.134765625 596.061523438 393.897460938 c 0
 608.009765625 478.909179688 514.821289062 503.076171875 404.79296875 503.565429688 c 0
 402.743164062 503.565429688 400.6953125 503.571289062 398.646484375 503.571289062 c 0
 396.59765625 503.571289062 394.547851562 503.565429688 392.498046875 503.565429688 c 0
 282.333007812 503.076171875 182.3515625 478.909179688 170.403320312 393.897460938 c 0
 170.139648438 392.016601562 140.020507812 327.193359375 237.485351562 326.232421875 c 0
 237.537109375 326.697265625 237.551757812 326.943359375 237.5234375 326.943359375 c 2
 237.5234375 326.943359375 284.630859375 326.791992188 339.485351562 326.625976562 c 0
EndSplineSet
EndChar

StartChar: colon
Encoding: 58 58 27
Width: 211
GlyphClass: 2
Flags: MW
HStem: -0.5 92.5<86.0654 98.0654> 182 92.5<111.714 123.714>
VStem: 48.3154 114.398
LayerCount: 2
Back
Fore
SplineSet
73.9638671875 228.25 m 0
 77.4775390625 253.25 99.2138671875 274.5 124.213867188 274.5 c 0
 149.213867188 274.5 166.227539062 253.25 162.713867188 228.25 c 0
 159.200195312 203.25 136.213867188 182 111.213867188 182 c 0
 86.2138671875 182 70.4501953125 203.25 73.9638671875 228.25 c 0
48.3154296875 45.75 m 0
 51.8291015625 70.75 73.5654296875 92 98.5654296875 92 c 0
 123.565429688 92 140.579101562 70.75 137.065429688 45.75 c 0
 133.551757812 20.75 110.565429688 -0.5 85.5654296875 -0.5 c 0
 60.5654296875 -0.5 44.8017578125 20.75 48.3154296875 45.75 c 0
EndSplineSet
EndChar

StartChar: semicolon
Encoding: 59 59 28
Width: 212
GlyphClass: 2
Flags: MW
HStem: -0.5 92.5<86.835 90.1958> 182 92.5<112.483 124.483>
VStem: 49.085 87.6621 74.7334 88.75<228 228>
LayerCount: 2
Back
Fore
SplineSet
49.0849609375 45.75 m 0xe0
 52.5986328125 70.75 74.3349609375 92 99.3349609375 92 c 0
 124.334960938 92 141.348632812 70.75 137.834960938 45.75 c 1
 139.96484375 25.318359375 145.28125 -8 136.747070312 -24.25 c 0
 131.416015625 -35.5 83.701171875 -45.916015625 48.0576171875 -50.5 c 1
 78.130859375 -36.9853515625 103.6640625 -30.9794921875 108.41015625 5.06640625 c 1
 101.586914062 1.52734375 94.056640625 -0.5 86.3349609375 -0.5 c 0
 61.3349609375 -0.5 45.5712890625 20.75 49.0849609375 45.75 c 0xe0
74.7333984375 228.25 m 0xd0
 78.2470703125 253.25 99.9833984375 274.5 124.983398438 274.5 c 0
 149.983398438 274.5 166.997070312 253.25 163.483398438 228.25 c 0
 159.969726562 203.25 136.983398438 182 111.983398438 182 c 0
 86.9833984375 182 71.2197265625 203.25 74.7333984375 228.25 c 0xd0
EndSplineSet
EndChar

StartChar: less
Encoding: 60 60 29
Width: 381
GlyphClass: 2
Flags: MW
VStem: 43.6367 293.976
LayerCount: 2
Back
Fore
SplineSet
43.63671875 343 m 0
 46.57421875 363.900390625 62.5166015625 384.833984375 78.2919921875 390.354492188 c 0
 78.4873046875 390.62109375 312.430664062 533.6484375 312.430664062 533.6484375 c 1
 327.797851562 537.732421875 339.815429688 529.265625 337.612304688 513.58984375 c 0
 335.409179688 497.915039062 320.202148438 482.21484375 304.620117188 478.07421875 c 1
 110.303710938 343 l 1
 266.653320312 207.92578125 l 1
 281.071289062 203.78515625 291.865234375 188.084960938 289.662109375 172.41015625 c 0
 287.458984375 156.734375 273.0625 148.267578125 258.842773438 152.3515625 c 1
 258.842773438 152.3515625 65.1015625 295.37890625 64.9814453125 295.645507812 c 0
 50.7578125 301.166015625 40.7001953125 322.099609375 43.63671875 343 c 0
EndSplineSet
EndChar

StartChar: equal
Encoding: 61 61 30
Width: 518
GlyphClass: 2
Flags: MW
HStem: 134 72<68.3848 416.013 86.0127 405.894> 278 72<88.623 436.251 106.251 426.132>
LayerCount: 2
Back
Fore
SplineSet
405.893554688 134 m 2
 79.8935546875 134 l 2
 56.8759765625 134 48.048828125 149.333007812 50.6728515625 168 c 0
 53.2021484375 186 64.982421875 198.666992188 86.0126953125 206 c 1
 416.012695312 206 l 1
 439.930664062 200.666992188 449.81640625 188 445.672851562 168 c 0
 442.194335938 148 428.935546875 136.666992188 405.893554688 134 c 2
426.131835938 278 m 2
 100.131835938 278 l 2
 77.1142578125 278 68.287109375 293.333007812 70.91015625 312 c 0
 73.4404296875 330 85.220703125 342.666992188 106.250976562 350 c 1
 216.250976562 350 326.971679688 353.259765625 436.250976562 350 c 0
 461.076171875 349.259765625 470.622070312 333.666992188 467.05078125 313 c 0
 463.573242188 293 449.93359375 281.333007812 426.131835938 278 c 2
EndSplineSet
EndChar

StartChar: greater
Encoding: 62 62 31
Width: 377
GlyphClass: 2
Flags: MW
VStem: 41.3877 293.975
LayerCount: 2
Back
Fore
SplineSet
335.362304688 343 m 0
 332.42578125 322.099609375 316.483398438 301.166015625 300.70703125 295.645507812 c 0
 300.512695312 295.37890625 66.568359375 152.3515625 66.568359375 152.3515625 c 1
 51.2021484375 148.267578125 39.1845703125 156.734375 41.3876953125 172.41015625 c 0
 43.5908203125 188.084960938 58.796875 203.78515625 74.37890625 207.92578125 c 1
 268.6953125 343 l 1
 112.345703125 478.07421875 l 1
 97.927734375 482.21484375 87.134765625 497.915039062 89.337890625 513.58984375 c 0
 91.541015625 529.265625 105.9375 537.732421875 120.15625 533.6484375 c 1
 120.15625 533.6484375 313.8984375 390.62109375 314.017578125 390.354492188 c 0
 328.2421875 384.833984375 338.299804688 363.900390625 335.362304688 343 c 0
EndSplineSet
EndChar

StartChar: question
Encoding: 63 63 32
Width: 564
GlyphClass: 2
Flags: MW
HStem: 0 79.5498<174.068 184.389> 298.849 63.7998<246.942 246.942> 516.267 64.3242<246.144 336.872>
LayerCount: 2
Back
Fore
SplineSet
246.942382812 298.848632812 m 1
 223.631835938 132.985351562 l 2
 221.819335938 120.0859375 206.358398438 108.905273438 188.384765625 108.905273438 c 0
 170.411132812 108.905273438 158.118164062 120.263671875 159.90625 132.985351562 c 2
 159.90625 132.985351562 187.5078125 330.650390625 187.706054688 330.78515625 c 0
 190.231445312 348.758789062 203.311523438 362.282226562 216.263671875 362.6484375 c 2
 445.126953125 362.6484375 l 1
 430.725585938 448.434570312 379.645507812 516.266601562 294.09765625 516.266601562 c 0
 198.189453125 516.266601562 61.89453125 516.245117188 61.89453125 516.245117188 c 2
 48.994140625 516.245117188 39.7666015625 530.133789062 42.2919921875 548.107421875 c 0
 44.818359375 566.081054688 57.9501953125 579.970703125 70.8505859375 579.970703125 c 2
 70.8505859375 579.970703125 164.248046875 580.590820312 303.137695312 580.590820312 c 0
 442.02734375 580.590820312 539.01953125 468.499023438 519.666015625 330.78515625 c 0
 517.139648438 312.811523438 503.829101562 298.921875 491.107421875 298.922851562 c 2
 491.107421875 298.922851562 324.997070312 298.817382812 246.942382812 298.848632812 c 1
141.603515625 39.7744140625 m 0
 144.625 61.2744140625 163.318359375 79.5498046875 184.818359375 79.5498046875 c 0
 206.318359375 79.5498046875 220.950195312 61.2744140625 217.928710938 39.7744140625 c 0
 214.907226562 18.2744140625 195.138671875 0 173.638671875 0 c 0
 152.138671875 0 138.58203125 18.2744140625 141.603515625 39.7744140625 c 0
EndSplineSet
EndChar

StartChar: at
Encoding: 64 64 33
Width: 712
GlyphClass: 2
Flags: MW
HStem: 4.83691 74.7959 112.771 49.4824<321.033 396.125 321.033 402.192> 414.408 49.4824<356.47 428.635 350.403 431.563> 510.98 0.886719 510.984 74.7959<311.28 367.04 367.04 375.28>
LayerCount: 2
Back
Fore
SplineSet
598.924804688 130.504882812 m 0xe8
 616.1328125 150.815429688 512.86328125 3.5771484375 295.905273438 4.8369140625 c 0
 134.540039062 5.7744140625 21.6240234375 135.176757812 44.12890625 295.30859375 c 0
 66.6337890625 455.440429688 216.051757812 585.780273438 377.551757812 585.780273438 c 0xe8
 539.051757812 585.780273438 647.450195312 585.05859375 647.450195312 585.05859375 c 2
 662.450195312 585.05859375 673.180664062 568.908203125 670.243164062 548.008789062 c 0
 667.305664062 527.108398438 652.036132812 510.958984375 637.036132812 510.958984375 c 1
 559.75390625 288.331054688 l 2
 526.896484375 193.680664062 452.759765625 112.771484375 351.624023438 112.771484375 c 0
 250.48828125 112.771484375 179.223632812 191.430664062 192.841796875 288.331054688 c 0
 206.459960938 385.231445312 299.834960938 463.890625 400.970703125 463.890625 c 0
 456.298828125 463.890625 502.6875 440.348632812 531.129882812 403.158203125 c 1
 561.594726562 441.4453125 517.405273438 491.641601562 459.018554688 510.98046875 c 1
 445.624023438 510.98046875 432.158203125 510.982421875 418.892578125 510.982421875 c 1
 430.268554688 511.23828125 442.928710938 511.545898438 456.260742188 511.8671875 c 1xf0
 427.327148438 520.899414062 395.1875 522.301757812 367.040039062 510.984375 c 1
 383.520507812 510.984375 401.024414062 510.982421875 418.892578125 510.982421875 c 1
 386.481445312 510.256835938 364.489257812 509.958984375 367.040039062 510.984375 c 1
 255.520507812 510.984375 143.309570312 414.206054688 126.599609375 295.30859375 c 0
 109.889648438 176.411132812 195.508789062 83.5029296875 306.416992188 79.6328125 c 0
 450.411132812 74.6083984375 547.919921875 176.868164062 552.44921875 181.608398438 c 0
 563.55859375 193.235351562 582.73828125 188.702148438 597.846679688 176.33203125 c 0
 621.935546875 156.608398438 588.546875 118.254882812 598.924804688 130.504882812 c 0xe8
240.081054688 288.331054688 m 0
 230.676757812 221.418945312 283.486328125 162.25390625 358.579101562 162.25390625 c 0
 433.671875 162.25390625 503.110351562 221.418945312 512.514648438 288.331054688 c 0
 521.91796875 355.243164062 469.109375 414.408203125 394.016601562 414.408203125 c 0
 318.923828125 414.408203125 249.484375 355.243164062 240.081054688 288.331054688 c 0
EndSplineSet
EndChar

StartChar: A
Encoding: 65 65 34
Width: 710
GlyphClass: 2
Flags: MW
HStem: 0 82.4707<262.891 359.985> 502.729 82.4707<321.955 447.11>
LayerCount: 2
Back
Fore
SplineSet
620.599609375 10.470703125 m 2
 618.491210938 -4.529296875 544.250976562 -5.529296875 546.359375 9.470703125 c 0
 550.657226562 40.0546875 554.962890625 70.638671875 559.260742188 101.221679688 c 1
 494.435546875 39.236328125 406.091796875 0 313.877929688 0 c 0
 145.318359375 0 26.54296875 131.099609375 49.240234375 292.599609375 c 0
 71.9375 454.099609375 227.5625 585.19921875 396.122070312 585.19921875 c 0
 564.681640625 585.19921875 683.45703125 454.099609375 660.759765625 292.599609375 c 2
 620.599609375 10.470703125 l 2
127.97265625 292.599609375 m 0
 112.299804688 181.079101562 200.313476562 82.470703125 325.46875 82.470703125 c 0
 450.624023438 82.470703125 566.354492188 181.079101562 582.02734375 292.599609375 c 0
 597.700195312 404.119140625 509.6875 502.728515625 384.532226562 502.728515625 c 0
 259.376953125 502.728515625 143.645507812 404.119140625 127.97265625 292.599609375 c 0
EndSplineSet
EndChar

StartChar: B
Encoding: 66 66 35
Width: 710
GlyphClass: 2
Flags: MW
HStem: 0 82.4707<262.891 388.046 262.891 398.158> 502.729 82.4707<350.015 447.11>
LayerCount: 2
Back
Fore
SplineSet
109.638671875 718.728515625 m 2
 111.747070312 733.728515625 185.987304688 734.728515625 183.87890625 719.728515625 c 0
 179.580078125 689.14453125 155.037109375 514.560546875 150.739257812 483.977539062 c 1
 215.565429688 545.962890625 303.908203125 585.19921875 396.122070312 585.19921875 c 0
 564.681640625 585.19921875 683.45703125 454.099609375 660.759765625 292.599609375 c 0
 638.0625 131.099609375 482.4375 0 313.877929688 0 c 0
 145.318359375 0 26.54296875 131.099609375 49.240234375 292.599609375 c 2
 109.638671875 718.728515625 l 2
582.02734375 292.599609375 m 0
 597.700195312 404.120117188 509.6875 502.728515625 384.532226562 502.728515625 c 0
 259.376953125 502.728515625 143.645507812 404.120117188 127.97265625 292.599609375 c 0
 112.299804688 181.080078125 200.313476562 82.470703125 325.46875 82.470703125 c 0
 450.624023438 82.470703125 566.354492188 181.080078125 582.02734375 292.599609375 c 0
EndSplineSet
EndChar

StartChar: C
Encoding: 67 67 36
Width: 706
GlyphClass: 2
Flags: MW
HStem: -0.171875 74.7959<247.658 359.178 247.658 373.656> 505.976 74.7959<308.281 419.801>
LayerCount: 2
Back
Fore
SplineSet
644.451171875 580.049804688 m 2
 659.451171875 580.049804688 670.181640625 563.899414062 667.244140625 543 c 0
 664.306640625 522.099609375 649.037109375 505.950195312 634.037109375 505.950195312 c 2
 634.037109375 505.950195312 475.561523438 505.975585938 364.041015625 505.975585938 c 0
 252.521484375 505.975585938 140.310546875 409.197265625 123.600585938 290.299804688 c 0
 106.890625 171.40234375 191.8984375 74.6240234375 303.41796875 74.6240234375 c 0
 414.938476562 74.6240234375 573.421875 74.6494140625 573.421875 74.6494140625 c 2
 588.421875 74.6494140625 599.15234375 58.5 596.21484375 37.599609375 c 0
 593.27734375 16.7001953125 578.0078125 0.5498046875 563.0078125 0.5498046875 c 2
 563.0078125 0.5498046875 454.40625 -0.171875 292.90625 -0.171875 c 0
 131.40625 -0.171875 18.625 130.16796875 41.1298828125 290.299804688 c 0
 63.634765625 450.431640625 213.052734375 580.771484375 374.552734375 580.771484375 c 0
 536.052734375 580.771484375 644.451171875 580.049804688 644.451171875 580.049804688 c 2
EndSplineSet
EndChar

StartChar: D
Encoding: 68 68 37
Width: 750
GlyphClass: 2
Flags: MW
HStem: 0 82.4707<254.57 379.725 254.57 389.836> 502.729 82.4707<313.633 433.908 303.521 438.789>
LayerCount: 2
Back
Fore
SplineSet
711.817382812 718.728515625 m 2
 652.438476562 292.599609375 l 2
 629.741210938 131.099609375 474.116210938 0 305.556640625 0 c 0
 136.997070312 0 18.2216796875 131.099609375 40.9189453125 292.599609375 c 0
 63.6162109375 454.099609375 219.241210938 585.19921875 387.80078125 585.19921875 c 0
 480.014648438 585.19921875 557.330078125 545.962890625 604.732421875 483.977539062 c 1
 609.030273438 514.560546875 633.559570312 689.14453125 637.858398438 719.728515625 c 0
 639.966796875 734.728515625 713.92578125 733.728515625 711.817382812 718.728515625 c 2
119.651367188 292.599609375 m 0
 103.978515625 181.080078125 191.9921875 82.470703125 317.147460938 82.470703125 c 0
 442.302734375 82.470703125 558.033203125 181.080078125 573.706054688 292.599609375 c 0
 589.37890625 404.120117188 501.366210938 502.728515625 376.2109375 502.728515625 c 0
 251.055664062 502.728515625 135.32421875 404.120117188 119.651367188 292.599609375 c 0
EndSplineSet
EndChar

StartChar: E
Encoding: 69 69 38
Width: 672
GlyphClass: 2
Flags: W
LayerCount: 2
Back
Fore
SplineSet
608.026367188 156.776367188 m 0
 536.565429688 95 552.712890625 95.638671875 456.44140625 40.6015625 c 0
 314.8203125 -40.361328125 119.86328125 -3.7431640625 58.7705078125 136.120117188 c 0
 -2.3232421875 275.983398438 76.5439453125 458.119140625 234.365234375 542.3984375 c 0
 363.33984375 611.274414062 505.827148438 593.852539062 586.94921875 508.848632812 c 0
 605.092773438 489.836914062 652.241210938 454 626.290039062 433 c 0
 555.3359375 372.814453125 481.697265625 316.206054688 406.256835938 262 c 0
 393.138671875 252.764648438 370.056640625 249.096679688 359.504882812 265.56640625 c 0
 348.952148438 282.036132812 352.672851562 302.03515625 365.284179688 312 c 0
 395.657226562 336 546.814453125 439.174804688 524.73046875 450.366210938 c 0
 449.744140625 488.362304688 360.606445312 521.732421875 265.5625 470.9765625 c 0
 148.379882812 408.399414062 90.30078125 272.065429688 132.487304688 175.486328125 c 0
 174.673828125 78.90625 316.184570312 28.294921875 424.541015625 107.0234375 c 2
 561.024414062 206.1875 l 2
 574.01171875 215.624023438 592.064453125 218.373046875 606.24609375 205 c 0
 620.4296875 191.626953125 620.1953125 167.295898438 608.026367188 156.776367188 c 0
EndSplineSet
AlternateSubs2: "'salt' Stylistic Alternatives in Latin lookup 0 subtable" uniE00A
EndChar

StartChar: F
Encoding: 70 70 39
Width: 726
GlyphClass: 2
Flags: MW
HStem: 279 74.0996<193.567 586.481 211.481 576.067> 505.976 74.7959<331.007 442.527>
LayerCount: 2
Back
Fore
SplineSet
576.067382812 279 m 2
 201.067382812 279 l 2
 186.067382812 279 175.336914062 295.150390625 178.274414062 316.049804688 c 0
 181.211914062 336.950195312 196.688476562 353.100585938 211.481445312 353.099609375 c 2
 211.481445312 353.099609375 586.353515625 353.307617188 586.481445312 353.099609375 c 0
 601.481445312 353.099609375 612.211914062 336.950195312 609.274414062 316.049804688 c 0
 606.336914062 295.150390625 591.126953125 279.42578125 576.067382812 279 c 2
109.841796875 28 m 1
 107.68359375 13 89.7568359375 0 68.8564453125 0 c 0
 47.95703125 0 33.68359375 13 35.7421875 28 c 0
 35.7919921875 28 63.85546875 290.299804688 63.85546875 290.299804688 c 1
 96.7919921875 450.087890625 235.778320312 580.771484375 397.278320312 580.771484375 c 0
 558.778320312 580.771484375 667.176757812 580.049804688 667.176757812 580.049804688 c 2
 682.176757812 580.049804688 692.907226562 563.899414062 689.969726562 543 c 0
 687.032226562 522.099609375 671.762695312 505.950195312 656.762695312 505.950195312 c 2
 656.762695312 505.950195312 498.287109375 505.975585938 386.766601562 505.975585938 c 0
 275.247070312 505.975585938 163.036132812 409.197265625 146.326171875 290.299804688 c 0
 129.616210938 171.40234375 109.791992188 28 109.841796875 28 c 1
EndSplineSet
EndChar

StartChar: G
Encoding: 71 71 40
Width: 706
GlyphClass: 2
Flags: MW
HStem: -0.171875 74.7959<247.658 340.394 247.658 373.656> 505.976 74.7959<308.281 419.801>
LayerCount: 2
Back
Fore
SplineSet
644.451171875 580.049804688 m 2
 659.451171875 580.049804688 670.181640625 563.899414062 667.244140625 543 c 0
 664.306640625 522.099609375 649.037109375 505.950195312 634.037109375 505.950195312 c 2
 634.037109375 505.950195312 475.561523438 505.975585938 364.041015625 505.975585938 c 0
 252.521484375 505.975585938 140.310546875 409.197265625 123.600585938 290.299804688 c 0
 106.890625 171.40234375 191.8984375 74.6240234375 303.41796875 74.6240234375 c 0
 377.369140625 74.6240234375 471.971679688 74.634765625 527.317382812 74.642578125 c 1
 560.176757812 308.599609375 l 2
 562.283203125 323.599609375 580.260742188 336.599609375 601.161132812 336.599609375 c 0
 622.060546875 336.599609375 636.383789062 323.599609375 634.276367188 308.599609375 c 2
 596.21484375 37.599609375 l 2
 593.263671875 16.685546875 578.000976562 0.5498046875 563.0078125 0.5498046875 c 2
 563.0078125 0.5498046875 454.40625 -0.171875 292.90625 -0.171875 c 0
 131.40625 -0.171875 18.625 130.16796875 41.1298828125 290.299804688 c 0
 63.634765625 450.431640625 213.052734375 580.771484375 374.552734375 580.771484375 c 0
 536.052734375 580.771484375 644.451171875 580.049804688 644.451171875 580.049804688 c 2
EndSplineSet
AlternateSubs2: "'salt' Stylistic Alternatives in Latin lookup 0 subtable" uniE003
EndChar

StartChar: H
Encoding: 72 72 41
Width: 666
GlyphClass: 2
Flags: MW
HStem: 400.129 82.4707<338.954 429.479>
LayerCount: 2
Back
Fore
SplineSet
79.095703125 0 m 2
 58.1962890625 0 43.873046875 13 45.9814453125 28 c 2
 45.9814453125 28 45.330078125 28.5 68.02734375 190 c 0
 69.1298828125 197.844726562 70.529296875 205.6171875 72.2138671875 213.306640625 c 0
 95.177734375 377.00390625 125.069335938 589.903320312 125.2109375 590 c 0
 127.319335938 605 145.295898438 618 166.196289062 618 c 0
 187.095703125 618 200.993164062 605 199.310546875 590 c 2
 170.661132812 386.150390625 l 1
 232.181640625 445.370117188 296.287109375 482.599609375 381.62109375 482.599609375 c 0
 541.752929688 482.599609375 639.66796875 351.5 616.970703125 190 c 0
 594.2734375 28.5 593.481445312 28 593.481445312 28 c 2
 591.373046875 13 573.395507812 0 552.49609375 0 c 0
 531.595703125 0 517.2734375 13 519.381835938 28 c 2
 519.381835938 28 526.500976562 78.4794921875 542.174804688 190 c 0
 557.84765625 301.51953125 488.927734375 400.12890625 370.030273438 400.12890625 c 0
 254.783203125 400.12890625 165.296875 307.481445312 144.532226562 200.232421875 c 1
 120.327148438 28 l 2
 118.21875 13 100.241210938 0 79.341796875 0 c 2
 79.095703125 0 l 2
EndSplineSet
AlternateSubs2: "'salt' Stylistic Alternatives in Latin lookup 0 subtable" uniE004
EndChar

StartChar: I
Encoding: 73 73 42
Width: 220
GlyphClass: 2
Flags: MW
HStem: 0 28<35.457 79.021>
VStem: 35.457 149.148
LayerCount: 2
Back
Fore
SplineSet
184.60546875 562 m 2
 109.556640625 28 l 2
 107.448242188 13 89.470703125 0 68.5712890625 0 c 0
 47.6708984375 0 33.376953125 13.20703125 35.45703125 28 c 2
 35.45703125 28 110.275390625 561.842773438 110.505859375 562 c 0
 112.61328125 577 130.58984375 590 151.490234375 590 c 0
 172.389648438 590 186.287109375 577 184.60546875 562 c 2
EndSplineSet
EndChar

StartChar: J
Encoding: 74 74 43
Width: 726
GlyphClass: 2
Flags: MW
HStem: 0 74.7959<283.473 394.993 283.473 409.472>
LayerCount: 2
Back
Fore
SplineSet
616.158203125 552.771484375 m 1
 618.31640625 567.771484375 636.243164062 580.771484375 657.143554688 580.771484375 c 0
 678.04296875 580.771484375 692.31640625 567.771484375 690.2578125 552.771484375 c 0
 690.208007812 552.771484375 662.14453125 290.471679688 662.14453125 290.471679688 c 1
 629.208007812 130.68359375 490.221679688 0 328.721679688 0 c 0
 167.221679688 0 58.8232421875 0.7216796875 58.8232421875 0.7216796875 c 2
 43.8232421875 0.7216796875 33.0927734375 16.8720703125 36.0302734375 37.771484375 c 0
 38.9677734375 58.671875 54.2373046875 74.8212890625 69.2373046875 74.8212890625 c 2
 69.2373046875 74.8212890625 227.712890625 74.7958984375 339.233398438 74.7958984375 c 0
 450.752929688 74.7958984375 562.963867188 171.57421875 579.673828125 290.471679688 c 0
 596.383789062 409.369140625 616.208007812 552.771484375 616.158203125 552.771484375 c 1
EndSplineSet
EndChar

StartChar: K
Encoding: 75 75 44
Width: 591
GlyphClass: 2
Flags: MW
VStem: 113.456 74.0996<590 590>
LayerCount: 2
Back
Fore
SplineSet
507.407226562 28 m 0
 514.248046875 13.20703125 500.166992188 0 474.041015625 0 c 0
 447.916992188 0 421.717773438 13 414.782226562 28 c 2
 310.528320312 264.474609375 l 1
 134.716796875 28 l 2
 123.564453125 13 93.7109375 0 67.5869140625 0 c 0
 51.0908203125 0 40.876953125 5.265625 38.3564453125 12.8701171875 c 0
 35.1630859375 17.310546875 33.7060546875 22.546875 34.47265625 28 c 2
 34.47265625 28 113.2265625 589.842773438 113.456054688 590 c 0
 115.564453125 605 133.541015625 618 154.44140625 618 c 0
 175.340820312 618 189.23828125 605 187.555664062 590 c 2
 124.079101562 138.337890625 l 1
 167.728515625 197.079101562 223.284179688 271.8359375 276.583984375 343.544921875 c 1
 275.733398438 351.471679688 280.866210938 358.41015625 290.6015625 362.403320312 c 1
 380.224609375 482.977539062 459.754882812 589.931640625 459.919921875 590 c 0
 471.072265625 605 500.923828125 618 527.049804688 618 c 0
 553.173828125 618 563.165039062 605 552.544921875 590 c 2
 368.288085938 342.166015625 l 2
 369.559570312 340.388671875 505.973632812 31.25 507.407226562 28 c 0
EndSplineSet
EndChar

StartChar: L
Encoding: 76 76 45
Width: 643
GlyphClass: 2
Flags: MW
HStem: 0 74.7959<250.718 362.238 250.718 376.716>
LayerCount: 2
Back
Fore
SplineSet
163.90234375 552.771484375 m 0
 163.852539062 552.771484375 143.370117188 409.369140625 126.66015625 290.471679688 c 0
 109.950195312 171.57421875 194.958007812 74.7958984375 306.477539062 74.7958984375 c 0
 417.998046875 74.7958984375 576.481445312 74.8212890625 576.481445312 74.8212890625 c 2
 591.481445312 74.8212890625 602.211914062 58.671875 599.274414062 37.771484375 c 0
 596.336914062 16.8720703125 581.067382812 0.7216796875 566.067382812 0.7216796875 c 2
 566.067382812 0.7216796875 457.465820312 0 295.965820312 0 c 0
 134.465820312 0 32.2119140625 130.68359375 44.189453125 290.471679688 c 1
 89.802734375 552.771484375 l 2
 91.9609375 567.771484375 109.888671875 580.771484375 130.788085938 580.771484375 c 0
 151.688476562 580.771484375 165.9609375 567.771484375 163.90234375 552.771484375 c 0
EndSplineSet
EndChar

StartChar: M
Encoding: 77 77 46
Width: 1075
GlyphClass: 2
Flags: MW
HStem: 508.129 82.4707<306.773 425.671 759.752 861.818>
LayerCount: 2
Back
Fore
SplineSet
989.642578125 28 m 2
 987.534179688 13 969.556640625 0 948.65625 0 c 0
 927.755859375 0 913.434570312 13 915.54296875 28 c 2
 915.54296875 28 937.840820312 186.479492188 953.513671875 298 c 0
 969.1875 409.51953125 921.266601562 508.12890625 802.370117188 508.12890625 c 0
 683.471679688 508.12890625 607.8359375 409.51953125 592.162109375 298 c 0
 576.489257812 186.479492188 554.2421875 28 554.2421875 28 c 2
 552.133789062 13 534.15625 0 513.255859375 0 c 0
 513.131835938 0 513.006835938 0.0009765625 512.8828125 0.0009765625 c 0
 512.7578125 0.0009765625 512.633789062 0 512.509765625 0 c 0
 491.609375 0 477.286132812 13 479.39453125 28 c 2
 479.39453125 28 501.692382812 186.479492188 517.365234375 298 c 0
 533.0390625 409.51953125 485.120117188 508.12890625 366.221679688 508.12890625 c 0
 247.325195312 508.12890625 170.6875 409.51953125 155.013671875 298 c 0
 139.340820312 186.479492188 117.09375 28 117.09375 28 c 2
 114.985351562 13 97.009765625 0 76.109375 0 c 0
 55.208984375 0 40.8857421875 13 42.994140625 28 c 2
 42.994140625 28 57.521484375 136.5 80.21875 298 c 0
 102.916015625 459.5 217.680664062 590.599609375 377.811523438 590.599609375 c 0
 486.227539062 590.599609375 537.541015625 530.505859375 574.94140625 441.5703125 c 1
 637.33984375 530.505859375 705.543945312 590.599609375 813.959960938 590.599609375 c 0
 974.090820312 590.599609375 1051.00585938 459.5 1028.30859375 298 c 0
 1005.61132812 136.5 989.642578125 28 989.642578125 28 c 2
EndSplineSet
EndChar

StartChar: N
Encoding: 78 78 47
Width: 707
GlyphClass: 2
Flags: MW
HStem: 0 28<43.0576 86.6221> 508.129 82.4707<340.836 459.734>
LayerCount: 2
Back
Fore
SplineSet
622.557617188 28 m 2
 620.44921875 13 602.471679688 0 581.572265625 0 c 0
 560.671875 0 546.349609375 13 548.458007812 28 c 2
 548.458007812 28 570.755859375 186.479492188 586.428710938 298 c 0
 602.102539062 409.51953125 519.182617188 508.12890625 400.28515625 508.12890625 c 0
 281.387695312 508.12890625 170.750976562 409.51953125 155.077148438 298 c 0
 139.404296875 186.479492188 117.157226562 28 117.157226562 28 c 2
 115.048828125 13 97.072265625 0 76.171875 0 c 0
 55.2724609375 0 40.94921875 13 43.0576171875 28 c 2
 43.0576171875 28 57.583984375 136.5 80.28125 298 c 0
 102.978515625 459.5 251.743164062 590.599609375 411.875 590.599609375 c 0
 572.006835938 590.599609375 683.921875 459.5 661.224609375 298 c 0
 638.52734375 136.5 622.557617188 28 622.557617188 28 c 2
EndSplineSet
EndChar

StartChar: O
Encoding: 79 79 48
Width: 708
GlyphClass: 2
Flags: MW
HStem: 0 82.4707<261.891 387.046 261.891 397.158> 502.729 82.4707<320.955 446.11>
LayerCount: 2
Back
Fore
SplineSet
126.97265625 292.599609375 m 0
 111.299804688 181.079101562 199.313476562 82.470703125 324.46875 82.470703125 c 0
 449.624023438 82.470703125 565.354492188 181.079101562 581.02734375 292.599609375 c 0
 596.700195312 404.119140625 508.6875 502.728515625 383.532226562 502.728515625 c 0
 258.376953125 502.728515625 142.645507812 404.119140625 126.97265625 292.599609375 c 0
48.240234375 292.599609375 m 0
 70.9375 454.099609375 226.5625 585.19921875 395.122070312 585.19921875 c 0
 563.681640625 585.19921875 682.45703125 454.099609375 659.759765625 292.599609375 c 0
 637.0625 131.099609375 481.4375 0 312.877929688 0 c 0
 144.318359375 0 25.54296875 131.099609375 48.240234375 292.599609375 c 0
EndSplineSet
EndChar

StartChar: P
Encoding: 80 80 49
Width: 751
GlyphClass: 2
Flags: MW
HStem: 0 82.4707<313.922 434.198 309.042 444.309> 502.729 82.4707<368.106 493.261>
LayerCount: 2
Back
Fore
SplineSet
41.353515625 -95.529296875 m 2
 95.3916015625 292.599609375 l 2
 118.088867188 454.099609375 273.713867188 585.19921875 442.2734375 585.19921875 c 0
 610.833007812 585.19921875 729.608398438 454.099609375 706.911132812 292.599609375 c 0
 684.213867188 131.099609375 528.588867188 0 360.029296875 0 c 0
 267.815429688 0 190.500976562 39.236328125 143.09765625 101.221679688 c 1
 138.799804688 70.638671875 119.611328125 -65.9453125 115.3125 -96.529296875 c 0
 113.204101562 -111.529296875 39.2451171875 -110.529296875 41.353515625 -95.529296875 c 2
628.178710938 292.599609375 m 0
 643.8515625 404.119140625 555.838867188 502.728515625 430.68359375 502.728515625 c 0
 305.528320312 502.728515625 189.796875 404.119140625 174.124023438 292.599609375 c 0
 158.451171875 181.079101562 246.46484375 82.470703125 371.620117188 82.470703125 c 0
 496.775390625 82.470703125 612.505859375 181.079101562 628.178710938 292.599609375 c 0
EndSplineSet
EndChar

StartChar: Q
Encoding: 81 81 50
Width: 710
GlyphClass: 2
Flags: MW
HStem: 0 82.4707<262.891 359.985> 502.729 82.4707<321.955 447.11>
LayerCount: 2
Back
Fore
SplineSet
605.702148438 -95.529296875 m 2
 603.59375 -110.529296875 529.353515625 -111.529296875 531.461914062 -96.529296875 c 0
 535.760742188 -65.9453125 554.962890625 70.638671875 559.260742188 101.221679688 c 1
 494.435546875 39.236328125 406.091796875 0 313.877929688 0 c 0
 145.318359375 0 26.54296875 131.099609375 49.240234375 292.599609375 c 0
 71.9375 454.099609375 227.5625 585.19921875 396.122070312 585.19921875 c 0
 564.681640625 585.19921875 683.45703125 454.099609375 660.759765625 292.599609375 c 2
 605.702148438 -95.529296875 l 2
127.97265625 292.599609375 m 0
 112.299804688 181.079101562 200.313476562 82.470703125 325.46875 82.470703125 c 0
 450.624023438 82.470703125 566.354492188 181.079101562 582.02734375 292.599609375 c 0
 597.700195312 404.119140625 509.6875 502.728515625 384.532226562 502.728515625 c 0
 259.376953125 502.728515625 143.645507812 404.119140625 127.97265625 292.599609375 c 0
EndSplineSet
EndChar

StartChar: R
Encoding: 82 82 51
Width: 726
GlyphClass: 2
Flags: MW
HStem: 505.976 74.7959<331.007 442.527>
LayerCount: 2
Back
Fore
SplineSet
109.841796875 28 m 1
 107.68359375 13 89.7568359375 0 68.8564453125 0 c 0
 47.95703125 0 33.68359375 13 35.7421875 28 c 0
 35.7919921875 28 63.85546875 290.299804688 63.85546875 290.299804688 c 1
 96.7919921875 450.087890625 235.778320312 580.771484375 397.278320312 580.771484375 c 0
 558.778320312 580.771484375 667.176757812 580.049804688 667.176757812 580.049804688 c 2
 682.176757812 580.049804688 692.907226562 563.899414062 689.969726562 543 c 0
 687.032226562 522.099609375 671.762695312 505.950195312 656.762695312 505.950195312 c 2
 656.762695312 505.950195312 498.287109375 505.975585938 386.766601562 505.975585938 c 0
 275.247070312 505.975585938 163.036132812 409.197265625 146.326171875 290.299804688 c 0
 129.616210938 171.40234375 109.791992188 28 109.841796875 28 c 1
EndSplineSet
EndChar

StartChar: S
Encoding: 83 83 52
Width: 729
GlyphClass: 2
Flags: MW
HStem: 0 74.7959<282.609 394.129 282.609 408.607> 251.426 74.7959<234.705 234.705 234.705 304.943> 503.573 74.7959<334.871 446.391>
LayerCount: 2
Back
Fore
SplineSet
504.806640625 326.943359375 m 0
 578.306640625 326.943359375 668.748046875 343.603515625 646.3828125 184.471679688 c 0
 624.439453125 28.33984375 489.357421875 0 327.857421875 0 c 0
 166.357421875 0 57.958984375 0.7216796875 57.958984375 0.7216796875 c 2
 42.958984375 0.7216796875 32.228515625 16.8720703125 35.166015625 37.771484375 c 0
 38.103515625 58.671875 53.373046875 74.8212890625 68.373046875 74.8212890625 c 2
 68.373046875 74.8212890625 226.849609375 74.7958984375 338.369140625 74.7958984375 c 0
 449.888671875 74.7958984375 551.83984375 98.57421875 563.912109375 184.471679688 c 0
 564.1796875 186.369140625 594.814453125 252.291992188 494.294921875 252.147460938 c 0
 493.814453125 252.291992188 385.693359375 251.42578125 224.193359375 251.42578125 c 0
 150.693359375 251.42578125 60.251953125 234.765625 82.6162109375 393.897460938 c 0
 104.559570312 550.029296875 239.642578125 578.369140625 401.142578125 578.369140625 c 0
 562.642578125 578.369140625 671.041015625 577.647460938 671.041015625 577.647460938 c 2
 686.041015625 577.647460938 696.771484375 561.497070312 693.833984375 540.59765625 c 0
 690.896484375 519.697265625 675.626953125 503.547851562 660.626953125 503.547851562 c 2
 660.626953125 503.547851562 502.150390625 503.573242188 390.630859375 503.573242188 c 0
 279.111328125 503.573242188 177.16015625 479.794921875 165.087890625 393.897460938 c 0
 164.8203125 392 134.16796875 325.953125 234.705078125 326.221679688 c 2
 234.705078125 326.221679688 343.306640625 326.943359375 504.806640625 326.943359375 c 0
EndSplineSet
AlternateSubs2: "'salt' Stylistic Alternatives in Latin lookup 0 subtable" uniE016
EndChar

StartChar: T
Encoding: 84 84 53
Width: 585
GlyphClass: 2
Flags: MW
HStem: 0 28<181.667 225.231> 515.882 74.168<324.334 324.334>
LayerCount: 2
Back
Fore
SplineSet
72.70703125 590.049804688 m 2
 284.108398438 590.049804688 l 2
 288.469726562 591.3046875 293.147460938 592 297.981445312 592 c 0
 302.815429688 592 307.274414062 591.3046875 311.252929688 590.049804688 c 2
 522.70703125 590.049804688 l 2
 537.70703125 590.049804688 548.4375 573.899414062 545.5 553 c 0
 542.5625 532.099609375 527.0859375 515.94921875 512.29296875 515.950195312 c 2
 512.29296875 515.950195312 423.220703125 515.909179688 324.333984375 515.881835938 c 1
 255.766601562 28 l 2
 253.658203125 13 235.680664062 0 214.78125 0 c 0
 193.880859375 0 179.586914062 13.20703125 181.666992188 28 c 2
 181.666992188 28 230.96484375 379.770507812 250.15625 515.864257812 c 1
 151.338867188 515.84765625 62.3505859375 515.857421875 62.29296875 515.950195312 c 0
 47.29296875 515.950195312 36.5625 532.099609375 39.5 553 c 0
 42.4375 573.899414062 57.6474609375 589.624023438 72.70703125 590.049804688 c 2
EndSplineSet
EndChar

StartChar: U
Encoding: 85 85 54
Width: 701
GlyphClass: 2
Flags: MW
HStem: 0 82.4707<244.267 363.165 244.267 372.191> 562.6 28<111.978 155.543>
LayerCount: 2
Back
Fore
SplineSet
660.943359375 562.599609375 m 2
 660.943359375 562.599609375 646.416015625 454.099609375 623.71875 292.599609375 c 0
 601.021484375 131.099609375 452.256835938 0 292.125 0 c 0
 131.993164062 0 20.078125 131.099609375 42.775390625 292.599609375 c 0
 65.47265625 454.099609375 81.443359375 562.599609375 81.443359375 562.599609375 c 2
 83.5517578125 577.599609375 101.528320312 590.599609375 122.427734375 590.599609375 c 0
 143.328125 590.599609375 157.651367188 577.599609375 155.54296875 562.599609375 c 2
 155.54296875 562.599609375 133.244140625 404.120117188 117.571289062 292.599609375 c 0
 101.8984375 181.080078125 184.818359375 82.470703125 303.715820312 82.470703125 c 0
 422.61328125 82.470703125 533.25 181.080078125 548.922851562 292.599609375 c 0
 564.595703125 404.120117188 586.84375 562.599609375 586.84375 562.599609375 c 2
 588.952148438 577.599609375 606.927734375 590.599609375 627.828125 590.599609375 c 0
 648.727539062 590.599609375 663.051757812 577.599609375 660.943359375 562.599609375 c 2
EndSplineSet
EndChar

StartChar: V
Encoding: 86 86 55
Width: 568
GlyphClass: 2
Flags: MW
HStem: -0.72168 0.72168<159.259 169.709 159.259 246.357>
LayerCount: 2
Back
Fore
SplineSet
178.5703125 74.08984375 m 2
 176.119140625 74.07421875 l 2
 176.935546875 74.07421875 177.754882812 74.08984375 178.5703125 74.08984375 c 2
41.0888671875 552 m 2
 38.1025390625 567 50.8701171875 580 71.76953125 580 c 0
 92.669921875 580 111.776367188 567 115.188476562 552 c 0
 115.388671875 551.872070312 171.962890625 203.23828125 192.80078125 74.787109375 c 1
 298.595703125 83.783203125 400.68359375 176.783203125 416.559570312 289.75 c 0
 433.26953125 408.647460938 453.094726562 552.049804688 453.044921875 552.049804688 c 1
 455.202148438 567.049804688 473.12890625 580.049804688 494.029296875 580.049804688 c 0
 514.928710938 580.049804688 529.202148438 567.049804688 527.14453125 552.049804688 c 0
 527.094726562 552.049804688 499.030273438 289.75 499.030273438 289.75 c 1
 466.09375 129.961914062 327.107421875 -0.7216796875 165.607421875 -0.7216796875 c 0
 4.107421875 -0.7216796875 169.708984375 0 169.708984375 0 c 2
 148.809570312 0 129.702148438 13 126.290039062 28 c 2
 41.0888671875 552 l 2
EndSplineSet
AlternateSubs2: "'salt' Stylistic Alternatives in Latin lookup 0 subtable" uniE015
EndChar

StartChar: W
Encoding: 87 87 56
Width: 1069
GlyphClass: 2
Flags: MW
HStem: 0 82.4707<210.183 312.248 646.33 765.228>
LayerCount: 2
Back
Fore
SplineSet
82.3583984375 562.599609375 m 2
 84.466796875 577.599609375 102.443359375 590.599609375 123.34375 590.599609375 c 0
 144.244140625 590.599609375 158.56640625 577.599609375 156.458007812 562.599609375 c 2
 156.458007812 562.599609375 134.159179688 404.120117188 118.486328125 292.599609375 c 0
 102.813476562 181.080078125 150.734375 82.470703125 269.630859375 82.470703125 c 0
 388.529296875 82.470703125 464.165039062 181.080078125 479.837890625 292.599609375 c 0
 495.510742188 404.120117188 517.758789062 562.599609375 517.758789062 562.599609375 c 2
 519.8671875 577.599609375 537.84375 590.599609375 558.744140625 590.599609375 c 0
 558.868164062 590.599609375 558.993164062 590.598632812 559.1171875 590.598632812 c 0
 559.2421875 590.598632812 559.366210938 590.599609375 559.490234375 590.599609375 c 0
 580.390625 590.599609375 594.71484375 577.599609375 592.606445312 562.599609375 c 2
 592.606445312 562.599609375 570.307617188 404.120117188 554.634765625 292.599609375 c 0
 538.961914062 181.080078125 586.880859375 82.470703125 705.779296875 82.470703125 c 0
 824.67578125 82.470703125 901.313476562 181.080078125 916.986328125 292.599609375 c 0
 932.659179688 404.120117188 954.907226562 562.599609375 954.907226562 562.599609375 c 2
 957.015625 577.599609375 974.990234375 590.599609375 995.890625 590.599609375 c 0
 1016.79101562 590.599609375 1031.11523438 577.599609375 1029.00683594 562.599609375 c 2
 1029.00683594 562.599609375 1014.47851562 454.099609375 991.78125 292.599609375 c 0
 969.083984375 131.099609375 854.319335938 0 694.188476562 0 c 0
 585.772460938 0 534.458984375 60.09375 497.05859375 149.029296875 c 1
 434.66015625 60.09375 366.456054688 0 258.040039062 0 c 0
 97.9091796875 0 20.994140625 131.099609375 43.69140625 292.599609375 c 0
 66.388671875 454.099609375 82.3583984375 562.599609375 82.3583984375 562.599609375 c 2
EndSplineSet
EndChar

StartChar: X
Encoding: 88 88 57
Width: 697
GlyphClass: 2
Flags: W
LayerCount: 2
Back
Fore
SplineSet
658.005859375 562 m 2
 394.942382812 295.049804688 l 1
 488.95703125 161.533203125 582.95703125 28 582.95703125 28 c 2
 590.122070312 13.20703125 576.33203125 0 550.205078125 0 c 0
 524.08203125 0 497.596679688 13 490.33203125 28 c 2
 340.876953125 240.185546875 l 1
 131.78125 28 l 2
 120.299804688 13 90.16015625 0 64.037109375 0 c 0
 37.91015625 0 27.8330078125 13.20703125 39.15625 28 c 2
 39.15625 28 170.688476562 161.533203125 302.233398438 295.049804688 c 1
 114.205078125 562 l 2
 107.470703125 577 120.831054688 590 146.956054688 590 c 0
 173.081054688 590 199.564453125 577 206.830078125 562 c 0
 206.973632812 561.932617188 276.833007812 462.76953125 356.299804688 349.92578125 c 1
 467.484375 462.76953125 565.216796875 561.932617188 565.380859375 562 c 0
 576.861328125 577 606.999023438 590 633.124023438 590 c 0
 659.249023438 590 668.955078125 577 658.005859375 562 c 2
EndSplineSet
EndChar

StartChar: Y
Encoding: 89 89 58
Width: 659
GlyphClass: 2
Flags: MW
HStem: -65.3223 74.7959<198.925 310.445 198.925 324.924> 108 82.4707<233.02 323.546>
LayerCount: 2
Back
Fore
SplineSet
583.403320312 590.599609375 m 2
 604.302734375 590.599609375 618.626953125 577.599609375 616.518554688 562.599609375 c 2
 616.518554688 562.599609375 617.169921875 562.099609375 594.47265625 400.599609375 c 0
 593.370117188 392.754882812 591.969726562 384.982421875 590.286132812 377.29296875 c 0
 567.321289062 213.595703125 563.4296875 185.696289062 563.288085938 185.599609375 c 0
 546.681640625 6.8115234375 405.673828125 -65.322265625 244.173828125 -65.322265625 c 0
 82.673828125 -65.322265625 121.275390625 -64.6005859375 121.275390625 -64.6005859375 c 2
 106.275390625 -64.6005859375 95.544921875 -48.4501953125 98.482421875 -27.55078125 c 0
 101.419921875 -6.650390625 116.689453125 9.4990234375 131.689453125 9.4990234375 c 2
 131.689453125 9.4990234375 143.165039062 9.4736328125 254.685546875 9.4736328125 c 0
 366.205078125 9.4736328125 470.264648438 48.251953125 486.974609375 167.149414062 c 0
 487.732421875 172.541992188 488.430664062 177.522460938 489.076171875 182.116210938 c 0
 489.020507812 183.26171875 489.056640625 184.424804688 489.188476562 185.599609375 c 2
 491.837890625 204.44921875 l 1
 430.318359375 145.229492188 366.212890625 108 280.87890625 108 c 0
 120.747070312 108 22.83203125 239.099609375 45.529296875 400.599609375 c 0
 68.2265625 562.099609375 69.0185546875 562.599609375 69.0185546875 562.599609375 c 2
 71.126953125 577.599609375 89.103515625 590.599609375 110.002929688 590.599609375 c 0
 130.903320312 590.599609375 145.2265625 577.599609375 143.118164062 562.599609375 c 2
 143.118164062 562.599609375 135.998046875 512.120117188 120.325195312 400.599609375 c 0
 104.65234375 289.080078125 173.571289062 190.470703125 292.46875 190.470703125 c 0
 407.715820312 190.470703125 497.203125 283.118164062 517.966796875 390.3671875 c 1
 542.172851562 562.599609375 l 2
 544.28125 577.599609375 562.2578125 590.599609375 583.157226562 590.599609375 c 2
 583.403320312 590.599609375 l 2
492.73046875 208.25 m 0
 499.947265625 260.0859375 492.813476562 210.888671875 491.926757812 205.008789062 c 1
 492.112304688 206.102539062 492.3828125 207.18359375 492.73046875 208.25 c 0
EndSplineSet
AlternateSubs2: "'salt' Stylistic Alternatives in Latin lookup 0 subtable" uniE00D
EndChar

StartChar: Z
Encoding: 90 90 59
Width: 704
GlyphClass: 2
Flags: MW
HStem: 0 74.7959<262.11 373.63 262.11 388.107> 252.147 74.7959 503.573 74.7959<330.37 441.891>
LayerCount: 2
Back
Fore
SplineSet
222.307617188 326.943359375 m 0
 383.806640625 326.943359375 492.205078125 326.221679688 492.205078125 326.221679688 c 2
 592.666015625 325.953125 580.578125 392 580.845703125 393.897460938 c 0
 592.91796875 479.794921875 497.650390625 503.573242188 386.130859375 503.573242188 c 0
 274.609375 503.573242188 116.126953125 503.547851562 116.126953125 503.547851562 c 2
 101.126953125 503.547851562 90.3974609375 519.697265625 93.333984375 540.59765625 c 0
 96.271484375 561.497070312 111.541015625 577.647460938 126.541015625 577.647460938 c 2
 126.541015625 577.647460938 235.142578125 578.369140625 396.642578125 578.369140625 c 0
 558.142578125 578.369140625 685.259765625 550.029296875 663.31640625 393.897460938 c 0
 640.951171875 234.765625 555.193359375 251.42578125 481.693359375 251.42578125 c 0
 320.193359375 251.42578125 212.315429688 252.291992188 211.795898438 252.147460938 c 0
 111.315429688 252.291992188 123.421875 186.369140625 123.155273438 184.471679688 c 0
 111.083007812 98.57421875 206.350585938 74.7958984375 317.869140625 74.7958984375 c 0
 429.390625 74.7958984375 587.873046875 74.8212890625 587.873046875 74.8212890625 c 2
 602.873046875 74.8212890625 613.603515625 58.671875 610.666015625 37.771484375 c 0
 607.728515625 16.8720703125 592.458984375 0.7216796875 577.458984375 0.7216796875 c 2
 577.458984375 0.7216796875 468.857421875 0 307.357421875 0 c 0
 145.858398438 0 18.7412109375 28.33984375 40.6845703125 184.471679688 c 0
 63.048828125 343.603515625 148.807617188 326.943359375 222.307617188 326.943359375 c 0
EndSplineSet
AlternateSubs2: "'salt' Stylistic Alternatives in Latin lookup 0 subtable" uniE017
EndChar

StartChar: bracketleft
Encoding: 91 91 60
Width: 396
GlyphClass: 2
Flags: MW
HStem: -0.171875 0.696289<203.3 210.8 203.3 283.952> 505.976 74.7959<218.577 281.837>
LayerCount: 2
Back
Fore
SplineSet
284.750976562 580.075195312 m 1
 299.750976562 580.075195312 310.481445312 563.924804688 307.543945312 543.025390625 c 0
 304.606445312 522.125 289.336914062 505.975585938 274.336914062 505.975585938 c 0
 162.817382812 505.975585938 146.606445312 409.197265625 129.896484375 290.299804688 c 0
 113.186523438 171.40234375 102.194335938 74.6240234375 213.713867188 74.6240234375 c 0
 228.713867188 74.6240234375 239.444335938 58.474609375 236.506835938 37.57421875 c 0
 233.5703125 16.6748046875 218.299804688 0.5244140625 203.299804688 0.5244140625 c 1
 203.299804688 0.5244140625 364.702148438 -0.171875 203.202148438 -0.171875 c 0
 41.7021484375 -0.171875 24.9208984375 130.16796875 47.42578125 290.299804688 c 0
 69.9306640625 450.431640625 123.348632812 580.771484375 284.848632812 580.771484375 c 0
 446.348632812 580.771484375 284.750976562 580.075195312 284.750976562 580.075195312 c 1
EndSplineSet
EndChar

StartChar: backslash
Encoding: 92 92 61
Width: 291
GlyphClass: 2
Flags: MW
VStem: 44.4736 201.96
LayerCount: 2
Back
Fore
SplineSet
44.4736328125 590 m 2
 41.4873046875 605 54.2548828125 618 75.154296875 618 c 0
 96.0546875 618 115.161132812 605 118.573242188 590 c 0
 118.818359375 589.842773438 246.43359375 28 246.43359375 28 c 2
 249.799804688 13.20703125 236.653320312 0 215.752929688 0 c 0
 194.853515625 0 175.74609375 13 172.333984375 28 c 2
 44.4736328125 590 l 2
EndSplineSet
EndChar

StartChar: bracketright
Encoding: 93 93 62
Width: 396
GlyphClass: 2
Flags: MW
HStem: -0.171875 0.696289<103.749 111.249 103.749 191.901> -0.171875 74.7959<114.163 177.423 114.163 191.901> 580.075 0.696289<185.2 192.7>
LayerCount: 2
Back
Fore
SplineSet
192.700195312 580.075195312 m 1x60
 192.700195312 580.075195312 31.2978515625 580.771484375 192.797851562 580.771484375 c 0
 354.297851562 580.771484375 371.079101562 450.431640625 348.57421875 290.299804688 c 0
 326.069335938 130.16796875 272.651367188 -0.171875 111.151367188 -0.171875 c 0x60
 -50.3486328125 -0.171875 111.249023438 0.5244140625 111.249023438 0.5244140625 c 1xa0
 96.2490234375 0.5244140625 85.51953125 16.6748046875 88.4560546875 37.57421875 c 0
 91.3935546875 58.474609375 106.663085938 74.6240234375 121.663085938 74.6240234375 c 0
 233.182617188 74.6240234375 249.393554688 171.40234375 266.103515625 290.299804688 c 0
 282.813476562 409.197265625 293.805664062 505.975585938 182.286132812 505.975585938 c 0
 167.286132812 505.975585938 156.555664062 522.125 159.493164062 543.025390625 c 0
 162.430664062 563.924804688 177.700195312 580.075195312 192.700195312 580.075195312 c 1x60
EndSplineSet
EndChar

StartChar: asciicircum
Encoding: 94 94 63
Width: 477
GlyphClass: 2
Flags: MW
HStem: 494 270<57.1553 283.979 263.079 414.011>
LayerCount: 2
Back
Fore
SplineSet
273.529296875 764 m 0
 294.4296875 764 313.536132812 751 316.94921875 736 c 0
 317.193359375 735.842773438 430.166992188 522 430.166992188 522 c 1
 432.171875 507.20703125 421.848632812 494 406.172851562 494 c 0
 390.498046875 494 376.625 507 374.592773438 522 c 1
 264.16015625 697.333007812 l 1
 104.444335938 522 l 1
 98.1953125 507 80.66796875 494 64.9931640625 494 c 0
 49.3173828125 494 42.70703125 507.20703125 48.8701171875 522 c 1
 48.8701171875 522 221.951171875 735.842773438 222.240234375 736 c 0
 229.868164062 751 252.62890625 764 273.529296875 764 c 0
EndSplineSet
EndChar

StartChar: underscore
Encoding: 95 95 64
Width: 872
GlyphClass: 2
Flags: MW
HStem: -133.004 74.0996<87.293 777.207 105.207 766.793>
LayerCount: 2
Back
Fore
SplineSet
105.20703125 -58.904296875 m 2
 777.20703125 -58.904296875 l 2
 792.20703125 -58.904296875 802.9375 -75.0546875 800 -95.9541015625 c 0
 797.0625 -116.854492188 781.5859375 -133.004882812 766.79296875 -133.00390625 c 2
 766.79296875 -133.00390625 94.9208984375 -133.211914062 94.79296875 -133.00390625 c 0
 79.79296875 -133.00390625 69.0625 -116.854492188 72 -95.9541015625 c 0
 74.9375 -75.0546875 90.1474609375 -59.330078125 105.20703125 -58.904296875 c 2
EndSplineSet
EndChar

StartChar: grave
Encoding: 96 96 65
Width: 218
GlyphClass: 2
Flags: MW
HStem: 557.5 21G 607.5 92.5<66.291 112.786>
VStem: 50.1084 120.303
LayerCount: 2
Back
Fore
SplineSet
50.1083984375 653.75 m 0
 41.9638671875 678.75 53.791015625 700 78.791015625 700 c 0
 103.791015625 700 130.713867188 678.75 138.858398438 653.75 c 1
 150.514648438 633.318359375 171.3671875 600 170.411132812 583.75 c 0
 170.326171875 572.5 127.46875 562.083984375 93.962890625 557.5 c 1
 117.734375 571.014648438 140.465820312 577.020507812 128.404296875 613.06640625 c 1
 123.23046875 609.52734375 116.646484375 607.5 108.924804688 607.5 c 0
 83.9248046875 607.5 58.251953125 628.75 50.1083984375 653.75 c 0
EndSplineSet
EndChar

StartChar: a
Encoding: 97 97 66
Width: 710
GlyphClass: 2
Flags: MW
HStem: 0 82.4707<262.891 359.985> 502.729 82.4707<321.955 447.11>
LayerCount: 2
Back
Fore
SplineSet
620.599609375 10.470703125 m 2
 618.491210938 -4.529296875 544.250976562 -5.529296875 546.359375 9.470703125 c 0
 550.657226562 40.0546875 554.962890625 70.638671875 559.260742188 101.221679688 c 1
 494.435546875 39.236328125 406.091796875 0 313.877929688 0 c 0
 145.318359375 0 26.54296875 131.099609375 49.240234375 292.599609375 c 0
 71.9375 454.099609375 227.5625 585.19921875 396.122070312 585.19921875 c 0
 564.681640625 585.19921875 683.45703125 454.099609375 660.759765625 292.599609375 c 2
 620.599609375 10.470703125 l 2
127.97265625 292.599609375 m 0
 112.299804688 181.079101562 200.313476562 82.470703125 325.46875 82.470703125 c 0
 450.624023438 82.470703125 566.354492188 181.079101562 582.02734375 292.599609375 c 0
 597.700195312 404.119140625 509.6875 502.728515625 384.532226562 502.728515625 c 0
 259.376953125 502.728515625 143.645507812 404.119140625 127.97265625 292.599609375 c 0
EndSplineSet
EndChar

StartChar: b
Encoding: 98 98 67
Width: 710
GlyphClass: 2
Flags: MW
HStem: 0 82.4707<262.891 388.046 262.891 398.158> 502.729 82.4707<350.015 447.11>
LayerCount: 2
Back
Fore
SplineSet
109.638671875 718.728515625 m 2
 111.747070312 733.728515625 185.987304688 734.728515625 183.87890625 719.728515625 c 0
 179.580078125 689.14453125 155.037109375 514.560546875 150.739257812 483.977539062 c 1
 215.565429688 545.962890625 303.908203125 585.19921875 396.122070312 585.19921875 c 0
 564.681640625 585.19921875 683.45703125 454.099609375 660.759765625 292.599609375 c 0
 638.0625 131.099609375 482.4375 0 313.877929688 0 c 0
 145.318359375 0 26.54296875 131.099609375 49.240234375 292.599609375 c 2
 109.638671875 718.728515625 l 2
582.02734375 292.599609375 m 0
 597.700195312 404.120117188 509.6875 502.728515625 384.532226562 502.728515625 c 0
 259.376953125 502.728515625 143.645507812 404.120117188 127.97265625 292.599609375 c 0
 112.299804688 181.080078125 200.313476562 82.470703125 325.46875 82.470703125 c 0
 450.624023438 82.470703125 566.354492188 181.080078125 582.02734375 292.599609375 c 0
EndSplineSet
EndChar

StartChar: c
Encoding: 99 99 68
Width: 706
GlyphClass: 2
Flags: MW
HStem: -0.171875 74.7959<247.658 359.178 247.658 373.656> 505.976 74.7959<308.281 419.801>
LayerCount: 2
Back
Fore
SplineSet
644.451171875 580.049804688 m 2
 659.451171875 580.049804688 670.181640625 563.899414062 667.244140625 543 c 0
 664.306640625 522.099609375 649.037109375 505.950195312 634.037109375 505.950195312 c 2
 634.037109375 505.950195312 475.561523438 505.975585938 364.041015625 505.975585938 c 0
 252.521484375 505.975585938 140.310546875 409.197265625 123.600585938 290.299804688 c 0
 106.890625 171.40234375 191.8984375 74.6240234375 303.41796875 74.6240234375 c 0
 414.938476562 74.6240234375 573.421875 74.6494140625 573.421875 74.6494140625 c 2
 588.421875 74.6494140625 599.15234375 58.5 596.21484375 37.599609375 c 0
 593.27734375 16.7001953125 578.0078125 0.5498046875 563.0078125 0.5498046875 c 2
 563.0078125 0.5498046875 454.40625 -0.171875 292.90625 -0.171875 c 0
 131.40625 -0.171875 18.625 130.16796875 41.1298828125 290.299804688 c 0
 63.634765625 450.431640625 213.052734375 580.771484375 374.552734375 580.771484375 c 0
 536.052734375 580.771484375 644.451171875 580.049804688 644.451171875 580.049804688 c 2
EndSplineSet
EndChar

StartChar: d
Encoding: 100 100 69
Width: 750
GlyphClass: 2
Flags: MW
HStem: 0 82.4707<254.57 379.725 254.57 389.836> 502.729 82.4707<313.633 433.908 303.521 438.789>
LayerCount: 2
Back
Fore
SplineSet
711.817382812 718.728515625 m 2
 652.438476562 292.599609375 l 2
 629.741210938 131.099609375 474.116210938 0 305.556640625 0 c 0
 136.997070312 0 18.2216796875 131.099609375 40.9189453125 292.599609375 c 0
 63.6162109375 454.099609375 219.241210938 585.19921875 387.80078125 585.19921875 c 0
 480.014648438 585.19921875 557.330078125 545.962890625 604.732421875 483.977539062 c 1
 609.030273438 514.560546875 633.559570312 689.14453125 637.858398438 719.728515625 c 0
 639.966796875 734.728515625 713.92578125 733.728515625 711.817382812 718.728515625 c 2
119.651367188 292.599609375 m 0
 103.978515625 181.080078125 191.9921875 82.470703125 317.147460938 82.470703125 c 0
 442.302734375 82.470703125 558.033203125 181.080078125 573.706054688 292.599609375 c 0
 589.37890625 404.120117188 501.366210938 502.728515625 376.2109375 502.728515625 c 0
 251.055664062 502.728515625 135.32421875 404.120117188 119.651367188 292.599609375 c 0
EndSplineSet
EndChar

StartChar: e
Encoding: 101 101 70
Width: 672
GlyphClass: 2
Flags: W
LayerCount: 2
Back
Fore
SplineSet
608.026367188 156.776367188 m 0
 536.565429688 95 552.712890625 95.638671875 456.44140625 40.6015625 c 0
 314.8203125 -40.361328125 119.86328125 -3.7431640625 58.7705078125 136.120117188 c 0
 -2.3232421875 275.983398438 76.5439453125 458.119140625 234.365234375 542.3984375 c 0
 363.33984375 611.274414062 505.827148438 593.852539062 586.94921875 508.848632812 c 0
 605.092773438 489.836914062 652.241210938 454 626.290039062 433 c 0
 555.3359375 372.814453125 481.697265625 316.206054688 406.256835938 262 c 0
 393.138671875 252.764648438 370.056640625 249.096679688 359.504882812 265.56640625 c 0
 348.952148438 282.036132812 352.672851562 302.03515625 365.284179688 312 c 0
 395.657226562 336 546.814453125 439.174804688 524.73046875 450.366210938 c 0
 449.744140625 488.362304688 360.606445312 521.732421875 265.5625 470.9765625 c 0
 148.379882812 408.399414062 90.30078125 272.065429688 132.487304688 175.486328125 c 0
 174.673828125 78.90625 316.184570312 28.294921875 424.541015625 107.0234375 c 2
 561.024414062 206.1875 l 2
 574.01171875 215.624023438 592.064453125 218.373046875 606.24609375 205 c 0
 620.4296875 191.626953125 620.1953125 167.295898438 608.026367188 156.776367188 c 0
EndSplineSet
AlternateSubs2: "'salt' Stylistic Alternatives in Latin lookup 0 subtable" uniE00A
EndChar

StartChar: f
Encoding: 102 102 71
Width: 726
GlyphClass: 2
Flags: MW
HStem: 279 74.0996<193.567 586.481 211.481 576.067> 505.976 74.7959<331.007 442.527>
LayerCount: 2
Back
Fore
SplineSet
576.067382812 279 m 2
 201.067382812 279 l 2
 186.067382812 279 175.336914062 295.150390625 178.274414062 316.049804688 c 0
 181.211914062 336.950195312 196.688476562 353.100585938 211.481445312 353.099609375 c 2
 211.481445312 353.099609375 586.353515625 353.307617188 586.481445312 353.099609375 c 0
 601.481445312 353.099609375 612.211914062 336.950195312 609.274414062 316.049804688 c 0
 606.336914062 295.150390625 591.126953125 279.42578125 576.067382812 279 c 2
109.841796875 28 m 1
 107.68359375 13 89.7568359375 0 68.8564453125 0 c 0
 47.95703125 0 33.68359375 13 35.7421875 28 c 0
 35.7919921875 28 63.85546875 290.299804688 63.85546875 290.299804688 c 1
 96.7919921875 450.087890625 235.778320312 580.771484375 397.278320312 580.771484375 c 0
 558.778320312 580.771484375 667.176757812 580.049804688 667.176757812 580.049804688 c 2
 682.176757812 580.049804688 692.907226562 563.899414062 689.969726562 543 c 0
 687.032226562 522.099609375 671.762695312 505.950195312 656.762695312 505.950195312 c 2
 656.762695312 505.950195312 498.287109375 505.975585938 386.766601562 505.975585938 c 0
 275.247070312 505.975585938 163.036132812 409.197265625 146.326171875 290.299804688 c 0
 129.616210938 171.40234375 109.791992188 28 109.841796875 28 c 1
EndSplineSet
EndChar

StartChar: g
Encoding: 103 103 72
Width: 706
GlyphClass: 2
Flags: MW
HStem: -0.171875 74.7959<247.658 340.394 247.658 373.656> 505.976 74.7959<308.281 419.801>
LayerCount: 2
Back
Fore
SplineSet
644.451171875 580.049804688 m 2
 659.451171875 580.049804688 670.181640625 563.899414062 667.244140625 543 c 0
 664.306640625 522.099609375 649.037109375 505.950195312 634.037109375 505.950195312 c 2
 634.037109375 505.950195312 475.561523438 505.975585938 364.041015625 505.975585938 c 0
 252.521484375 505.975585938 140.310546875 409.197265625 123.600585938 290.299804688 c 0
 106.890625 171.40234375 191.8984375 74.6240234375 303.41796875 74.6240234375 c 0
 377.369140625 74.6240234375 471.971679688 74.634765625 527.317382812 74.642578125 c 1
 560.176757812 308.599609375 l 2
 562.283203125 323.599609375 580.260742188 336.599609375 601.161132812 336.599609375 c 0
 622.060546875 336.599609375 636.383789062 323.599609375 634.276367188 308.599609375 c 2
 596.21484375 37.599609375 l 2
 593.263671875 16.685546875 578.000976562 0.5498046875 563.0078125 0.5498046875 c 2
 563.0078125 0.5498046875 454.40625 -0.171875 292.90625 -0.171875 c 0
 131.40625 -0.171875 18.625 130.16796875 41.1298828125 290.299804688 c 0
 63.634765625 450.431640625 213.052734375 580.771484375 374.552734375 580.771484375 c 0
 536.052734375 580.771484375 644.451171875 580.049804688 644.451171875 580.049804688 c 2
EndSplineSet
AlternateSubs2: "'salt' Stylistic Alternatives in Latin lookup 0 subtable" uniE003
EndChar

StartChar: h
Encoding: 104 104 73
Width: 666
GlyphClass: 2
Flags: MW
HStem: 400.129 82.4707<338.954 429.479>
LayerCount: 2
Back
Fore
SplineSet
79.095703125 0 m 2
 58.1962890625 0 43.873046875 13 45.9814453125 28 c 2
 45.9814453125 28 45.330078125 28.5 68.02734375 190 c 0
 69.1298828125 197.844726562 70.529296875 205.6171875 72.2138671875 213.306640625 c 0
 95.177734375 377.00390625 125.069335938 589.903320312 125.2109375 590 c 0
 127.319335938 605 145.295898438 618 166.196289062 618 c 0
 187.095703125 618 200.993164062 605 199.310546875 590 c 2
 170.661132812 386.150390625 l 1
 232.181640625 445.370117188 296.287109375 482.599609375 381.62109375 482.599609375 c 0
 541.752929688 482.599609375 639.66796875 351.5 616.970703125 190 c 0
 594.2734375 28.5 593.481445312 28 593.481445312 28 c 2
 591.373046875 13 573.395507812 0 552.49609375 0 c 0
 531.595703125 0 517.2734375 13 519.381835938 28 c 2
 519.381835938 28 526.500976562 78.4794921875 542.174804688 190 c 0
 557.84765625 301.51953125 488.927734375 400.12890625 370.030273438 400.12890625 c 0
 254.783203125 400.12890625 165.296875 307.481445312 144.532226562 200.232421875 c 1
 120.327148438 28 l 2
 118.21875 13 100.241210938 0 79.341796875 0 c 2
 79.095703125 0 l 2
EndSplineSet
AlternateSubs2: "'salt' Stylistic Alternatives in Latin lookup 0 subtable" uniE004
EndChar

StartChar: i
Encoding: 105 105 74
Width: 220
GlyphClass: 2
Flags: MW
HStem: 0 28<35.457 79.021>
VStem: 35.457 149.148
LayerCount: 2
Back
Fore
SplineSet
184.60546875 562 m 2
 109.556640625 28 l 2
 107.448242188 13 89.470703125 0 68.5712890625 0 c 0
 47.6708984375 0 33.376953125 13.20703125 35.45703125 28 c 2
 35.45703125 28 110.275390625 561.842773438 110.505859375 562 c 0
 112.61328125 577 130.58984375 590 151.490234375 590 c 0
 172.389648438 590 186.287109375 577 184.60546875 562 c 2
EndSplineSet
EndChar

StartChar: j
Encoding: 106 106 75
Width: 726
GlyphClass: 2
Flags: MW
HStem: 0 74.7959<283.473 394.993 283.473 409.472>
LayerCount: 2
Back
Fore
SplineSet
616.158203125 552.771484375 m 1
 618.31640625 567.771484375 636.243164062 580.771484375 657.143554688 580.771484375 c 0
 678.04296875 580.771484375 692.31640625 567.771484375 690.2578125 552.771484375 c 0
 690.208007812 552.771484375 662.14453125 290.471679688 662.14453125 290.471679688 c 1
 629.208007812 130.68359375 490.221679688 0 328.721679688 0 c 0
 167.221679688 0 58.8232421875 0.7216796875 58.8232421875 0.7216796875 c 2
 43.8232421875 0.7216796875 33.0927734375 16.8720703125 36.0302734375 37.771484375 c 0
 38.9677734375 58.671875 54.2373046875 74.8212890625 69.2373046875 74.8212890625 c 2
 69.2373046875 74.8212890625 227.712890625 74.7958984375 339.233398438 74.7958984375 c 0
 450.752929688 74.7958984375 562.963867188 171.57421875 579.673828125 290.471679688 c 0
 596.383789062 409.369140625 616.208007812 552.771484375 616.158203125 552.771484375 c 1
EndSplineSet
EndChar

StartChar: k
Encoding: 107 107 76
Width: 591
GlyphClass: 2
Flags: MW
VStem: 113.456 74.0996<590 590>
LayerCount: 2
Back
Fore
SplineSet
507.407226562 28 m 0
 514.248046875 13.20703125 500.166992188 0 474.041015625 0 c 0
 447.916992188 0 421.717773438 13 414.782226562 28 c 2
 310.528320312 264.474609375 l 1
 134.716796875 28 l 2
 123.564453125 13 93.7109375 0 67.5869140625 0 c 0
 51.0908203125 0 40.876953125 5.265625 38.3564453125 12.8701171875 c 0
 35.1630859375 17.310546875 33.7060546875 22.546875 34.47265625 28 c 2
 34.47265625 28 113.2265625 589.842773438 113.456054688 590 c 0
 115.564453125 605 133.541015625 618 154.44140625 618 c 0
 175.340820312 618 189.23828125 605 187.555664062 590 c 2
 124.079101562 138.337890625 l 1
 167.728515625 197.079101562 223.284179688 271.8359375 276.583984375 343.544921875 c 1
 275.733398438 351.471679688 280.866210938 358.41015625 290.6015625 362.403320312 c 1
 380.224609375 482.977539062 459.754882812 589.931640625 459.919921875 590 c 0
 471.072265625 605 500.923828125 618 527.049804688 618 c 0
 553.173828125 618 563.165039062 605 552.544921875 590 c 2
 368.288085938 342.166015625 l 2
 369.559570312 340.388671875 505.973632812 31.25 507.407226562 28 c 0
EndSplineSet
EndChar

StartChar: l
Encoding: 108 108 77
Width: 643
GlyphClass: 2
Flags: MW
HStem: 0 74.7959<250.718 362.238 250.718 376.716>
LayerCount: 2
Back
Fore
SplineSet
163.90234375 552.771484375 m 0
 163.852539062 552.771484375 143.370117188 409.369140625 126.66015625 290.471679688 c 0
 109.950195312 171.57421875 194.958007812 74.7958984375 306.477539062 74.7958984375 c 0
 417.998046875 74.7958984375 576.481445312 74.8212890625 576.481445312 74.8212890625 c 2
 591.481445312 74.8212890625 602.211914062 58.671875 599.274414062 37.771484375 c 0
 596.336914062 16.8720703125 581.067382812 0.7216796875 566.067382812 0.7216796875 c 2
 566.067382812 0.7216796875 457.465820312 0 295.965820312 0 c 0
 134.465820312 0 32.2119140625 130.68359375 44.189453125 290.471679688 c 1
 89.802734375 552.771484375 l 2
 91.9609375 567.771484375 109.888671875 580.771484375 130.788085938 580.771484375 c 0
 151.688476562 580.771484375 165.9609375 567.771484375 163.90234375 552.771484375 c 0
EndSplineSet
EndChar

StartChar: m
Encoding: 109 109 78
Width: 1075
GlyphClass: 2
Flags: MW
HStem: 508.129 82.4707<306.773 425.671 759.752 861.818>
LayerCount: 2
Back
Fore
SplineSet
989.642578125 28 m 2
 987.534179688 13 969.556640625 0 948.65625 0 c 0
 927.755859375 0 913.434570312 13 915.54296875 28 c 2
 915.54296875 28 937.840820312 186.479492188 953.513671875 298 c 0
 969.1875 409.51953125 921.266601562 508.12890625 802.370117188 508.12890625 c 0
 683.471679688 508.12890625 607.8359375 409.51953125 592.162109375 298 c 0
 576.489257812 186.479492188 554.2421875 28 554.2421875 28 c 2
 552.133789062 13 534.15625 0 513.255859375 0 c 0
 513.131835938 0 513.006835938 0.0009765625 512.8828125 0.0009765625 c 0
 512.7578125 0.0009765625 512.633789062 0 512.509765625 0 c 0
 491.609375 0 477.286132812 13 479.39453125 28 c 2
 479.39453125 28 501.692382812 186.479492188 517.365234375 298 c 0
 533.0390625 409.51953125 485.120117188 508.12890625 366.221679688 508.12890625 c 0
 247.325195312 508.12890625 170.6875 409.51953125 155.013671875 298 c 0
 139.340820312 186.479492188 117.09375 28 117.09375 28 c 2
 114.985351562 13 97.009765625 0 76.109375 0 c 0
 55.208984375 0 40.8857421875 13 42.994140625 28 c 2
 42.994140625 28 57.521484375 136.5 80.21875 298 c 0
 102.916015625 459.5 217.680664062 590.599609375 377.811523438 590.599609375 c 0
 486.227539062 590.599609375 537.541015625 530.505859375 574.94140625 441.5703125 c 1
 637.33984375 530.505859375 705.543945312 590.599609375 813.959960938 590.599609375 c 0
 974.090820312 590.599609375 1051.00585938 459.5 1028.30859375 298 c 0
 1005.61132812 136.5 989.642578125 28 989.642578125 28 c 2
EndSplineSet
EndChar

StartChar: n
Encoding: 110 110 79
Width: 707
GlyphClass: 2
Flags: MW
HStem: 0 28<43.0576 86.6221> 508.129 82.4707<340.836 459.734>
LayerCount: 2
Back
Fore
SplineSet
622.557617188 28 m 2
 620.44921875 13 602.471679688 0 581.572265625 0 c 0
 560.671875 0 546.349609375 13 548.458007812 28 c 2
 548.458007812 28 570.755859375 186.479492188 586.428710938 298 c 0
 602.102539062 409.51953125 519.182617188 508.12890625 400.28515625 508.12890625 c 0
 281.387695312 508.12890625 170.750976562 409.51953125 155.077148438 298 c 0
 139.404296875 186.479492188 117.157226562 28 117.157226562 28 c 2
 115.048828125 13 97.072265625 0 76.171875 0 c 0
 55.2724609375 0 40.94921875 13 43.0576171875 28 c 2
 43.0576171875 28 57.583984375 136.5 80.28125 298 c 0
 102.978515625 459.5 251.743164062 590.599609375 411.875 590.599609375 c 0
 572.006835938 590.599609375 683.921875 459.5 661.224609375 298 c 0
 638.52734375 136.5 622.557617188 28 622.557617188 28 c 2
EndSplineSet
EndChar

StartChar: o
Encoding: 111 111 80
Width: 708
GlyphClass: 2
Flags: MW
HStem: 0 82.4707<261.891 387.046 261.891 397.158> 502.729 82.4707<320.955 446.11>
LayerCount: 2
Back
Fore
SplineSet
126.97265625 292.599609375 m 0
 111.299804688 181.079101562 199.313476562 82.470703125 324.46875 82.470703125 c 0
 449.624023438 82.470703125 565.354492188 181.079101562 581.02734375 292.599609375 c 0
 596.700195312 404.119140625 508.6875 502.728515625 383.532226562 502.728515625 c 0
 258.376953125 502.728515625 142.645507812 404.119140625 126.97265625 292.599609375 c 0
48.240234375 292.599609375 m 0
 70.9375 454.099609375 226.5625 585.19921875 395.122070312 585.19921875 c 0
 563.681640625 585.19921875 682.45703125 454.099609375 659.759765625 292.599609375 c 0
 637.0625 131.099609375 481.4375 0 312.877929688 0 c 0
 144.318359375 0 25.54296875 131.099609375 48.240234375 292.599609375 c 0
EndSplineSet
EndChar

StartChar: p
Encoding: 112 112 81
Width: 751
GlyphClass: 2
Flags: MW
HStem: 0 82.4707<313.922 434.198 309.042 444.309> 502.729 82.4707<368.106 493.261>
LayerCount: 2
Back
Fore
SplineSet
41.353515625 -95.529296875 m 2
 95.3916015625 292.599609375 l 2
 118.088867188 454.099609375 273.713867188 585.19921875 442.2734375 585.19921875 c 0
 610.833007812 585.19921875 729.608398438 454.099609375 706.911132812 292.599609375 c 0
 684.213867188 131.099609375 528.588867188 0 360.029296875 0 c 0
 267.815429688 0 190.500976562 39.236328125 143.09765625 101.221679688 c 1
 138.799804688 70.638671875 119.611328125 -65.9453125 115.3125 -96.529296875 c 0
 113.204101562 -111.529296875 39.2451171875 -110.529296875 41.353515625 -95.529296875 c 2
628.178710938 292.599609375 m 0
 643.8515625 404.119140625 555.838867188 502.728515625 430.68359375 502.728515625 c 0
 305.528320312 502.728515625 189.796875 404.119140625 174.124023438 292.599609375 c 0
 158.451171875 181.079101562 246.46484375 82.470703125 371.620117188 82.470703125 c 0
 496.775390625 82.470703125 612.505859375 181.079101562 628.178710938 292.599609375 c 0
EndSplineSet
EndChar

StartChar: q
Encoding: 113 113 82
Width: 710
GlyphClass: 2
Flags: MW
HStem: 0 82.4707<262.891 359.985> 502.729 82.4707<321.955 447.11>
LayerCount: 2
Back
Fore
SplineSet
605.702148438 -95.529296875 m 2
 603.59375 -110.529296875 529.353515625 -111.529296875 531.461914062 -96.529296875 c 0
 535.760742188 -65.9453125 554.962890625 70.638671875 559.260742188 101.221679688 c 1
 494.435546875 39.236328125 406.091796875 0 313.877929688 0 c 0
 145.318359375 0 26.54296875 131.099609375 49.240234375 292.599609375 c 0
 71.9375 454.099609375 227.5625 585.19921875 396.122070312 585.19921875 c 0
 564.681640625 585.19921875 683.45703125 454.099609375 660.759765625 292.599609375 c 2
 605.702148438 -95.529296875 l 2
127.97265625 292.599609375 m 0
 112.299804688 181.079101562 200.313476562 82.470703125 325.46875 82.470703125 c 0
 450.624023438 82.470703125 566.354492188 181.079101562 582.02734375 292.599609375 c 0
 597.700195312 404.119140625 509.6875 502.728515625 384.532226562 502.728515625 c 0
 259.376953125 502.728515625 143.645507812 404.119140625 127.97265625 292.599609375 c 0
EndSplineSet
EndChar

StartChar: r
Encoding: 114 114 83
Width: 726
GlyphClass: 2
Flags: MW
HStem: 505.976 74.7959<331.007 442.527>
LayerCount: 2
Back
Fore
SplineSet
109.841796875 28 m 1
 107.68359375 13 89.7568359375 0 68.8564453125 0 c 0
 47.95703125 0 33.68359375 13 35.7421875 28 c 0
 35.7919921875 28 63.85546875 290.299804688 63.85546875 290.299804688 c 1
 96.7919921875 450.087890625 235.778320312 580.771484375 397.278320312 580.771484375 c 0
 558.778320312 580.771484375 667.176757812 580.049804688 667.176757812 580.049804688 c 2
 682.176757812 580.049804688 692.907226562 563.899414062 689.969726562 543 c 0
 687.032226562 522.099609375 671.762695312 505.950195312 656.762695312 505.950195312 c 2
 656.762695312 505.950195312 498.287109375 505.975585938 386.766601562 505.975585938 c 0
 275.247070312 505.975585938 163.036132812 409.197265625 146.326171875 290.299804688 c 0
 129.616210938 171.40234375 109.791992188 28 109.841796875 28 c 1
EndSplineSet
EndChar

StartChar: s
Encoding: 115 115 84
Width: 729
GlyphClass: 2
Flags: MW
HStem: 0 74.7959<282.609 394.129 282.609 408.607> 251.426 74.7959<234.705 234.705 234.705 304.943> 503.573 74.7959<334.871 446.391>
LayerCount: 2
Back
Fore
SplineSet
504.806640625 326.943359375 m 0
 578.306640625 326.943359375 668.748046875 343.603515625 646.3828125 184.471679688 c 0
 624.439453125 28.33984375 489.357421875 0 327.857421875 0 c 0
 166.357421875 0 57.958984375 0.7216796875 57.958984375 0.7216796875 c 2
 42.958984375 0.7216796875 32.228515625 16.8720703125 35.166015625 37.771484375 c 0
 38.103515625 58.671875 53.373046875 74.8212890625 68.373046875 74.8212890625 c 2
 68.373046875 74.8212890625 226.849609375 74.7958984375 338.369140625 74.7958984375 c 0
 449.888671875 74.7958984375 551.83984375 98.57421875 563.912109375 184.471679688 c 0
 564.1796875 186.369140625 594.814453125 252.291992188 494.294921875 252.147460938 c 0
 493.814453125 252.291992188 385.693359375 251.42578125 224.193359375 251.42578125 c 0
 150.693359375 251.42578125 60.251953125 234.765625 82.6162109375 393.897460938 c 0
 104.559570312 550.029296875 239.642578125 578.369140625 401.142578125 578.369140625 c 0
 562.642578125 578.369140625 671.041015625 577.647460938 671.041015625 577.647460938 c 2
 686.041015625 577.647460938 696.771484375 561.497070312 693.833984375 540.59765625 c 0
 690.896484375 519.697265625 675.626953125 503.547851562 660.626953125 503.547851562 c 2
 660.626953125 503.547851562 502.150390625 503.573242188 390.630859375 503.573242188 c 0
 279.111328125 503.573242188 177.16015625 479.794921875 165.087890625 393.897460938 c 0
 164.8203125 392 134.16796875 325.953125 234.705078125 326.221679688 c 2
 234.705078125 326.221679688 343.306640625 326.943359375 504.806640625 326.943359375 c 0
EndSplineSet
AlternateSubs2: "'salt' Stylistic Alternatives in Latin lookup 0 subtable" uniE016
EndChar

StartChar: t
Encoding: 116 116 85
Width: 585
GlyphClass: 2
Flags: MW
HStem: 0 28<181.667 225.231> 515.882 74.168<324.334 324.334>
LayerCount: 2
Back
Fore
SplineSet
72.70703125 590.049804688 m 2
 284.108398438 590.049804688 l 2
 288.469726562 591.3046875 293.147460938 592 297.981445312 592 c 0
 302.815429688 592 307.274414062 591.3046875 311.252929688 590.049804688 c 2
 522.70703125 590.049804688 l 2
 537.70703125 590.049804688 548.4375 573.899414062 545.5 553 c 0
 542.5625 532.099609375 527.0859375 515.94921875 512.29296875 515.950195312 c 2
 512.29296875 515.950195312 423.220703125 515.909179688 324.333984375 515.881835938 c 1
 255.766601562 28 l 2
 253.658203125 13 235.680664062 0 214.78125 0 c 0
 193.880859375 0 179.586914062 13.20703125 181.666992188 28 c 2
 181.666992188 28 230.96484375 379.770507812 250.15625 515.864257812 c 1
 151.338867188 515.84765625 62.3505859375 515.857421875 62.29296875 515.950195312 c 0
 47.29296875 515.950195312 36.5625 532.099609375 39.5 553 c 0
 42.4375 573.899414062 57.6474609375 589.624023438 72.70703125 590.049804688 c 2
EndSplineSet
EndChar

StartChar: u
Encoding: 117 117 86
Width: 701
GlyphClass: 2
Flags: MW
HStem: 0 82.4707<244.267 363.165 244.267 372.191> 562.6 28<111.978 155.543>
LayerCount: 2
Back
Fore
SplineSet
660.943359375 562.599609375 m 2
 660.943359375 562.599609375 646.416015625 454.099609375 623.71875 292.599609375 c 0
 601.021484375 131.099609375 452.256835938 0 292.125 0 c 0
 131.993164062 0 20.078125 131.099609375 42.775390625 292.599609375 c 0
 65.47265625 454.099609375 81.443359375 562.599609375 81.443359375 562.599609375 c 2
 83.5517578125 577.599609375 101.528320312 590.599609375 122.427734375 590.599609375 c 0
 143.328125 590.599609375 157.651367188 577.599609375 155.54296875 562.599609375 c 2
 155.54296875 562.599609375 133.244140625 404.120117188 117.571289062 292.599609375 c 0
 101.8984375 181.080078125 184.818359375 82.470703125 303.715820312 82.470703125 c 0
 422.61328125 82.470703125 533.25 181.080078125 548.922851562 292.599609375 c 0
 564.595703125 404.120117188 586.84375 562.599609375 586.84375 562.599609375 c 2
 588.952148438 577.599609375 606.927734375 590.599609375 627.828125 590.599609375 c 0
 648.727539062 590.599609375 663.051757812 577.599609375 660.943359375 562.599609375 c 2
EndSplineSet
EndChar

StartChar: v
Encoding: 118 118 87
Width: 568
GlyphClass: 2
Flags: MW
HStem: -0.72168 0.72168<159.259 169.709 159.259 246.357>
LayerCount: 2
Back
Fore
SplineSet
178.5703125 74.08984375 m 2
 176.119140625 74.07421875 l 2
 176.935546875 74.07421875 177.754882812 74.08984375 178.5703125 74.08984375 c 2
41.0888671875 552 m 2
 38.1025390625 567 50.8701171875 580 71.76953125 580 c 0
 92.669921875 580 111.776367188 567 115.188476562 552 c 0
 115.388671875 551.872070312 171.962890625 203.23828125 192.80078125 74.787109375 c 1
 298.595703125 83.783203125 400.68359375 176.783203125 416.559570312 289.75 c 0
 433.26953125 408.647460938 453.094726562 552.049804688 453.044921875 552.049804688 c 1
 455.202148438 567.049804688 473.12890625 580.049804688 494.029296875 580.049804688 c 0
 514.928710938 580.049804688 529.202148438 567.049804688 527.14453125 552.049804688 c 0
 527.094726562 552.049804688 499.030273438 289.75 499.030273438 289.75 c 1
 466.09375 129.961914062 327.107421875 -0.7216796875 165.607421875 -0.7216796875 c 0
 4.107421875 -0.7216796875 169.708984375 0 169.708984375 0 c 2
 148.809570312 0 129.702148438 13 126.290039062 28 c 2
 41.0888671875 552 l 2
EndSplineSet
AlternateSubs2: "'salt' Stylistic Alternatives in Latin lookup 0 subtable" uniE015
EndChar

StartChar: w
Encoding: 119 119 88
Width: 1069
GlyphClass: 2
Flags: MW
HStem: 0 82.4707<210.183 312.248 646.33 765.228>
LayerCount: 2
Back
Fore
SplineSet
82.3583984375 562.599609375 m 2
 84.466796875 577.599609375 102.443359375 590.599609375 123.34375 590.599609375 c 0
 144.244140625 590.599609375 158.56640625 577.599609375 156.458007812 562.599609375 c 2
 156.458007812 562.599609375 134.159179688 404.120117188 118.486328125 292.599609375 c 0
 102.813476562 181.080078125 150.734375 82.470703125 269.630859375 82.470703125 c 0
 388.529296875 82.470703125 464.165039062 181.080078125 479.837890625 292.599609375 c 0
 495.510742188 404.120117188 517.758789062 562.599609375 517.758789062 562.599609375 c 2
 519.8671875 577.599609375 537.84375 590.599609375 558.744140625 590.599609375 c 0
 558.868164062 590.599609375 558.993164062 590.598632812 559.1171875 590.598632812 c 0
 559.2421875 590.598632812 559.366210938 590.599609375 559.490234375 590.599609375 c 0
 580.390625 590.599609375 594.71484375 577.599609375 592.606445312 562.599609375 c 2
 592.606445312 562.599609375 570.307617188 404.120117188 554.634765625 292.599609375 c 0
 538.961914062 181.080078125 586.880859375 82.470703125 705.779296875 82.470703125 c 0
 824.67578125 82.470703125 901.313476562 181.080078125 916.986328125 292.599609375 c 0
 932.659179688 404.120117188 954.907226562 562.599609375 954.907226562 562.599609375 c 2
 957.015625 577.599609375 974.990234375 590.599609375 995.890625 590.599609375 c 0
 1016.79101562 590.599609375 1031.11523438 577.599609375 1029.00683594 562.599609375 c 2
 1029.00683594 562.599609375 1014.47851562 454.099609375 991.78125 292.599609375 c 0
 969.083984375 131.099609375 854.319335938 0 694.188476562 0 c 0
 585.772460938 0 534.458984375 60.09375 497.05859375 149.029296875 c 1
 434.66015625 60.09375 366.456054688 0 258.040039062 0 c 0
 97.9091796875 0 20.994140625 131.099609375 43.69140625 292.599609375 c 0
 66.388671875 454.099609375 82.3583984375 562.599609375 82.3583984375 562.599609375 c 2
EndSplineSet
EndChar

StartChar: x
Encoding: 120 120 89
Width: 697
GlyphClass: 2
Flags: W
LayerCount: 2
Back
Fore
SplineSet
658.005859375 562 m 2
 394.942382812 295.049804688 l 1
 488.95703125 161.533203125 582.95703125 28 582.95703125 28 c 2
 590.122070312 13.20703125 576.33203125 0 550.205078125 0 c 0
 524.08203125 0 497.596679688 13 490.33203125 28 c 2
 340.876953125 240.185546875 l 1
 131.78125 28 l 2
 120.299804688 13 90.16015625 0 64.037109375 0 c 0
 37.91015625 0 27.8330078125 13.20703125 39.15625 28 c 2
 39.15625 28 170.688476562 161.533203125 302.233398438 295.049804688 c 1
 114.205078125 562 l 2
 107.470703125 577 120.831054688 590 146.956054688 590 c 0
 173.081054688 590 199.564453125 577 206.830078125 562 c 0
 206.973632812 561.932617188 276.833007812 462.76953125 356.299804688 349.92578125 c 1
 467.484375 462.76953125 565.216796875 561.932617188 565.380859375 562 c 0
 576.861328125 577 606.999023438 590 633.124023438 590 c 0
 659.249023438 590 668.955078125 577 658.005859375 562 c 2
EndSplineSet
EndChar

StartChar: y
Encoding: 121 121 90
Width: 659
GlyphClass: 2
Flags: MW
HStem: -65.3223 74.7959<198.925 310.445 198.925 324.924> 108 82.4707<233.02 323.546>
LayerCount: 2
Back
Fore
SplineSet
583.403320312 590.599609375 m 2
 604.302734375 590.599609375 618.626953125 577.599609375 616.518554688 562.599609375 c 2
 616.518554688 562.599609375 617.169921875 562.099609375 594.47265625 400.599609375 c 0
 593.370117188 392.754882812 591.969726562 384.982421875 590.286132812 377.29296875 c 0
 567.321289062 213.595703125 563.4296875 185.696289062 563.288085938 185.599609375 c 0
 546.681640625 6.8115234375 405.673828125 -65.322265625 244.173828125 -65.322265625 c 0
 82.673828125 -65.322265625 121.275390625 -64.6005859375 121.275390625 -64.6005859375 c 2
 106.275390625 -64.6005859375 95.544921875 -48.4501953125 98.482421875 -27.55078125 c 0
 101.419921875 -6.650390625 116.689453125 9.4990234375 131.689453125 9.4990234375 c 2
 131.689453125 9.4990234375 143.165039062 9.4736328125 254.685546875 9.4736328125 c 0
 366.205078125 9.4736328125 470.264648438 48.251953125 486.974609375 167.149414062 c 0
 487.732421875 172.541992188 488.430664062 177.522460938 489.076171875 182.116210938 c 0
 489.020507812 183.26171875 489.056640625 184.424804688 489.188476562 185.599609375 c 2
 491.837890625 204.44921875 l 1
 430.318359375 145.229492188 366.212890625 108 280.87890625 108 c 0
 120.747070312 108 22.83203125 239.099609375 45.529296875 400.599609375 c 0
 68.2265625 562.099609375 69.0185546875 562.599609375 69.0185546875 562.599609375 c 2
 71.126953125 577.599609375 89.103515625 590.599609375 110.002929688 590.599609375 c 0
 130.903320312 590.599609375 145.2265625 577.599609375 143.118164062 562.599609375 c 2
 143.118164062 562.599609375 135.998046875 512.120117188 120.325195312 400.599609375 c 0
 104.65234375 289.080078125 173.571289062 190.470703125 292.46875 190.470703125 c 0
 407.715820312 190.470703125 497.203125 283.118164062 517.966796875 390.3671875 c 1
 542.172851562 562.599609375 l 2
 544.28125 577.599609375 562.2578125 590.599609375 583.157226562 590.599609375 c 2
 583.403320312 590.599609375 l 2
492.73046875 208.25 m 0
 499.947265625 260.0859375 492.813476562 210.888671875 491.926757812 205.008789062 c 1
 492.112304688 206.102539062 492.3828125 207.18359375 492.73046875 208.25 c 0
EndSplineSet
AlternateSubs2: "'salt' Stylistic Alternatives in Latin lookup 0 subtable" uniE00D
EndChar

StartChar: z
Encoding: 122 122 91
Width: 704
GlyphClass: 2
Flags: MW
HStem: 0 74.7959<262.11 373.63 262.11 388.107> 252.147 74.7959 503.573 74.7959<330.37 441.891>
LayerCount: 2
Back
Fore
SplineSet
222.307617188 326.943359375 m 0
 383.806640625 326.943359375 492.205078125 326.221679688 492.205078125 326.221679688 c 2
 592.666015625 325.953125 580.578125 392 580.845703125 393.897460938 c 0
 592.91796875 479.794921875 497.650390625 503.573242188 386.130859375 503.573242188 c 0
 274.609375 503.573242188 116.126953125 503.547851562 116.126953125 503.547851562 c 2
 101.126953125 503.547851562 90.3974609375 519.697265625 93.333984375 540.59765625 c 0
 96.271484375 561.497070312 111.541015625 577.647460938 126.541015625 577.647460938 c 2
 126.541015625 577.647460938 235.142578125 578.369140625 396.642578125 578.369140625 c 0
 558.142578125 578.369140625 685.259765625 550.029296875 663.31640625 393.897460938 c 0
 640.951171875 234.765625 555.193359375 251.42578125 481.693359375 251.42578125 c 0
 320.193359375 251.42578125 212.315429688 252.291992188 211.795898438 252.147460938 c 0
 111.315429688 252.291992188 123.421875 186.369140625 123.155273438 184.471679688 c 0
 111.083007812 98.57421875 206.350585938 74.7958984375 317.869140625 74.7958984375 c 0
 429.390625 74.7958984375 587.873046875 74.8212890625 587.873046875 74.8212890625 c 2
 602.873046875 74.8212890625 613.603515625 58.671875 610.666015625 37.771484375 c 0
 607.728515625 16.8720703125 592.458984375 0.7216796875 577.458984375 0.7216796875 c 2
 577.458984375 0.7216796875 468.857421875 0 307.357421875 0 c 0
 145.858398438 0 18.7412109375 28.33984375 40.6845703125 184.471679688 c 0
 63.048828125 343.603515625 148.807617188 326.943359375 222.307617188 326.943359375 c 0
EndSplineSet
AlternateSubs2: "'salt' Stylistic Alternatives in Latin lookup 0 subtable" uniE017
EndChar

StartChar: braceleft
Encoding: 123 123 92
Width: 388
GlyphClass: 2
Flags: MW
HStem: -0.171875 0.696289<196.405 203.905 196.405 277.058> 505.976 74.7959<211.683 274.942>
LayerCount: 2
Back
Fore
SplineSet
277.856445312 580.075195312 m 1
 292.856445312 580.075195312 303.586914062 563.924804688 300.649414062 543.025390625 c 0
 297.711914062 522.125 282.442382812 505.975585938 267.442382812 505.975585938 c 0
 155.922851562 505.975585938 173.939453125 311.197265625 171.001953125 290.299804688 c 0
 167.502929688 265.40234375 95.2998046875 74.6240234375 206.819335938 74.6240234375 c 0
 221.819335938 74.6240234375 232.549804688 58.474609375 229.612304688 37.57421875 c 0
 226.67578125 16.6748046875 211.405273438 0.5244140625 196.405273438 0.5244140625 c 1
 196.405273438 0.5244140625 357.807617188 -0.171875 196.307617188 -0.171875 c 0
 55.724609375 -0.171875 61.1728515625 98.591796875 79.7861328125 229.798828125 c 1
 65.0078125 248.720703125 49.2529296875 268.900390625 49.22265625 268.970703125 c 0
 42.1103515625 271.731445312 37.0810546875 282.198242188 38.5498046875 292.6484375 c 0
 40.0185546875 303.098632812 47.9892578125 313.565429688 55.8779296875 316.326171875 c 0
 55.9287109375 316.396484375 77.353515625 336.57421875 97.4501953125 355.495117188 c 1
 115.609375 484.356445312 139.052734375 580.771484375 277.954101562 580.771484375 c 0
 439.454101562 580.771484375 277.856445312 580.075195312 277.856445312 580.075195312 c 1
EndSplineSet
EndChar

StartChar: bar
Encoding: 124 124 93
Width: 246
GlyphClass: 2
Flags: MW
HStem: -50 28<38.7598 82.3237>
VStem: 38.7598 168.543
LayerCount: 2
Back
Fore
SplineSet
207.302734375 650 m 2
 112.859375 -22 l 2
 110.750976562 -37 92.7734375 -50 71.8740234375 -50 c 0
 50.9736328125 -50 36.6796875 -36.79296875 38.759765625 -22 c 2
 38.759765625 -22 132.97265625 649.842773438 133.203125 650 c 0
 135.311523438 665 153.288085938 678 174.188476562 678 c 0
 195.087890625 678 208.985351562 665 207.302734375 650 c 2
EndSplineSet
EndChar

StartChar: braceright
Encoding: 125 125 94
Width: 388
GlyphClass: 2
Flags: MW
HStem: -0.171875 0.696289<102.313 109.813 102.313 180.008> -0.171875 74.7959<112.728 175.987 112.728 180.008> 580.075 0.696289<183.765 191.265>
LayerCount: 2
Back
Fore
SplineSet
191.264648438 580.075195312 m 1x60
 191.264648438 580.075195312 29.8623046875 580.771484375 191.362304688 580.771484375 c 0
 330.264648438 580.771484375 326.608398438 484.356445312 308.546875 355.495117188 c 1
 323.32421875 336.57421875 339.077148438 316.396484375 339.108398438 316.326171875 c 0
 346.219726562 313.565429688 351.249023438 303.098632812 349.780273438 292.6484375 c 0
 348.311523438 282.198242188 340.340820312 271.731445312 332.453125 268.970703125 c 0
 332.401367188 268.900390625 310.974609375 248.720703125 290.87890625 229.798828125 c 1
 272.61328125 98.591796875 250.299804688 -0.171875 109.715820312 -0.171875 c 0x60
 -51.7841796875 -0.171875 109.813476562 0.5244140625 109.813476562 0.5244140625 c 1xa0
 94.8134765625 0.5244140625 84.083984375 16.6748046875 87.0205078125 37.57421875 c 0
 89.9580078125 58.474609375 105.227539062 74.6240234375 120.227539062 74.6240234375 c 0
 231.747070312 74.6240234375 213.168945312 265.40234375 216.66796875 290.299804688 c 0
 219.60546875 311.197265625 292.370117188 505.975585938 180.850585938 505.975585938 c 0
 165.850585938 505.975585938 155.120117188 522.125 158.057617188 543.025390625 c 0
 160.995117188 563.924804688 176.264648438 580.075195312 191.264648438 580.075195312 c 1x60
EndSplineSet
EndChar

StartChar: asciitilde
Encoding: 126 126 95
Width: 467
GlyphClass: 2
Flags: MW
VStem: 51.3076 40.1514 375.54 40.1514
LayerCount: 2
Back
Fore
SplineSet
253.698242188 368.102539062 m 1
 266.536132812 356.241210938 259.716796875 356.4296875 262.265625 336.427734375 c 0
 264.6484375 317.71875 278.021484375 302.51953125 314.897460938 312.041992188 c 0
 353.60546875 322.037109375 360.188476562 345.280273438 358.16015625 361.190429688 c 0
 356.840820312 371.548828125 372.880859375 406.837890625 375.540039062 388.498046875 c 1
 375.84765625 388.661132812 381.291015625 391.108398438 384.146484375 391.845703125 c 0
 397.918945312 395.40234375 413.814453125 390.77734375 415.69140625 376.046875 c 0
 425.74609375 297.127929688 359.481445312 262.459960938 322.43359375 252.892578125 c 0
 292.079101562 245.0546875 235.986328125 239.892578125 213.30078125 289.897460938 c 1
 200.462890625 301.758789062 207.282226562 301.5703125 204.734375 321.572265625 c 0
 202.350585938 340.28125 188.978515625 355.48046875 152.1015625 345.958007812 c 0
 113.39453125 335.962890625 106.811523438 312.719726562 108.838867188 296.809570312 c 0
 110.158203125 286.451171875 94.119140625 251.162109375 91.458984375 269.501953125 c 1
 91.15234375 269.338867188 85.7080078125 266.891601562 82.8525390625 266.154296875 c 0
 69.080078125 262.59765625 53.1845703125 267.22265625 51.3076171875 281.953125 c 0
 41.2529296875 360.872070312 107.518554688 395.540039062 144.56640625 405.107421875 c 0
 174.920898438 412.9453125 231.012695312 418.107421875 253.698242188 368.102539062 c 1
EndSplineSet
EndChar

StartChar: exclamdown
Encoding: 161 161 97
Width: 231
GlyphClass: 2
Flags: MW
HStem: 423.75 28<125.222 168.786> 487.5 92.5<141.867 153.867>
VStem: 39.0332 152.584
LayerCount: 2
Back
Fore
SplineSet
191.6171875 533.75 m 0
 188.103515625 508.75 166.3671875 487.5 141.3671875 487.5 c 0
 116.3671875 487.5 99.353515625 508.75 102.8671875 533.75 c 0
 106.380859375 558.75 129.3671875 580 154.3671875 580 c 0
 179.3671875 580 195.130859375 558.75 191.6171875 533.75 c 0
39.033203125 27.75 m 2
 94.6865234375 423.75 l 2
 96.794921875 438.75 114.772460938 451.75 135.671875 451.75 c 0
 156.572265625 451.75 170.866210938 438.54296875 168.786132812 423.75 c 2
 168.786132812 423.75 113.362304688 27.9072265625 113.1328125 27.75 c 0
 111.024414062 12.75 93.0478515625 -0.25 72.1474609375 -0.25 c 0
 51.248046875 -0.25 37.3505859375 12.75 39.033203125 27.75 c 2
EndSplineSet
EndChar

StartChar: cent
Encoding: 162 162 98
Width: 552
GlyphClass: 2
Flags: MW
HStem: 77.0371 56.0615<285.531 293.41> 456.608 56.0615<338.876 346.755>
LayerCount: 2
Back
Fore
SplineSet
264.499023438 455.28125 m 1
 187.80078125 445.047851562 115.494140625 376.987304688 103.950195312 294.853515625 c 0
 92.404296875 212.700195312 145.609375 144.626953125 219.459960938 134.418945312 c 1
 232.515625 227.526367188 251.401367188 362.083984375 264.499023438 455.28125 c 1
353.688476562 562 m 2
 346.754882812 512.669921875 l 1
 437.087890625 512.548828125 494.588867188 512.166015625 494.588867188 512.166015625 c 2
 505.838867188 512.166015625 513.88671875 500.053710938 511.68359375 484.37890625 c 0
 509.48046875 468.703125 498.028320312 456.590820312 486.778320312 456.590820312 c 2
 486.778320312 456.590820312 411.688476562 456.603515625 338.875976562 456.608398438 c 1
 293.41015625 133.098632812 l 1
 366.22265625 133.103515625 441.31640625 133.116210938 441.31640625 133.116210938 c 2
 452.56640625 133.116210938 460.614257812 121.00390625 458.411132812 105.328125 c 0
 456.208007812 89.6533203125 444.755859375 77.541015625 433.505859375 77.541015625 c 2
 433.505859375 77.541015625 375.897460938 77.158203125 285.53125 77.037109375 c 1
 278.639648438 28 l 2
 276.53125 13 258.553710938 0 237.654296875 0 c 0
 216.75390625 0 202.459960938 13.20703125 204.540039062 28 c 2
 204.540039062 28 207.203125 47.0087890625 211.528320312 77.8525390625 c 1
 100.916015625 87.6845703125 26.1357421875 181.27734375 42.09765625 294.853515625 c 0
 58.0576171875 408.409179688 159.111328125 501.989257812 272.462890625 511.848632812 c 1
 276.833007812 542.844726562 279.544921875 561.970703125 279.588867188 562 c 0
 281.696289062 577 299.672851562 590 320.573242188 590 c 0
 341.47265625 590 355.370117188 577 353.688476562 562 c 2
EndSplineSet
EndChar

StartChar: sterling
Encoding: 163 163 99
Width: 675
GlyphClass: 2
Flags: MW
HStem: 0 74.0996<139.585 599.291> 252.622 74.1777<175.699 312.542> 505.426 74.7959<351.786 457.284>
LayerCount: 2
Back
Fore
SplineSet
609.705078125 74.099609375 m 2
 624.645507812 73.673828125 635.435546875 57.94921875 632.498046875 37.0498046875 c 0
 629.560546875 16.1494140625 614.291015625 0 599.291015625 0 c 0
 599.104492188 -0.2080078125 65.291015625 0 65.291015625 0 c 2
 50.498046875 -0.0009765625 39.560546875 16.1494140625 42.498046875 37.0498046875 c 0
 54.5087890625 122.508789062 77.31640625 199.483398438 120.526367188 252.689453125 c 1
 108.458007812 252.696289062 101.405273438 252.700195312 101.405273438 252.700195312 c 2
 86.6123046875 252.69921875 75.6748046875 268.849609375 78.6123046875 289.75 c 0
 101.1171875 449.881835938 250.53515625 580.221679688 412.03515625 580.221679688 c 0
 573.53515625 580.221679688 601.93359375 579.5 601.93359375 579.5 c 2
 616.93359375 579.5 627.6640625 563.349609375 624.7265625 542.450195312 c 0
 621.7890625 521.549804688 606.51953125 505.400390625 591.51953125 505.400390625 c 2
 591.51953125 505.400390625 513.043945312 505.42578125 401.5234375 505.42578125 c 0
 302.048828125 505.42578125 220.483398438 426.551757812 175.69921875 326.799804688 c 1
 266.55078125 326.799804688 l 2
 273.155273438 327.278320312 279.944335938 327.521484375 286.920898438 327.521484375 c 0
 448.420898438 327.521484375 449.819335938 326.799804688 449.819335938 326.799804688 c 2
 464.819335938 326.799804688 475.549804688 310.649414062 472.612304688 289.75 c 0
 469.674804688 268.849609375 454.405273438 252.700195312 439.405273438 252.700195312 c 0
 439.311523438 252.595703125 354.7890625 252.622070312 270.294921875 252.622070312 c 0
 177.223632812 249.41015625 183.430664062 171.760742188 139.584960938 74.099609375 c 1
 609.705078125 74.099609375 l 2
EndSplineSet
EndChar

StartChar: currency
Encoding: 164 164 100
Width: 549
GlyphClass: 2
Flags: MW
HStem: 73.1504 21<41.9346 70.3916> 128.013 46.3896<234.232 268.506> 410.797 46.3896<280.494 314.768 280.494 326.311> 491.049 21<97.7148 132.075>
LayerCount: 2
Back
Fore
SplineSet
146.796875 292.599609375 m 0
 137.98046875 229.869140625 187.489257812 174.40234375 257.888671875 174.40234375 c 0
 328.288085938 174.40234375 393.38671875 229.869140625 402.203125 292.599609375 c 0
 411.01953125 355.329101562 361.510742188 410.796875 291.111328125 410.796875 c 0
 220.711914062 410.796875 155.61328125 355.329101562 146.796875 292.599609375 c 0
381.817382812 94.150390625 m 2
 348.151367188 154.245117188 l 1
 318.966796875 137.6484375 285.643554688 128.012695312 251.369140625 128.012695312 c 0
 217.095703125 128.012695312 186.48046875 137.6484375 161.9609375 154.245117188 c 1
 111.403320312 94.150390625 l 2
 102.258789062 83.650390625 80.1875 73.150390625 60.595703125 73.150390625 c 0
 41 73.150390625 33.2587890625 83.650390625 41.9345703125 94.150390625 c 0
 42.1611328125 94.150390625 96.857421875 159.9140625 123.958007812 192.514648438 c 1
 105.592773438 220.25390625 97.2197265625 254.958984375 102.509765625 292.599609375 c 0
 107.799804688 330.240234375 125.927734375 364.9453125 152.08984375 392.684570312 c 1
 134.15234375 425.28515625 97.94140625 491.048828125 97.71484375 491.048828125 c 0
 91.9912109375 501.548828125 102.68359375 512.048828125 122.279296875 512.048828125 c 0
 141.87109375 512.048828125 160.991210938 501.548828125 167.18359375 491.048828125 c 2
 200.849609375 430.954101562 l 1
 230.034179688 447.55078125 263.357421875 457.186523438 297.630859375 457.186523438 c 0
 331.905273438 457.186523438 362.520507812 447.55078125 387.040039062 430.954101562 c 1
 437.59765625 491.048828125 l 2
 446.741210938 501.548828125 468.8125 512.048828125 488.404296875 512.048828125 c 0
 508 512.048828125 515.741210938 501.548828125 507.06640625 491.048828125 c 0
 506.840820312 491.048828125 452.143554688 425.28515625 425.04296875 392.684570312 c 1
 443.409179688 364.9453125 451.780273438 330.240234375 446.490234375 292.599609375 c 0
 441.200195312 254.958984375 423.07421875 220.25390625 396.911132812 192.514648438 c 1
 414.848632812 159.9140625 451.060546875 94.150390625 451.286132812 94.150390625 c 0
 457.008789062 83.650390625 446.31640625 73.150390625 426.720703125 73.150390625 c 0
 407.12890625 73.150390625 388.008789062 83.650390625 381.817382812 94.150390625 c 2
EndSplineSet
EndChar

StartChar: yen
Encoding: 165 165 101
Width: 663
GlyphClass: 2
Flags: MW
HStem: 26.4746 37.0498<410.672 474.033 573.922 577.62> 86.4756 37.0498<419.104 482.466 582.354 582.354> 108 82.4707<235.021 325.547>
LayerCount: 2
Back
Fore
SplineSet
585.403320312 590.599609375 m 2xa0
 606.303710938 590.599609375 620.627929688 577.599609375 618.51953125 562.599609375 c 2
 618.51953125 562.599609375 619.169921875 562.099609375 596.47265625 400.599609375 c 0
 595.370117188 392.754882812 593.970703125 384.982421875 592.287109375 377.29296875 c 0
 580.591796875 293.9296875 567.100585938 197.805664062 556.65625 123.525390625 c 1
 587.561523438 123.525390625 l 2
 595.061523438 123.525390625 600.426757812 115.450195312 598.958007812 105 c 0
 597.489257812 94.55078125 589.750976562 86.474609375 582.354492188 86.4755859375 c 2
 582.354492188 86.4755859375 569.6640625 86.466796875 551.443359375 86.4580078125 c 1
 550.305664062 78.365234375 549.22265625 70.69921875 548.213867188 63.5244140625 c 1
 579.12890625 63.5244140625 l 2
 586.62890625 63.5244140625 591.994140625 55.44921875 590.525390625 45 c 0
 589.056640625 34.548828125 581.318359375 26.474609375 573.921875 26.474609375 c 2
 573.921875 26.474609375 561.219726562 26.466796875 542.984375 26.45703125 c 1
 540.6640625 10.05078125 539.318359375 0.6201171875 539.2890625 0.599609375 c 0
 537.181640625 -14.400390625 519.204101562 -27.400390625 498.303710938 -27.400390625 c 0
 477.405273438 -27.400390625 463.5078125 -14.400390625 465.189453125 0.599609375 c 2
 468.8203125 26.4296875 l 1
 438.993164062 26.4248046875 414.446289062 26.43359375 414.421875 26.474609375 c 0
 406.921875 26.474609375 401.556640625 34.548828125 403.025390625 45 c 0
 404.494140625 55.44921875 412.098632812 63.3115234375 419.62890625 63.5244140625 c 2
 474.033203125 63.5244140625 l 1
 477.251953125 86.4296875 l 1
 447.42578125 86.42578125 422.87890625 86.4345703125 422.854492188 86.4755859375 c 0
 415.354492188 86.4755859375 409.989257812 94.55078125 411.458007812 105 c 0
 412.926757812 115.450195312 420.53125 123.3125 428.061523438 123.525390625 c 2
 482.465820312 123.525390625 l 1xc0
 493.838867188 204.44921875 l 1
 432.319335938 145.229492188 368.213867188 108 282.879882812 108 c 0
 122.747070312 108 24.83203125 239.099609375 47.529296875 400.599609375 c 0
 70.2265625 562.099609375 71.01953125 562.599609375 71.01953125 562.599609375 c 2
 73.1279296875 577.599609375 91.1044921875 590.599609375 112.002929688 590.599609375 c 0
 132.903320312 590.599609375 147.227539062 577.599609375 145.119140625 562.599609375 c 2
 145.119140625 562.599609375 137.999023438 512.120117188 122.326171875 400.599609375 c 0
 106.653320312 289.080078125 175.571289062 190.470703125 294.469726562 190.470703125 c 0
 409.715820312 190.470703125 499.204101562 283.118164062 519.967773438 390.3671875 c 1
 544.173828125 562.599609375 l 2
 546.282226562 577.599609375 564.258789062 590.599609375 585.157226562 590.599609375 c 2
 585.403320312 590.599609375 l 2xa0
EndSplineSet
EndChar

StartChar: brokenbar
Encoding: 166 166 102
Width: 240
GlyphClass: 2
Flags: MW
VStem: 38.001 164.062
LayerCount: 2
Back
Fore
SplineSet
150.327148438 300 m 2
 112.100585938 28 l 2
 109.9921875 13 92.0146484375 0 71.115234375 0 c 0
 50.21484375 0 35.9208984375 13.20703125 38.0009765625 28 c 2
 38.0009765625 28 75.998046875 299.842773438 76.2275390625 300 c 0
 78.3359375 315 96.3125 328 117.212890625 328 c 0
 138.112304688 328 152.009765625 315 150.327148438 300 c 2
202.0625 672 m 2
 163.8359375 400 l 2
 161.727539062 385 143.75 372 122.850585938 372 c 0
 101.950195312 372 87.65625 385.20703125 89.736328125 400 c 2
 89.736328125 400 127.732421875 671.842773438 127.962890625 672 c 0
 130.071289062 687 148.047851562 700 168.948242188 700 c 0
 189.84765625 700 203.745117188 687 202.0625 672 c 2
EndSplineSet
EndChar

StartChar: section
Encoding: 167 167 103
Width: 738
GlyphClass: 2
Flags: MW
HStem: 0 74.7959<287.109 398.629 287.109 413.107> 146.3 56.9951<339.521 376.448 339.521 384.667> 251.454 75.0146 381.904 56.9951<363.067 402.899> 503.573 74.7959<339.371 450.891>
LayerCount: 2
Back
Fore
SplineSet
226.529296875 326.569335938 m 1
 251.619140625 390.958984375 318.966796875 438.899414062 391.041015625 438.899414062 c 0
 462.91796875 438.899414062 516.689453125 391.223632812 523.919921875 327.103515625 c 1
 594.162109375 328.37109375 671.783203125 333.1875 650.8828125 184.471679688 c 0
 628.939453125 28.33984375 493.857421875 0 332.357421875 0 c 0
 170.857421875 0 62.458984375 0.7216796875 62.458984375 0.7216796875 c 2
 47.458984375 0.7216796875 36.728515625 16.8720703125 39.666015625 37.771484375 c 0
 42.603515625 58.671875 57.873046875 74.8212890625 72.873046875 74.8212890625 c 2
 72.873046875 74.8212890625 231.349609375 74.7958984375 342.869140625 74.7958984375 c 0
 454.388671875 74.7958984375 556.33984375 98.57421875 568.412109375 184.471679688 c 0
 568.66796875 186.284179688 596.62109375 246.4921875 511.57421875 251.778320312 c 1
 484.51171875 190.869140625 419.4140625 146.299804688 349.919921875 146.299804688 c 0
 280.595703125 146.299804688 228.111328125 190.651367188 217.984375 251.33203125 c 1
 146.75390625 250.229492188 65.828125 242.419921875 87.1162109375 393.897460938 c 0
 109.059570312 550.029296875 244.142578125 578.369140625 405.642578125 578.369140625 c 0
 567.142578125 578.369140625 675.541015625 577.647460938 675.541015625 577.647460938 c 2
 690.541015625 577.647460938 701.271484375 561.497070312 698.333984375 540.59765625 c 0
 695.396484375 519.697265625 680.126953125 503.547851562 665.126953125 503.547851562 c 2
 665.126953125 503.547851562 506.650390625 503.573242188 395.130859375 503.573242188 c 0
 283.611328125 503.573242188 181.66015625 479.794921875 169.587890625 393.897460938 c 0
 169.33203125 392.084960938 141.33984375 331.713867188 226.529296875 326.569335938 c 1
464.01953125 326.924804688 m 1
 453.693359375 358.516601562 422.767578125 381.904296875 383.03125 381.904296875 c 0
 343.103515625 381.904296875 305.435546875 358.291015625 286.3125 326.46875 c 1
 325.49609375 326.64453125 387.189453125 326.860351562 464.01953125 326.924804688 c 1
279.54296875 251.454101562 m 1
 291.857421875 223.374023438 321.111328125 203.294921875 357.9296875 203.294921875 c 0
 394.966796875 203.294921875 430.060546875 223.614257812 450.2109375 251.95703125 c 1
 411.962890625 251.778320312 352.923828125 251.536132812 279.54296875 251.454101562 c 1
EndSplineSet
EndChar

StartChar: dieresis
Encoding: 168 168 104
Width: 373
GlyphClass: 2
Flags: MW
HStem: 611.25 88.75<106.572 119.099 254.072 266.599>
VStem: 66.498 92.5<655 655> 213.998 92.5<655 655>
LayerCount: 2
Back
Fore
SplineSet
106.598632812 611.25 m 0
 81.5986328125 611.25 62.984375 630 66.498046875 655 c 0
 70.0107421875 680 94.072265625 700 119.072265625 700 c 0
 144.072265625 700 162.510742188 680 158.998046875 655 c 0
 155.484375 630 131.598632812 611.25 106.598632812 611.25 c 0
254.098632812 611.25 m 0
 229.098632812 611.25 210.484375 630 213.998046875 655 c 0
 217.510742188 680 241.572265625 700 266.572265625 700 c 0
 291.572265625 700 310.010742188 680 306.498046875 655 c 0
 302.984375 630 279.098632812 611.25 254.098632812 611.25 c 0
EndSplineSet
EndChar

StartChar: copyright
Encoding: 169 169 105
Width: 704
GlyphClass: 2
Flags: MW
HStem: 0 82.4707<259.891 385.046 259.891 395.158> 145.064 37.3975<282.292 338.052 282.292 345.291> 398.138 37.3975<312.604 368.363> 502.729 82.4707<318.955 444.11>
LayerCount: 2
Back
Fore
SplineSet
124.97265625 292.599609375 m 0
 109.299804688 181.079101562 197.313476562 82.470703125 322.46875 82.470703125 c 0
 447.624023438 82.470703125 563.354492188 181.079101562 579.02734375 292.599609375 c 0
 594.700195312 404.119140625 506.6875 502.728515625 381.532226562 502.728515625 c 0
 256.376953125 502.728515625 140.645507812 404.119140625 124.97265625 292.599609375 c 0
46.240234375 292.599609375 m 0
 68.9375 454.099609375 224.5625 585.19921875 393.122070312 585.19921875 c 0
 561.681640625 585.19921875 680.45703125 454.099609375 657.759765625 292.599609375 c 0
 635.0625 131.099609375 479.4375 0 310.877929688 0 c 0
 142.318359375 0 23.54296875 131.099609375 46.240234375 292.599609375 c 0
480.688476562 435.174804688 m 2
 488.188476562 435.174804688 493.553710938 427.099609375 492.084960938 416.650390625 c 0
 490.616210938 406.19921875 482.981445312 398.125 475.481445312 398.125 c 2
 475.481445312 398.125 396.243164062 398.137695312 340.483398438 398.137695312 c 0
 284.723632812 398.137695312 228.618164062 349.748046875 220.262695312 290.299804688 c 0
 211.908203125 230.8515625 254.412109375 182.461914062 310.171875 182.461914062 c 0
 365.931640625 182.461914062 445.173828125 182.474609375 445.173828125 182.474609375 c 2
 452.673828125 182.474609375 458.0390625 174.400390625 456.5703125 163.94921875 c 0
 455.1015625 153.5 447.466796875 145.424804688 439.966796875 145.424804688 c 2
 439.966796875 145.424804688 385.666015625 145.064453125 304.916015625 145.064453125 c 0
 224.166015625 145.064453125 167.774414062 210.234375 179.026367188 290.299804688 c 0
 190.279296875 370.365234375 264.989257812 435.53515625 345.739257812 435.53515625 c 0
 426.489257812 435.53515625 480.688476562 435.174804688 480.688476562 435.174804688 c 2
EndSplineSet
EndChar

StartChar: ordfeminine
Encoding: 170 170 106
Width: 316
GlyphClass: 2
Flags: MW
HStem: 495.18 28.8652<125.762 159.745> 671.135 28.8652<146.435 190.239>
VStem: 50.9844 214.031<597 597>
LayerCount: 2
Back
Fore
SplineSet
250.9609375 498.844726562 m 2
 250.22265625 493.594726562 224.23828125 493.245117188 224.975585938 498.495117188 c 0
 226.48046875 509.19921875 227.987304688 519.903320312 229.4921875 530.607421875 c 1
 206.802734375 508.913085938 175.881835938 495.1796875 143.607421875 495.1796875 c 0
 84.611328125 495.1796875 43.041015625 541.064453125 50.984375 597.58984375 c 0
 58.9287109375 654.115234375 113.397460938 700 172.393554688 700 c 0
 231.389648438 700 272.959960938 654.115234375 265.015625 597.58984375 c 2
 250.9609375 498.844726562 l 2
78.5400390625 597.58984375 m 0
 73.0546875 558.557617188 103.859375 524.044921875 147.6640625 524.044921875 c 0
 191.46875 524.044921875 231.974609375 558.557617188 237.459960938 597.58984375 c 0
 242.946289062 636.622070312 212.141601562 671.134765625 168.336914062 671.134765625 c 0
 124.532226562 671.134765625 84.0263671875 636.622070312 78.5400390625 597.58984375 c 0
EndSplineSet
EndChar

StartChar: guillemotleft
Encoding: 171 171 107
Width: 604
GlyphClass: 2
Flags: W
LayerCount: 2
Back
Fore
SplineSet
266.63671875 343 m 0
 269.57421875 363.900390625 285.516601562 384.833984375 301.291992188 390.354492188 c 0
 301.487304688 390.62109375 535.430664062 533.6484375 535.430664062 533.6484375 c 1
 550.797851562 537.732421875 562.815429688 529.265625 560.612304688 513.58984375 c 0
 558.409179688 497.915039062 543.202148438 482.21484375 527.620117188 478.07421875 c 1
 333.303710938 343 l 1
 489.653320312 207.92578125 l 1
 504.071289062 203.78515625 514.865234375 188.084960938 512.662109375 172.41015625 c 0
 510.458984375 156.734375 496.0625 148.267578125 481.842773438 152.3515625 c 1
 481.842773438 152.3515625 288.1015625 295.37890625 287.981445312 295.645507812 c 0
 273.7578125 301.166015625 263.700195312 322.099609375 266.63671875 343 c 0
43.63671875 343 m 0
 46.57421875 363.900390625 62.5166015625 384.833984375 78.2919921875 390.354492188 c 0
 78.4873046875 390.62109375 312.430664062 533.6484375 312.430664062 533.6484375 c 1
 327.797851562 537.732421875 339.815429688 529.265625 337.612304688 513.58984375 c 0
 335.409179688 497.915039062 320.202148438 482.21484375 304.620117188 478.07421875 c 1
 110.303710938 343 l 1
 266.653320312 207.92578125 l 1
 281.071289062 203.78515625 291.865234375 188.084960938 289.662109375 172.41015625 c 0
 287.458984375 156.734375 273.0625 148.267578125 258.842773438 152.3515625 c 1
 258.842773438 152.3515625 65.1015625 295.37890625 64.9814453125 295.645507812 c 0
 50.7578125 301.166015625 40.7001953125 322.099609375 43.63671875 343 c 0
EndSplineSet
EndChar

StartChar: logicalnot
Encoding: 172 172 108
Width: 586
GlyphClass: 2
Flags: MW
HStem: 271.904 74.0996<69.293 509.207 87.207 452.602>
LayerCount: 2
Back
Fore
SplineSet
452.6015625 271.904296875 m 1
 76.79296875 271.904296875 l 2
 61.79296875 271.904296875 51.0625 288.0546875 54 308.954101562 c 0
 56.9375 329.854492188 72.4140625 346.004882812 87.20703125 346.00390625 c 2
 87.20703125 346.00390625 509.079101562 346.211914062 509.20703125 346.00390625 c 0
 524.20703125 346.00390625 534.9375 329.854492188 532 308.954101562 c 2
 513.588867188 177.954101562 l 2
 511.48046875 162.954101562 493.502929688 149.954101562 472.603515625 149.954101562 c 0
 451.703125 149.954101562 437.409179688 163.161132812 439.489257812 177.954101562 c 2
 439.489257812 177.954101562 447.157226562 233.16796875 452.6015625 271.904296875 c 1
EndSplineSet
EndChar

StartChar: uni00AD
Encoding: 173 173 109
Width: 509
GlyphClass: 2
Flags: MW
HStem: 271.904 74.0996<69.293 432.207 87.207 421.793>
LayerCount: 2
Back
Fore
SplineSet
421.79296875 271.904296875 m 2
 76.79296875 271.904296875 l 2
 61.79296875 271.904296875 51.0625 288.0546875 54 308.954101562 c 0
 56.9375 329.854492188 72.4140625 346.004882812 87.20703125 346.00390625 c 2
 87.20703125 346.00390625 432.079101562 346.211914062 432.20703125 346.00390625 c 0
 447.20703125 346.00390625 457.9375 329.854492188 455 308.954101562 c 0
 452.0625 288.0546875 436.852539062 272.330078125 421.79296875 271.904296875 c 2
EndSplineSet
EndChar

StartChar: registered
Encoding: 174 174 110
Width: 704
GlyphClass: 2
Flags: MW
HStem: 0 82.4707<259.891 385.046 259.891 395.158> 398.181 37.3975<332.109 387.869> 502.729 82.4707<318.955 444.11>
LayerCount: 2
Back
Fore
SplineSet
124.97265625 292.599609375 m 0
 109.299804688 181.079101562 197.313476562 82.470703125 322.46875 82.470703125 c 0
 447.624023438 82.470703125 563.354492188 181.079101562 579.02734375 292.599609375 c 0
 594.700195312 404.119140625 506.6875 502.728515625 381.532226562 502.728515625 c 0
 256.376953125 502.728515625 140.645507812 404.119140625 124.97265625 292.599609375 c 0
46.240234375 292.599609375 m 0
 68.9375 454.099609375 224.5625 585.19921875 393.122070312 585.19921875 c 0
 561.681640625 585.19921875 680.45703125 454.099609375 657.759765625 292.599609375 c 0
 635.0625 131.099609375 479.4375 0 310.877929688 0 c 0
 142.318359375 0 23.54296875 131.099609375 46.240234375 292.599609375 c 0
221.526367188 159.193359375 m 1
 220.447265625 151.693359375 211.483398438 145.193359375 201.033203125 145.193359375 c 0
 190.583984375 145.193359375 183.447265625 151.693359375 184.475585938 159.193359375 c 0
 184.500976562 159.193359375 198.532226562 290.342773438 198.532226562 290.342773438 c 1
 215.000976562 370.236328125 284.495117188 435.578125 365.245117188 435.578125 c 0
 445.995117188 435.578125 500.194335938 435.217773438 500.194335938 435.217773438 c 2
 507.694335938 435.217773438 513.059570312 427.142578125 511.590820312 416.693359375 c 0
 510.122070312 406.2421875 502.487304688 398.16796875 494.987304688 398.16796875 c 2
 494.987304688 398.16796875 415.749023438 398.180664062 359.989257812 398.180664062 c 0
 304.229492188 398.180664062 248.124023438 349.791015625 239.768554688 290.342773438 c 0
 231.4140625 230.89453125 221.500976562 159.193359375 221.526367188 159.193359375 c 1
EndSplineSet
EndChar

StartChar: macron
Encoding: 175 175 111
Width: 867
GlyphClass: 2
Flags: MW
HStem: 625.9 74.0996<84.793 774.707 102.707 764.293>
LayerCount: 2
Back
Fore
SplineSet
102.70703125 700 m 2
 774.70703125 700 l 2
 789.70703125 700 800.436523438 683.849609375 797.5 662.950195312 c 0
 794.5625 642.049804688 779.0859375 625.899414062 764.29296875 625.900390625 c 2
 764.29296875 625.900390625 92.4208984375 625.692382812 92.29296875 625.900390625 c 0
 77.29296875 625.900390625 66.5625 642.049804688 69.5 662.950195312 c 0
 72.4365234375 683.849609375 87.646484375 699.57421875 102.70703125 700 c 2
EndSplineSet
EndChar

StartChar: degree
Encoding: 176 176 112
Width: 347
GlyphClass: 2
Flags: MW
HStem: 464.818 33.1953<136.426 186.801 136.426 190.871> 667.166 33.1953<160.198 210.573>
VStem: 50.4316 246.137<582 582>
LayerCount: 2
Back
Fore
SplineSet
82.12109375 582.58984375 m 0
 75.8125 537.703125 111.23828125 498.013671875 161.61328125 498.013671875 c 0
 211.98828125 498.013671875 258.5703125 537.703125 264.87890625 582.58984375 c 0
 271.1875 627.4765625 235.760742188 667.166015625 185.385742188 667.166015625 c 0
 135.010742188 667.166015625 88.4296875 627.4765625 82.12109375 582.58984375 c 0
50.431640625 582.58984375 m 0
 59.5673828125 647.59375 122.206054688 700.361328125 190.051757812 700.361328125 c 0
 257.897460938 700.361328125 305.704101562 647.59375 296.568359375 582.58984375 c 0
 287.432617188 517.5859375 224.793945312 464.818359375 156.948242188 464.818359375 c 0
 89.1025390625 464.818359375 41.2958984375 517.5859375 50.431640625 582.58984375 c 0
EndSplineSet
EndChar

StartChar: plusminus
Encoding: 177 177 113
Width: 601
GlyphClass: 2
Flags: MW
HStem: 0 74.0996<53.3535 493.268 71.2676 482.854> 330 74.0996<100.232 118.146 118.146 118.146 118.146 281.683>
LayerCount: 2
Back
Fore
SplineSet
482.853515625 0 m 2
 60.853515625 0 l 2
 45.853515625 0 35.123046875 16.150390625 38.060546875 37.0498046875 c 0
 40.998046875 57.9501953125 56.474609375 74.1005859375 71.267578125 74.099609375 c 2
 71.267578125 74.099609375 493.139648438 74.3076171875 493.267578125 74.099609375 c 0
 508.267578125 74.099609375 518.998046875 57.9501953125 516.060546875 37.0498046875 c 0
 513.123046875 16.150390625 497.913085938 0.42578125 482.853515625 0 c 2
529.732421875 330 m 2
 355.868164062 330 l 1
 342.987304688 238.233398438 331.436523438 156.119140625 331.334960938 156.049804688 c 0
 329.2265625 141.049804688 311.25 128.049804688 290.349609375 128.049804688 c 0
 269.450195312 128.049804688 255.552734375 141.049804688 257.235351562 156.049804688 c 2
 281.682617188 330 l 1
 107.732421875 330 l 2
 92.732421875 330 82.001953125 346.150390625 84.939453125 367.049804688 c 0
 87.8759765625 387.950195312 103.353515625 404.100585938 118.146484375 404.099609375 c 2
 118.146484375 404.099609375 200.295898438 404.139648438 292.10546875 404.16796875 c 1
 316.54296875 578.049804688 l 2
 318.651367188 593.049804688 336.62890625 606.049804688 357.528320312 606.049804688 c 0
 378.428710938 606.049804688 392.72265625 592.842773438 390.642578125 578.049804688 c 2
 390.642578125 578.049804688 379.145507812 495.956054688 366.275390625 404.185546875 c 1
 458.016601562 404.202148438 540.08984375 404.19140625 540.146484375 404.099609375 c 0
 555.146484375 404.099609375 565.875976562 387.950195312 562.939453125 367.049804688 c 0
 560.001953125 346.150390625 544.791992188 330.42578125 529.732421875 330 c 2
EndSplineSet
EndChar

StartChar: uni00B2
Encoding: 178 178 114
Width: 410
GlyphClass: 2
Flags: MW
HStem: 410.821 37.3975<161.938 217.697 161.938 224.937> 515.895 37.3984<120.71 133.828> 662.607 37.3984<195.567 251.327>
VStem: 47.9219 314.048
LayerCount: 2
Back
Fore
SplineSet
319.612304688 411.181640625 m 2
 319.612304688 411.181640625 265.311523438 410.821289062 184.561523438 410.821289062 c 0
 103.811523438 410.821289062 36.9501953125 401.491210938 47.921875 479.556640625 c 0
 59.1044921875 559.123046875 102.334960938 553.29296875 139.084960938 553.29296875 c 0
 219.834960938 553.29296875 274.034179688 552.931640625 274.034179688 552.931640625 c 2
 301.293945312 552.931640625 316.245117188 575.321289062 320.734375 607.26953125 c 0
 329.08984375 666.71875 279.20703125 662.607421875 223.447265625 662.607421875 c 0
 167.6875 662.607421875 88.4462890625 662.594726562 88.4462890625 662.594726562 c 2
 80.9462890625 662.594726562 75.5810546875 670.669921875 77.0498046875 681.120117188 c 0
 78.517578125 691.569335938 86.1533203125 699.64453125 93.6533203125 699.64453125 c 2
 93.6533203125 699.64453125 147.954101562 700.005859375 228.704101562 700.005859375 c 0
 309.454101562 700.005859375 373.22265625 687.3359375 361.969726562 607.26953125 c 0
 351.701171875 534.204101562 316.52734375 515.534179688 268.77734375 515.534179688 c 0
 188.02734375 515.534179688 133.828125 515.89453125 133.828125 515.89453125 c 2
 78.068359375 515.89453125 89.2900390625 480.505859375 89.1572265625 479.556640625 c 0
 84.8076171875 448.608398438 134.057617188 448.21875 189.817382812 448.21875 c 0
 245.577148438 448.21875 324.819335938 448.231445312 324.819335938 448.231445312 c 2
 332.319335938 448.231445312 337.684570312 440.157226562 336.215820312 429.70703125 c 0
 334.747070312 419.256835938 327.112304688 411.181640625 319.612304688 411.181640625 c 2
EndSplineSet
EndChar

StartChar: uni00B3
Encoding: 179 179 115
Width: 432
GlyphClass: 2
Flags: MW
HStem: 409.529 37.3975<194.896 250.655 194.896 257.895> 536.09 37.0498<54.2295 260.187 63.1865 254.979> 662.603 37.3975<225.207 280.967>
LayerCount: 2
Back
Fore
SplineSet
63.1865234375 573.139648438 m 2
 260.186523438 573.139648438 l 2
 267.686523438 573.139648438 272.981445312 564.564453125 271.512695312 554.115234375 c 0
 270.043945312 543.6640625 262.375976562 536.08984375 254.979492188 536.08984375 c 2
 254.979492188 536.08984375 58.0439453125 535.986328125 57.9794921875 536.08984375 c 0
 50.4794921875 536.08984375 45.1142578125 544.1640625 46.5830078125 554.615234375 c 0
 48.0517578125 565.064453125 55.65625 572.926757812 63.1865234375 573.139648438 c 2
123.291992188 699.639648438 m 2
 123.291992188 699.639648438 177.592773438 700 258.342773438 700 c 0
 339.092773438 700 395.483398438 634.830078125 384.23046875 554.764648438 c 0
 372.978515625 474.69921875 298.26953125 409.529296875 217.51953125 409.529296875 c 0
 136.76953125 409.529296875 82.5703125 409.889648438 82.5703125 409.889648438 c 2
 75.0703125 409.889648438 69.705078125 417.96484375 71.173828125 428.4140625 c 0
 72.642578125 438.865234375 80.27734375 446.939453125 87.77734375 446.939453125 c 2
 87.77734375 446.939453125 167.015625 446.926757812 222.775390625 446.926757812 c 0
 278.53515625 446.926757812 334.640625 495.31640625 342.995117188 554.764648438 c 0
 351.350585938 614.212890625 308.846679688 662.602539062 253.086914062 662.602539062 c 0
 197.327148438 662.602539062 118.084960938 662.58984375 118.084960938 662.58984375 c 2
 110.584960938 662.58984375 105.219726562 670.6640625 106.688476562 681.115234375 c 0
 108.157226562 691.564453125 115.791992188 699.639648438 123.291992188 699.639648438 c 2
EndSplineSet
EndChar

StartChar: acute
Encoding: 180 180 116
Width: 247
GlyphClass: 2
Flags: MW
HStem: 557.5 21G 607.5 92.5<113.746 186.24>
LayerCount: 2
Back
Fore
SplineSet
189.422851562 653.75 m 0
 174.251953125 628.75 142.606445312 607.5 117.606445312 607.5 c 0
 109.884765625 607.5 103.869140625 609.52734375 99.69140625 613.06640625 c 1
 77.4970703125 577.020507812 98.541015625 571.014648438 118.513671875 557.5 c 1
 86.296875 562.083984375 46.3671875 572.5 49.4443359375 583.75 c 0
 53.0546875 600 83.2724609375 633.318359375 100.672851562 653.75 c 1
 115.844726562 678.75 148.740234375 700 173.740234375 700 c 0
 198.740234375 700 204.594726562 678.75 189.422851562 653.75 c 0
EndSplineSet
EndChar

StartChar: mu
Encoding: 181 181 117
Width: 742
GlyphClass: 2
Flags: MW
HStem: -65 28<38.7363 82.3013> 0 82.4707<291.505 405.48 286.583 414.506> 562.6 28<154.293 197.858>
LayerCount: 2
Back
Fore
SplineSet
113.78515625 497 m 0
 118.8125 532.768554688 123.758789062 562.599609375 123.758789062 562.599609375 c 2
 125.8671875 577.599609375 143.84375 590.599609375 164.743164062 590.599609375 c 0
 185.643554688 590.599609375 199.966796875 577.599609375 197.858398438 562.599609375 c 2
 197.858398438 562.599609375 175.559570312 404.120117188 159.88671875 292.599609375 c 0
 144.213867188 181.080078125 227.133789062 82.470703125 346.03125 82.470703125 c 0
 464.928710938 82.470703125 575.565429688 181.080078125 591.23828125 292.599609375 c 0
 606.911132812 404.120117188 629.159179688 562.599609375 629.159179688 562.599609375 c 2
 631.267578125 577.599609375 649.243164062 590.599609375 670.143554688 590.599609375 c 0
 691.04296875 590.599609375 705.3671875 577.599609375 703.258789062 562.599609375 c 2
 703.258789062 562.599609375 688.731445312 454.099609375 666.034179688 292.599609375 c 0
 643.336914062 131.099609375 494.572265625 0 334.440429688 0 c 0
 248.5703125 0 176.565429688 37.69921875 131.748046875 97.568359375 c 1
 112.8359375 -37 l 2
 110.727539062 -52 92.7509765625 -65 71.8515625 -65 c 0
 50.951171875 -65 36.65625 -51.79296875 38.736328125 -37 c 2
 38.736328125 -37 113.555664062 496.842773438 113.78515625 497 c 0
EndSplineSet
EndChar

StartChar: paragraph
Encoding: 182 182 118
Width: 490
GlyphClass: 2
Flags: MW
HStem: 0 28<179.106 222.67> 515.9 74.0996<321.775 366.6 321.775 321.775>
LayerCount: 2
Back
Fore
SplineSet
447.254882812 562 m 2
 372.206054688 28 l 2
 370.09765625 13 352.120117188 0 331.220703125 0 c 0
 310.3203125 0 296.026367188 13.20703125 298.106445312 28 c 2
 298.106445312 28 348.319335938 386.279296875 366.599609375 515.900390625 c 1
 321.775390625 515.900390625 l 1
 253.206054688 28 l 2
 251.09765625 13 233.120117188 0 212.220703125 0 c 0
 191.3203125 0 177.026367188 13.20703125 179.106445312 28 c 2
 179.106445312 28 197.172851562 156.915039062 215.578125 288.063476562 c 1
 56.0712890625 289.114257812 41.025390625 408.450195312 42.72265625 420.528320312 c 0
 43.724609375 427.66015625 48.6396484375 589.998046875 210.139648438 590 c 2
 210.139648438 590 414.01171875 590.208007812 414.139648438 590 c 0
 435.0390625 590 448.936523438 577 447.254882812 562 c 2
EndSplineSet
EndChar

StartChar: periodcentered
Encoding: 183 183 119
Width: 194
GlyphClass: 2
Flags: MW
HStem: 218.75 92.5<90.3896 102.39>
VStem: 52.6396 88.75<265 265>
LayerCount: 2
Back
Fore
SplineSet
52.6396484375 265 m 0
 56.1533203125 290 77.8896484375 311.25 102.889648438 311.25 c 0
 127.889648438 311.25 144.903320312 290 141.389648438 265 c 0
 137.875976562 240 114.889648438 218.75 89.8896484375 218.75 c 0
 64.8896484375 218.75 49.1259765625 240 52.6396484375 265 c 0
EndSplineSet
EndChar

StartChar: cedilla
Encoding: 184 184 120
Width: 211
GlyphClass: 2
Flags: MW
HStem: -50.25 92.5<89.4912 101.491>
VStem: 51.7412 107.338
LayerCount: 2
Back
Fore
SplineSet
51.7412109375 -4 m 0
 55.2548828125 21 76.9912109375 42.25 101.991210938 42.25 c 0
 109.712890625 42.25 116.673828125 40.22265625 122.501953125 36.68359375 c 1
 127.887695312 72.7294921875 104.04296875 78.7353515625 77.7685546875 92.25 c 1
 112.123046875 87.666015625 156.91015625 77.25 159.079101562 66 c 0
 163.045898438 49.75 148.364257812 16.431640625 140.491210938 -4 c 1
 136.977539062 -29 113.991210938 -50.25 88.9912109375 -50.25 c 0
 63.9912109375 -50.25 48.2275390625 -29 51.7412109375 -4 c 0
EndSplineSet
EndChar

StartChar: uni00B9
Encoding: 185 185 121
Width: 196
GlyphClass: 2
Flags: MW
HStem: 405 14<77.6875 99.4697>
LayerCount: 2
Back
Fore
SplineSet
108.359375 637.55859375 m 1
 70.822265625 604.647460938 l 2
 64.7744140625 599.34375 54.6240234375 600.458007812 48.2744140625 607.846679688 c 0
 41.9228515625 615.236328125 42.3408203125 625.615234375 48.3056640625 630.845703125 c 2
 48.3056640625 630.845703125 111.095703125 685.93359375 111.211914062 686 c 0
 117.260742188 691.302734375 123.072265625 701 135.705078125 700 c 0
 146.154296875 700 153.102539062 693.5 152.26171875 686 c 2
 114.737304688 419 l 2
 113.68359375 411.5 104.694335938 405 94.2451171875 405 c 0
 83.794921875 405 76.6474609375 411.603515625 77.6875 419 c 2
 77.6875 419 97.0634765625 557.180664062 108.359375 637.55859375 c 1
EndSplineSet
EndChar

StartChar: ordmasculine
Encoding: 186 186 122
Width: 316
GlyphClass: 2
Flags: MW
HStem: 495.18 28.8652<125.762 169.566 125.762 173.105> 671.135 28.8652<146.435 190.239>
VStem: 50.9844 214.031<597 597>
LayerCount: 2
Back
Fore
SplineSet
78.5400390625 597.58984375 m 0
 73.0546875 558.557617188 103.859375 524.044921875 147.6640625 524.044921875 c 0
 191.46875 524.044921875 231.974609375 558.557617188 237.459960938 597.58984375 c 0
 242.946289062 636.622070312 212.141601562 671.134765625 168.336914062 671.134765625 c 0
 124.532226562 671.134765625 84.0263671875 636.622070312 78.5400390625 597.58984375 c 0
50.984375 597.58984375 m 0
 58.9287109375 654.115234375 113.397460938 700 172.393554688 700 c 0
 231.389648438 700 272.959960938 654.115234375 265.015625 597.58984375 c 0
 257.072265625 541.064453125 202.603515625 495.1796875 143.607421875 495.1796875 c 0
 84.611328125 495.1796875 43.041015625 541.064453125 50.984375 597.58984375 c 0
EndSplineSet
EndChar

StartChar: guillemotright
Encoding: 187 187 123
Width: 600
GlyphClass: 2
Flags: W
LayerCount: 2
Back
Fore
SplineSet
335.362304688 343 m 0
 332.42578125 322.099609375 316.483398438 301.166015625 300.70703125 295.645507812 c 0
 300.512695312 295.37890625 66.568359375 152.3515625 66.568359375 152.3515625 c 1
 51.2021484375 148.267578125 39.1845703125 156.734375 41.3876953125 172.41015625 c 0
 43.5908203125 188.084960938 58.796875 203.78515625 74.37890625 207.92578125 c 1
 268.6953125 343 l 1
 112.345703125 478.07421875 l 1
 97.927734375 482.21484375 87.134765625 497.915039062 89.337890625 513.58984375 c 0
 91.541015625 529.265625 105.9375 537.732421875 120.15625 533.6484375 c 1
 120.15625 533.6484375 313.8984375 390.62109375 314.017578125 390.354492188 c 0
 328.2421875 384.833984375 338.299804688 363.900390625 335.362304688 343 c 0
558.362304688 343 m 0
 555.42578125 322.099609375 539.483398438 301.166015625 523.70703125 295.645507812 c 0
 523.512695312 295.37890625 289.568359375 152.3515625 289.568359375 152.3515625 c 1
 274.202148438 148.267578125 262.184570312 156.734375 264.387695312 172.41015625 c 0
 266.590820312 188.084960938 281.796875 203.78515625 297.37890625 207.92578125 c 1
 491.6953125 343 l 1
 335.345703125 478.07421875 l 1
 320.927734375 482.21484375 310.134765625 497.915039062 312.337890625 513.58984375 c 0
 314.541015625 529.265625 328.9375 537.732421875 343.15625 533.6484375 c 1
 343.15625 533.6484375 536.8984375 390.62109375 537.017578125 390.354492188 c 0
 551.2421875 384.833984375 561.299804688 363.900390625 558.362304688 343 c 0
EndSplineSet
EndChar

StartChar: onequarter
Encoding: 188 188 124
Width: 607
GlyphClass: 2
Flags: MW
HStem: 119.614 37.3975<418.668 441.562> 257.688 37.3984 323.5 14<159.965 181.747>
LayerCount: 2
Back
Fore
SplineSet
560.407226562 590 m 2
 118.608398438 28 l 2
 106.81640625 13 80.447265625 0 59.5478515625 0 c 0
 38.6474609375 0 32.87890625 13.20703125 44.5087890625 28 c 2
 44.5087890625 28 485.975585938 589.842773438 486.307617188 590 c 0
 498.099609375 605 524.467773438 618 545.368164062 618 c 0
 566.267578125 618 571.7734375 605 560.407226562 590 c 2
531.920898438 278.700195312 m 1
 514.76953125 156.6640625 l 1
 556.76953125 156.6640625 l 2
 564.26953125 156.6640625 569.634765625 148.588867188 568.166015625 138.138671875 c 0
 566.697265625 127.689453125 558.958984375 119.61328125 551.5625 119.614257812 c 2
 551.5625 119.614257812 535.087890625 119.59375 509.544921875 119.580078125 c 1
 494.70703125 14 l 2
 493.65234375 6.5 484.6640625 0 474.213867188 0 c 0
 463.763671875 0 456.616210938 6.603515625 457.657226562 14 c 2
 457.657226562 14 464.170898438 60.5009765625 472.458984375 119.568359375 c 1
 454.869140625 119.568359375 441.583984375 119.579101562 441.5625 119.614257812 c 0
 395.774414062 119.614257812 373.288085938 119.19921875 298.009765625 119.5078125 c 1
 277.060546875 124.32421875 289.932617188 138.43359375 305.56640625 157.349609375 c 0
 367.59375 232.404296875 421.099609375 293.080078125 466.223632812 295.0859375 c 0
 539.2578125 298.333007812 531.920898438 278.700195312 531.920898438 278.700195312 c 1
491.916992188 257.95703125 m 1
 484.29296875 257.95703125 474.221679688 257.86328125 460.967773438 257.6875 c 0
 439.791992188 257.408203125 413.80859375 235.4296875 355.92578125 165.349609375 c 0
 347.6640625 155.34765625 373.55859375 157.01171875 446.818359375 157.01171875 c 2
 446.818359375 157.01171875 450.03515625 157.017578125 477.715820312 157.021484375 c 1
 483.33203125 197.03515625 488.830078125 235.9921875 491.916992188 257.95703125 c 1
190.637695312 556.05859375 m 1
 153.100585938 523.147460938 l 2
 147.051757812 517.84375 136.90234375 518.958007812 130.551757812 526.34765625 c 0
 124.200195312 533.736328125 124.618164062 544.115234375 130.583007812 549.345703125 c 2
 130.583007812 549.345703125 193.373046875 604.43359375 193.489257812 604.5 c 0
 199.538085938 609.802734375 205.349609375 619.5 217.982421875 618.5 c 0
 228.431640625 618.5 235.380859375 612 234.540039062 604.5 c 2
 197.015625 337.5 l 2
 195.961914062 330 186.971679688 323.5 176.522460938 323.5 c 0
 166.072265625 323.5 158.924804688 330.103515625 159.96484375 337.5 c 2
 159.96484375 337.5 179.340820312 475.681640625 190.637695312 556.05859375 c 1
EndSplineSet
EndChar

StartChar: onehalf
Encoding: 189 189 125
Width: 691
GlyphClass: 2
Flags: MW
HStem: 0 37.3984<449.337 505.097 449.337 512.336> 105.074 37.3984<408.109 421.229> 251.787 37.3984<482.968 538.728> 323.5 14<161.712 183.494>
LayerCount: 2
Back
Fore
SplineSet
562.154296875 590 m 2
 120.35546875 28 l 2
 108.563476562 13 82.1943359375 0 61.294921875 0 c 0
 40.39453125 0 34.6259765625 13.20703125 46.255859375 28 c 2
 46.255859375 28 487.72265625 589.842773438 488.0546875 590 c 0
 499.846679688 605 526.21484375 618 547.115234375 618 c 0
 568.014648438 618 573.520507812 605 562.154296875 590 c 2
607.01171875 0.361328125 m 2
 607.01171875 0.361328125 552.7109375 0 471.9609375 0 c 0
 391.2109375 0 324.349609375 -9.330078125 335.321289062 68.736328125 c 0
 346.50390625 148.302734375 389.734375 142.47265625 426.484375 142.47265625 c 0
 507.234375 142.47265625 561.43359375 142.111328125 561.43359375 142.111328125 c 2
 588.693359375 142.111328125 603.64453125 164.5 608.134765625 196.44921875 c 0
 616.489257812 255.8984375 566.607421875 251.787109375 510.84765625 251.787109375 c 0
 455.087890625 251.787109375 375.845703125 251.774414062 375.845703125 251.774414062 c 2
 368.345703125 251.774414062 362.98046875 259.849609375 364.44921875 270.298828125 c 0
 365.91796875 280.749023438 373.552734375 288.82421875 381.052734375 288.82421875 c 2
 381.052734375 288.82421875 435.353515625 289.185546875 516.103515625 289.185546875 c 0
 596.853515625 289.185546875 660.622070312 276.515625 649.370117188 196.44921875 c 0
 639.100585938 123.3828125 603.927734375 104.712890625 556.177734375 104.712890625 c 0
 475.427734375 104.712890625 421.228515625 105.07421875 421.228515625 105.07421875 c 2
 365.46875 105.07421875 376.690429688 69.685546875 376.556640625 68.736328125 c 0
 372.20703125 37.787109375 421.45703125 37.3984375 477.216796875 37.3984375 c 0
 532.9765625 37.3984375 612.21875 37.4111328125 612.21875 37.4111328125 c 2
 619.71875 37.4111328125 625.083984375 29.3359375 623.615234375 18.88671875 c 0
 622.146484375 8.4365234375 614.51171875 0.361328125 607.01171875 0.361328125 c 2
192.384765625 556.05859375 m 1
 154.84765625 523.147460938 l 2
 148.798828125 517.84375 138.649414062 518.958007812 132.298828125 526.34765625 c 0
 125.947265625 533.736328125 126.365234375 544.115234375 132.330078125 549.345703125 c 2
 132.330078125 549.345703125 195.120117188 604.43359375 195.236328125 604.5 c 0
 201.28515625 609.802734375 207.096679688 619.5 219.729492188 618.5 c 0
 230.178710938 618.5 237.127929688 612 236.287109375 604.5 c 2
 198.762695312 337.5 l 2
 197.708984375 330 188.71875 323.5 178.26953125 323.5 c 0
 167.819335938 323.5 160.671875 330.103515625 161.711914062 337.5 c 2
 161.711914062 337.5 181.087890625 475.681640625 192.384765625 556.05859375 c 1
EndSplineSet
EndChar

StartChar: threequarters
Encoding: 190 190 126
Width: 631
GlyphClass: 2
Flags: MW
HStem: 119.614 37.3975<442.931 465.825> 257.688 37.3984 327.529 37.3975<148.884 204.644 148.884 211.883> 454.09 37.0498<46.2178 214.175 55.1748 208.968> 580.603 37.3975<179.195 234.955>
LayerCount: 2
Back
Fore
SplineSet
584.669921875 590 m 2
 142.87109375 28 l 2
 131.079101562 13 104.709960938 0 83.810546875 0 c 0
 62.91015625 0 57.1416015625 13.20703125 68.771484375 28 c 2
 68.771484375 28 510.23828125 589.842773438 510.5703125 590 c 0
 522.362304688 605 548.73046875 618 569.630859375 618 c 0
 590.530273438 618 596.036132812 605 584.669921875 590 c 2
556.18359375 278.700195312 m 1
 539.032226562 156.6640625 l 1
 581.032226562 156.6640625 l 2
 588.532226562 156.6640625 593.897460938 148.588867188 592.428710938 138.138671875 c 0
 590.959960938 127.689453125 583.221679688 119.61328125 575.825195312 119.614257812 c 2
 575.825195312 119.614257812 559.350585938 119.59375 533.807617188 119.580078125 c 1
 518.969726562 14 l 2
 517.915039062 6.5 508.926757812 0 498.4765625 0 c 0
 488.026367188 0 480.87890625 6.603515625 481.919921875 14 c 2
 481.919921875 14 488.43359375 60.5009765625 496.721679688 119.568359375 c 1
 479.131835938 119.568359375 465.846679688 119.579101562 465.825195312 119.614257812 c 0
 420.037109375 119.614257812 397.55078125 119.19921875 322.272460938 119.5078125 c 1
 301.323242188 124.32421875 314.1953125 138.43359375 329.829101562 157.349609375 c 0
 391.856445312 232.404296875 445.362304688 293.080078125 490.486328125 295.0859375 c 0
 563.520507812 298.333007812 556.18359375 278.700195312 556.18359375 278.700195312 c 1
516.1796875 257.95703125 m 1
 508.555664062 257.95703125 498.484375 257.86328125 485.23046875 257.6875 c 0
 464.0546875 257.408203125 438.071289062 235.4296875 380.188476562 165.349609375 c 0
 371.926757812 155.34765625 397.821289062 157.01171875 471.081054688 157.01171875 c 2
 471.081054688 157.01171875 474.297851562 157.017578125 501.978515625 157.021484375 c 1
 507.594726562 197.03515625 513.092773438 235.9921875 516.1796875 257.95703125 c 1
55.1748046875 491.139648438 m 2
 214.174804688 491.139648438 l 2
 221.674804688 491.139648438 226.969726562 482.564453125 225.500976562 472.115234375 c 0
 224.032226562 461.6640625 216.364257812 454.08984375 208.967773438 454.08984375 c 2
 208.967773438 454.08984375 50.0322265625 453.986328125 49.9677734375 454.08984375 c 0
 42.4677734375 454.08984375 37.1025390625 462.1640625 38.5712890625 472.615234375 c 0
 40.0400390625 483.064453125 47.64453125 490.926757812 55.1748046875 491.139648438 c 2
115.280273438 617.639648438 m 2
 115.280273438 617.639648438 131.581054688 618 212.331054688 618 c 0
 293.081054688 618 349.471679688 552.830078125 338.21875 472.764648438 c 0
 326.966796875 392.69921875 252.2578125 327.529296875 171.5078125 327.529296875 c 0
 90.7578125 327.529296875 74.55859375 327.889648438 74.55859375 327.889648438 c 2
 67.05859375 327.889648438 61.693359375 335.96484375 63.162109375 346.4140625 c 0
 64.630859375 356.865234375 72.265625 364.939453125 79.765625 364.939453125 c 2
 79.765625 364.939453125 121.00390625 364.926757812 176.763671875 364.926757812 c 0
 232.5234375 364.926757812 288.62890625 413.31640625 296.983398438 472.764648438 c 0
 305.338867188 532.212890625 262.834960938 580.602539062 207.075195312 580.602539062 c 0
 151.315429688 580.602539062 110.073242188 580.58984375 110.073242188 580.58984375 c 2
 102.573242188 580.58984375 97.2080078125 588.6640625 98.6767578125 599.115234375 c 0
 100.145507812 609.564453125 107.780273438 617.639648438 115.280273438 617.639648438 c 2
EndSplineSet
EndChar

StartChar: questiondown
Encoding: 191 191 127
Width: 562
GlyphClass: 2
Flags: MW
HStem: 0 64.3242<226.128 316.856 226.128 329.307> 217.942 63.7998<316.058 316.058 316.058 346.736> 501.041 79.5498<378.611 388.932>
LayerCount: 2
Back
Fore
SplineSet
316.057617188 281.7421875 m 1
 339.368164062 447.60546875 l 2
 341.180664062 460.504882812 356.641601562 471.685546875 374.615234375 471.685546875 c 0
 392.588867188 471.685546875 404.881835938 460.327148438 403.09375 447.60546875 c 2
 403.09375 447.60546875 375.4921875 249.940429688 375.293945312 249.805664062 c 0
 372.768554688 231.83203125 359.688476562 218.30859375 346.736328125 217.942382812 c 2
 117.873046875 217.942382812 l 1
 132.274414062 132.15625 183.354492188 64.32421875 268.90234375 64.32421875 c 0
 364.810546875 64.32421875 501.10546875 64.345703125 501.10546875 64.345703125 c 2
 514.005859375 64.345703125 523.233398438 50.45703125 520.708007812 32.4833984375 c 0
 518.181640625 14.509765625 505.049804688 0.6201171875 492.149414062 0.6201171875 c 2
 492.149414062 0.6201171875 398.751953125 0 259.862304688 0 c 0
 120.97265625 0 23.98046875 112.091796875 43.333984375 249.805664062 c 0
 45.8603515625 267.779296875 59.1708984375 281.668945312 71.892578125 281.66796875 c 2
 71.892578125 281.66796875 238.002929688 281.7734375 316.057617188 281.7421875 c 1
421.396484375 540.81640625 m 0
 418.375 519.31640625 399.681640625 501.041015625 378.181640625 501.041015625 c 0
 356.681640625 501.041015625 342.049804688 519.31640625 345.071289062 540.81640625 c 0
 348.092773438 562.31640625 367.861328125 580.590820312 389.361328125 580.590820312 c 0
 410.861328125 580.590820312 424.41796875 562.31640625 421.396484375 540.81640625 c 0
EndSplineSet
EndChar

StartChar: Agrave
Encoding: 192 192 128
Width: 710
GlyphClass: 2
Flags: MW
HStem: 0 82.4707<262.891 359.985> 502.729 82.4707<321.955 447.11> 666 92.5<373.279 419.774>
LayerCount: 2
Back
Fore
SplineSet
620.599609375 10.470703125 m 2
 618.491210938 -4.529296875 544.250976562 -5.529296875 546.359375 9.470703125 c 0
 550.657226562 40.0546875 554.962890625 70.638671875 559.260742188 101.221679688 c 1
 494.435546875 39.236328125 406.091796875 0 313.877929688 0 c 0
 145.318359375 0 26.54296875 131.099609375 49.240234375 292.599609375 c 0
 71.9375 454.099609375 227.5625 585.19921875 396.122070312 585.19921875 c 0
 564.681640625 585.19921875 683.45703125 454.099609375 660.759765625 292.599609375 c 2
 620.599609375 10.470703125 l 2
127.97265625 292.599609375 m 0
 112.299804688 181.079101562 200.313476562 82.470703125 325.46875 82.470703125 c 0
 450.624023438 82.470703125 566.354492188 181.079101562 582.02734375 292.599609375 c 0
 597.700195312 404.119140625 509.6875 502.728515625 384.532226562 502.728515625 c 0
 259.376953125 502.728515625 143.645507812 404.119140625 127.97265625 292.599609375 c 0
357.096679688 712.25 m 0
 348.951171875 737.25 360.779296875 758.5 385.779296875 758.5 c 0
 410.779296875 758.5 437.701171875 737.25 445.846679688 712.25 c 1
 457.502929688 691.818359375 478.35546875 658.5 477.399414062 642.25 c 0
 477.314453125 631 434.45703125 620.583984375 400.951171875 616 c 1
 424.72265625 629.514648438 447.454101562 635.520507812 435.392578125 671.56640625 c 1
 430.21875 668.02734375 423.634765625 666 415.913085938 666 c 0
 390.913085938 666 365.240234375 687.25 357.096679688 712.25 c 0
EndSplineSet
EndChar

StartChar: Aacute
Encoding: 193 193 129
Width: 710
GlyphClass: 2
Flags: MW
HStem: 0 82.4707<262.891 359.985> 502.729 82.4707<321.955 447.11> 666 92.5<392.56 465.055>
LayerCount: 2
Back
Fore
SplineSet
620.599609375 10.470703125 m 2
 618.491210938 -4.529296875 544.250976562 -5.529296875 546.359375 9.470703125 c 0
 550.657226562 40.0546875 554.962890625 70.638671875 559.260742188 101.221679688 c 1
 494.435546875 39.236328125 406.091796875 0 313.877929688 0 c 0
 145.318359375 0 26.54296875 131.099609375 49.240234375 292.599609375 c 0
 71.9375 454.099609375 227.5625 585.19921875 396.122070312 585.19921875 c 0
 564.681640625 585.19921875 683.45703125 454.099609375 660.759765625 292.599609375 c 2
 620.599609375 10.470703125 l 2
127.97265625 292.599609375 m 0
 112.299804688 181.079101562 200.313476562 82.470703125 325.46875 82.470703125 c 0
 450.624023438 82.470703125 566.354492188 181.079101562 582.02734375 292.599609375 c 0
 597.700195312 404.119140625 509.6875 502.728515625 384.532226562 502.728515625 c 0
 259.376953125 502.728515625 143.645507812 404.119140625 127.97265625 292.599609375 c 0
468.237304688 712.25 m 0
 453.06640625 687.25 421.420898438 666 396.420898438 666 c 0
 388.69921875 666 382.68359375 668.02734375 378.505859375 671.56640625 c 1
 356.311523438 635.520507812 377.35546875 629.514648438 397.328125 616 c 1
 365.111328125 620.583984375 325.181640625 631 328.258789062 642.25 c 0
 331.869140625 658.5 362.086914062 691.818359375 379.487304688 712.25 c 1
 394.658203125 737.25 427.5546875 758.5 452.5546875 758.5 c 0
 477.5546875 758.5 483.408203125 737.25 468.237304688 712.25 c 0
EndSplineSet
EndChar

StartChar: Acircumflex
Encoding: 194 194 130
Width: 710
GlyphClass: 2
Flags: MW
HStem: 0 82.4707<262.891 359.985> 502.729 82.4707<321.955 447.11>
VStem: 454.909 52.3252<623.85 633.143>
LayerCount: 2
Back
Fore
SplineSet
620.599609375 10.470703125 m 2
 618.491210938 -4.529296875 544.250976562 -5.529296875 546.359375 9.470703125 c 0
 550.657226562 40.0546875 554.962890625 70.638671875 559.260742188 101.221679688 c 1
 494.435546875 39.236328125 406.091796875 0 313.877929688 0 c 0
 145.318359375 0 26.54296875 131.099609375 49.240234375 292.599609375 c 0
 71.9375 454.099609375 227.5625 585.19921875 396.122070312 585.19921875 c 0
 564.681640625 585.19921875 683.45703125 454.099609375 660.759765625 292.599609375 c 2
 620.599609375 10.470703125 l 2
127.97265625 292.599609375 m 0
 112.299804688 181.079101562 200.313476562 82.470703125 325.46875 82.470703125 c 0
 450.624023438 82.470703125 566.354492188 181.079101562 582.02734375 292.599609375 c 0
 597.700195312 404.119140625 509.6875 502.728515625 384.532226562 502.728515625 c 0
 259.376953125 502.728515625 143.645507812 404.119140625 127.97265625 292.599609375 c 0
418.155273438 763.31640625 m 0
 432.83203125 763.31640625 445.81640625 755.435546875 450.01171875 742.7734375 c 0
 456.036132812 731.5 506.064453125 636.80078125 506.083007812 636.765625 c 2
 506.970703125 635.087890625 l 1
 507.234375 633.142578125 l 2
 508.274414062 625.461914062 505.696289062 616.75390625 499.020507812 610.5 c 0
 494.026367188 605.822265625 487.37890625 603.31640625 480.963867188 603.31640625 c 0
 467.198242188 603.31640625 457.721679688 613.009765625 454.909179688 623.849609375 c 2
 408.834960938 697 l 1
 342.200195312 623.849609375 l 2
 335.786132812 611.984375 323.744140625 603.31640625 310.374023438 603.31640625 c 0
 304.2734375 603.31640625 298.576171875 605.571289062 294.868164062 609.85546875 c 0
 289.447265625 616.1171875 289.172851562 625.189453125 292.486328125 633.142578125 c 2
 293.296875 635.087890625 l 1
 294.655273438 636.765625 l 1
 294.655273438 636.765625 372.083007812 732.421875 380.522460938 742.7734375 c 0
 388.8125 756.306640625 403.876953125 763.31640625 418.155273438 763.31640625 c 0
EndSplineSet
EndChar

StartChar: Atilde
Encoding: 195 195 131
Width: 710
GlyphClass: 2
Flags: MW
HStem: 0 82.4707<262.891 359.985> 502.729 82.4707<321.955 447.11>
VStem: 257.998 35.4473 540.798 35.4473
LayerCount: 2
Back
Fore
SplineSet
620.599609375 10.470703125 m 2
 618.491210938 -4.529296875 544.250976562 -5.529296875 546.359375 9.470703125 c 0
 550.657226562 40.0546875 554.962890625 70.638671875 559.260742188 101.221679688 c 1
 494.435546875 39.236328125 406.091796875 0 313.877929688 0 c 0
 145.318359375 0 26.54296875 131.099609375 49.240234375 292.599609375 c 0
 71.9375 454.099609375 227.5625 585.19921875 396.122070312 585.19921875 c 0
 564.681640625 585.19921875 683.45703125 454.099609375 660.759765625 292.599609375 c 2
 620.599609375 10.470703125 l 2
127.97265625 292.599609375 m 0
 112.299804688 181.079101562 200.313476562 82.470703125 325.46875 82.470703125 c 0
 450.624023438 82.470703125 566.354492188 181.079101562 582.02734375 292.599609375 c 0
 597.700195312 404.119140625 509.6875 502.728515625 384.532226562 502.728515625 c 0
 259.376953125 502.728515625 143.645507812 404.119140625 127.97265625 292.599609375 c 0
437.952148438 730.993164062 m 1
 448.62109375 720.833007812 443.967773438 716.982421875 445.83203125 702.350585938 c 0
 447.588867188 688.553710938 456.361328125 677.030273438 485.787109375 684.62890625 c 0
 516.483398438 692.5546875 520.307617188 709.544921875 518.82421875 721.19921875 c 0
 518.250976562 725.690429688 531.075195312 766.98046875 540.797851562 751.1484375 c 1
 540.797851562 751.1484375 542.806640625 751.986328125 544.6484375 752.461914062 c 0
 557.698242188 755.83203125 574.24609375 751.70703125 576.245117188 736.02734375 c 0
 585.209960938 665.647460938 525.556640625 634.487304688 493.237304688 626.140625 c 0
 467.1484375 619.404296875 417.275390625 614.240234375 396.290039062 658.881835938 c 1
 385.62109375 669.041992188 390.275390625 672.892578125 388.41015625 687.524414062 c 0
 386.653320312 701.321289062 377.880859375 712.844726562 348.456054688 705.24609375 c 0
 317.758789062 697.3203125 313.934570312 680.330078125 315.418945312 668.67578125 c 0
 315.991210938 664.184570312 303.166992188 622.89453125 293.4453125 638.7265625 c 1
 293.4453125 638.7265625 291.435546875 637.888671875 289.594726562 637.413085938 c 0
 276.544921875 634.04296875 259.99609375 638.16796875 257.998046875 653.84765625 c 0
 249.032226562 724.227539062 308.685546875 755.387695312 341.004882812 763.734375 c 0
 367.09375 770.470703125 416.967773438 775.634765625 437.952148438 730.993164062 c 1
EndSplineSet
EndChar

StartChar: Adieresis
Encoding: 196 196 132
Width: 710
GlyphClass: 2
Flags: MW
HStem: 0 82.4707<262.891 359.985> 502.729 82.4707<321.955 447.11> 631 88.75<323.032 335.56 470.532 483.06>
VStem: 282.958 92.5<674 674> 430.458 92.5<674 674>
LayerCount: 2
Back
Fore
SplineSet
620.599609375 10.470703125 m 2
 618.491210938 -4.529296875 544.250976562 -5.529296875 546.359375 9.470703125 c 0
 550.657226562 40.0546875 554.962890625 70.638671875 559.260742188 101.221679688 c 1
 494.435546875 39.236328125 406.091796875 0 313.877929688 0 c 0
 145.318359375 0 26.54296875 131.099609375 49.240234375 292.599609375 c 0
 71.9375 454.099609375 227.5625 585.19921875 396.122070312 585.19921875 c 0
 564.681640625 585.19921875 683.45703125 454.099609375 660.759765625 292.599609375 c 2
 620.599609375 10.470703125 l 2
127.97265625 292.599609375 m 0
 112.299804688 181.079101562 200.313476562 82.470703125 325.46875 82.470703125 c 0
 450.624023438 82.470703125 566.354492188 181.079101562 582.02734375 292.599609375 c 0
 597.700195312 404.119140625 509.6875 502.728515625 384.532226562 502.728515625 c 0
 259.376953125 502.728515625 143.645507812 404.119140625 127.97265625 292.599609375 c 0
323.059570312 631 m 0
 298.059570312 631 279.444335938 649.75 282.958007812 674.75 c 0
 286.471679688 699.75 310.532226562 719.75 335.532226562 719.75 c 0
 360.532226562 719.75 378.971679688 699.75 375.458007812 674.75 c 0
 371.944335938 649.75 348.059570312 631 323.059570312 631 c 0
470.559570312 631 m 0
 445.559570312 631 426.944335938 649.75 430.458007812 674.75 c 0
 433.971679688 699.75 458.032226562 719.75 483.032226562 719.75 c 0
 508.032226562 719.75 526.471679688 699.75 522.958007812 674.75 c 0
 519.444335938 649.75 495.559570312 631 470.559570312 631 c 0
EndSplineSet
EndChar

StartChar: Aring
Encoding: 197 197 133
Width: 710
GlyphClass: 2
Flags: MW
HStem: 0 82.4707<262.891 359.985> 502.729 82.4707<321.955 447.11> 624.603 43.7129<399.448 419.16 399.448 425.284> 734.505 43.7129<408.75 428.461>
LayerCount: 2
Back
Fore
SplineSet
620.599609375 10.470703125 m 2
 618.491210938 -4.529296875 544.250976562 -5.529296875 546.359375 9.470703125 c 0
 550.657226562 40.0546875 554.962890625 70.638671875 559.260742188 101.221679688 c 1
 494.435546875 39.236328125 406.091796875 0 313.877929688 0 c 0
 145.318359375 0 26.54296875 131.099609375 49.240234375 292.599609375 c 0
 71.9375 454.099609375 227.5625 585.19921875 396.122070312 585.19921875 c 0
 564.681640625 585.19921875 683.45703125 454.099609375 660.759765625 292.599609375 c 2
 620.599609375 10.470703125 l 2
127.97265625 292.599609375 m 0
 112.299804688 181.079101562 200.313476562 82.470703125 325.46875 82.470703125 c 0
 450.624023438 82.470703125 566.354492188 181.079101562 582.02734375 292.599609375 c 0
 597.700195312 404.119140625 509.6875 502.728515625 384.532226562 502.728515625 c 0
 259.376953125 502.728515625 143.645507812 404.119140625 127.97265625 292.599609375 c 0
378.198242188 701.41015625 m 0
 375.729492188 683.845703125 389.591796875 668.315429688 409.303710938 668.315429688 c 0
 429.015625 668.315429688 447.243164062 683.845703125 449.711914062 701.41015625 c 0
 452.1796875 718.974609375 438.317382812 734.504882812 418.60546875 734.504882812 c 0
 398.893554688 734.504882812 380.666015625 718.974609375 378.198242188 701.41015625 c 0
333.693359375 701.41015625 m 0
 339.651367188 743.8046875 380.501953125 778.217773438 424.749023438 778.217773438 c 0
 468.99609375 778.217773438 500.174804688 743.8046875 494.216796875 701.41015625 c 0
 488.2578125 659.015625 447.407226562 624.602539062 403.16015625 624.602539062 c 0
 358.913085938 624.602539062 327.734375 659.015625 333.693359375 701.41015625 c 0
EndSplineSet
EndChar

StartChar: AE
Encoding: 198 198 134
Width: 1204
GlyphClass: 2
Flags: MW
HStem: 0 82.4707<255.177 352.271> 502.729 82.4707<314.241 434.272>
VStem: 576.114 76.9316
LayerCount: 2
Back
Fore
SplineSet
120.258789062 292.599609375 m 0
 104.5859375 181.079101562 192.599609375 82.470703125 317.754882812 82.470703125 c 0
 434.267578125 82.470703125 542.612304688 167.930664062 569.665039062 269.708984375 c 0
 570.356445312 286.350585938 572.533203125 303.0703125 576.114257812 319.684570312 c 0
 575.325195312 419.60546875 491.7265625 502.728515625 376.818359375 502.728515625 c 0
 251.663085938 502.728515625 135.931640625 404.119140625 120.258789062 292.599609375 c 0
612.885742188 10.470703125 m 2
 610.77734375 -4.529296875 536.537109375 -5.529296875 538.645507812 9.470703125 c 0
 542.943359375 40.0546875 547.249023438 70.638671875 551.546875 101.221679688 c 1
 486.721679688 39.236328125 398.377929688 0 306.1640625 0 c 0
 137.604492188 0 18.8291015625 131.099609375 41.5263671875 292.599609375 c 0
 64.2236328125 454.099609375 219.848632812 585.19921875 388.408203125 585.19921875 c 0
 499.52734375 585.19921875 589.010742188 528.225585938 630.591796875 443.12890625 c 1
 663.958007812 491.209960938 709.893554688 533.250976562 765.704101562 563.0546875 c 0
 894.6796875 631.930664062 1037.16601562 614.508789062 1118.2890625 529.504882812 c 0
 1136.43261719 510.493164062 1183.58105469 474.65625 1157.62890625 453.65625 c 0
 1086.67578125 393.470703125 1013.03710938 336.862304688 937.596679688 282.65625 c 0
 924.478515625 273.420898438 901.396484375 269.752929688 890.84375 286.22265625 c 0
 880.291992188 302.692382812 884.012695312 322.69140625 896.624023438 332.65625 c 0
 926.997070312 356.65625 1078.15429688 459.831054688 1056.0703125 471.022460938 c 0
 981.083984375 509.018554688 891.9453125 542.388671875 796.90234375 491.6328125 c 0
 721.0703125 451.137695312 669.989257812 379.754882812 654.814453125 308.24609375 c 0
 654.372070312 303.065429688 653.784179688 297.848632812 653.045898438 292.599609375 c 2
 650.298828125 273.30078125 l 2
 649.100585938 246.295898438 653.403320312 220.005859375 663.827148438 196.142578125 c 0
 706.012695312 99.5625 847.524414062 48.951171875 955.880859375 127.6796875 c 2
 1092.36425781 226.84375 l 2
 1105.3515625 236.280273438 1123.40429688 239.029296875 1137.5859375 225.65625 c 0
 1151.76855469 212.283203125 1151.53515625 187.952148438 1139.36621094 177.432617188 c 0
 1067.90527344 115.65625 1084.05175781 116.294921875 987.78125 61.2578125 c 0
 867.296875 -7.6220703125 708.208984375 8.6015625 625.787109375 101.100585938 c 1
 612.885742188 10.470703125 l 2
EndSplineSet
EndChar

StartChar: Ccedilla
Encoding: 199 199 135
Width: 706
GlyphClass: 2
Flags: MW
HStem: -142.672 92.5<304.63 316.63> -0.171875 74.7959<247.658 292.906 292.906 359.178 247.658 373.656> 505.976 74.7959<308.281 419.801>
VStem: 266.88 88.75<4.29497e+009 4.29497e+009>
LayerCount: 2
Back
Fore
SplineSet
644.451171875 580.049804688 m 2
 659.451171875 580.049804688 670.181640625 563.899414062 667.244140625 543 c 0
 664.306640625 522.099609375 649.037109375 505.950195312 634.037109375 505.950195312 c 2
 634.037109375 505.950195312 475.561523438 505.975585938 364.041015625 505.975585938 c 0
 252.521484375 505.975585938 140.310546875 409.197265625 123.600585938 290.299804688 c 0
 106.890625 171.40234375 191.8984375 74.6240234375 303.41796875 74.6240234375 c 0
 414.938476562 74.6240234375 573.421875 74.6494140625 573.421875 74.6494140625 c 2
 588.421875 74.6494140625 599.15234375 58.5 596.21484375 37.599609375 c 0
 593.27734375 16.7001953125 578.0078125 0.5498046875 563.0078125 0.5498046875 c 2
 563.0078125 0.5498046875 454.40625 -0.171875 292.90625 -0.171875 c 1
 327.26171875 -4.755859375 372.048828125 -15.171875 374.217773438 -26.421875 c 0
 378.18359375 -42.671875 363.501953125 -75.990234375 355.629882812 -96.421875 c 1
 352.116210938 -121.421875 329.129882812 -142.671875 304.129882812 -142.671875 c 0
 279.129882812 -142.671875 263.366210938 -121.421875 266.879882812 -96.421875 c 0
 270.392578125 -71.421875 292.129882812 -50.171875 317.129882812 -50.171875 c 0
 324.8515625 -50.171875 331.811523438 -52.19921875 337.639648438 -55.73828125 c 1
 343.025390625 -19.6923828125 319.180664062 -13.6865234375 292.90625 -0.171875 c 1
 131.40625 -0.171875 18.625 130.16796875 41.1298828125 290.299804688 c 0
 63.634765625 450.431640625 213.052734375 580.771484375 374.552734375 580.771484375 c 0
 536.052734375 580.771484375 644.451171875 580.049804688 644.451171875 580.049804688 c 2
EndSplineSet
EndChar

StartChar: Egrave
Encoding: 200 200 136
Width: 672
GlyphClass: 2
Flags: MW
HStem: 670 92.5<322.044 368.539>
LayerCount: 2
Back
Fore
SplineSet
608.026367188 156.776367188 m 0
 536.565429688 95 552.712890625 95.638671875 456.44140625 40.6015625 c 0
 314.8203125 -40.361328125 119.86328125 -3.7431640625 58.7705078125 136.120117188 c 0
 -2.3232421875 275.983398438 76.5439453125 458.119140625 234.365234375 542.3984375 c 0
 363.33984375 611.274414062 505.827148438 593.852539062 586.94921875 508.848632812 c 0
 605.092773438 489.836914062 652.241210938 454 626.290039062 433 c 0
 555.3359375 372.814453125 481.697265625 316.206054688 406.256835938 262 c 0
 393.138671875 252.764648438 370.056640625 249.096679688 359.504882812 265.56640625 c 0
 348.952148438 282.036132812 352.672851562 302.03515625 365.284179688 312 c 0
 395.657226562 336 546.814453125 439.174804688 524.73046875 450.366210938 c 0
 449.744140625 488.362304688 360.606445312 521.732421875 265.5625 470.9765625 c 0
 148.379882812 408.399414062 90.30078125 272.065429688 132.487304688 175.486328125 c 0
 174.673828125 78.90625 316.184570312 28.294921875 424.541015625 107.0234375 c 2
 561.024414062 206.1875 l 2
 574.01171875 215.624023438 592.064453125 218.373046875 606.24609375 205 c 0
 620.4296875 191.626953125 620.1953125 167.295898438 608.026367188 156.776367188 c 0
305.861328125 716.25 m 0
 297.716796875 741.25 309.543945312 762.5 334.543945312 762.5 c 0
 359.543945312 762.5 386.466796875 741.25 394.611328125 716.25 c 1
 406.268554688 695.818359375 427.12109375 662.5 426.1640625 646.25 c 0
 426.079101562 635 383.221679688 624.583984375 349.716796875 620 c 1
 373.48828125 633.514648438 396.219726562 639.520507812 384.157226562 675.56640625 c 1
 378.984375 672.02734375 372.399414062 670 364.677734375 670 c 0
 339.677734375 670 314.004882812 691.25 305.861328125 716.25 c 0
EndSplineSet
EndChar

StartChar: Eacute
Encoding: 201 201 137
Width: 672
GlyphClass: 2
Flags: MW
HStem: 670 92.5<360.325 432.819>
LayerCount: 2
Back
Fore
SplineSet
608.026367188 156.776367188 m 0
 536.565429688 95 552.712890625 95.638671875 456.44140625 40.6015625 c 0
 314.8203125 -40.361328125 119.86328125 -3.7431640625 58.7705078125 136.120117188 c 0
 -2.3232421875 275.983398438 76.5439453125 458.119140625 234.365234375 542.3984375 c 0
 363.33984375 611.274414062 505.827148438 593.852539062 586.94921875 508.848632812 c 0
 605.092773438 489.836914062 652.241210938 454 626.290039062 433 c 0
 555.3359375 372.814453125 481.697265625 316.206054688 406.256835938 262 c 0
 393.138671875 252.764648438 370.056640625 249.096679688 359.504882812 265.56640625 c 0
 348.952148438 282.036132812 352.672851562 302.03515625 365.284179688 312 c 0
 395.657226562 336 546.814453125 439.174804688 524.73046875 450.366210938 c 0
 449.744140625 488.362304688 360.606445312 521.732421875 265.5625 470.9765625 c 0
 148.379882812 408.399414062 90.30078125 272.065429688 132.487304688 175.486328125 c 0
 174.673828125 78.90625 316.184570312 28.294921875 424.541015625 107.0234375 c 2
 561.024414062 206.1875 l 2
 574.01171875 215.624023438 592.064453125 218.373046875 606.24609375 205 c 0
 620.4296875 191.626953125 620.1953125 167.295898438 608.026367188 156.776367188 c 0
436.001953125 716.25 m 0
 420.831054688 691.25 389.185546875 670 364.185546875 670 c 0
 356.463867188 670 350.44921875 672.02734375 346.270507812 675.56640625 c 1
 324.077148438 639.520507812 345.12109375 633.514648438 365.09375 620 c 1
 332.875976562 624.583984375 292.946289062 635 296.0234375 646.25 c 0
 299.634765625 662.5 329.852539062 695.818359375 347.251953125 716.25 c 1
 362.423828125 741.25 395.319335938 762.5 420.319335938 762.5 c 0
 445.319335938 762.5 451.173828125 741.25 436.001953125 716.25 c 0
EndSplineSet
EndChar

StartChar: Ecircumflex
Encoding: 202 202 138
Width: 672
GlyphClass: 2
Flags: MW
VStem: 450.455 52.3252<629.85 639.143>
LayerCount: 2
Back
Fore
SplineSet
608.026367188 156.776367188 m 0
 536.565429688 95 552.712890625 95.638671875 456.44140625 40.6015625 c 0
 314.8203125 -40.361328125 119.86328125 -3.7431640625 58.7705078125 136.120117188 c 0
 -2.3232421875 275.983398438 76.5439453125 458.119140625 234.365234375 542.3984375 c 0
 363.33984375 611.274414062 505.827148438 593.852539062 586.94921875 508.848632812 c 0
 605.092773438 489.836914062 652.241210938 454 626.290039062 433 c 0
 555.3359375 372.814453125 481.697265625 316.206054688 406.256835938 262 c 0
 393.138671875 252.764648438 370.056640625 249.096679688 359.504882812 265.56640625 c 0
 348.952148438 282.036132812 352.672851562 302.03515625 365.284179688 312 c 0
 395.657226562 336 546.814453125 439.174804688 524.73046875 450.366210938 c 0
 449.744140625 488.362304688 360.606445312 521.732421875 265.5625 470.9765625 c 0
 148.379882812 408.399414062 90.30078125 272.065429688 132.487304688 175.486328125 c 0
 174.673828125 78.90625 316.184570312 28.294921875 424.541015625 107.0234375 c 2
 561.024414062 206.1875 l 2
 574.01171875 215.624023438 592.064453125 218.373046875 606.24609375 205 c 0
 620.4296875 191.626953125 620.1953125 167.295898438 608.026367188 156.776367188 c 0
413.701171875 769.31640625 m 0
 428.377929688 769.31640625 441.362304688 761.435546875 445.55859375 748.7734375 c 0
 451.58203125 737.5 501.611328125 642.80078125 501.629882812 642.765625 c 2
 502.516601562 641.087890625 l 1
 502.780273438 639.142578125 l 2
 503.8203125 631.461914062 501.243164062 622.75390625 494.567382812 616.5 c 0
 489.573242188 611.822265625 482.924804688 609.31640625 476.509765625 609.31640625 c 0
 462.744140625 609.31640625 453.267578125 619.009765625 450.455078125 629.849609375 c 2
 404.380859375 703 l 1
 337.74609375 629.849609375 l 2
 331.33203125 617.984375 319.290039062 609.31640625 305.919921875 609.31640625 c 0
 299.819335938 609.31640625 294.123046875 611.571289062 290.4140625 615.85546875 c 0
 284.993164062 622.1171875 284.719726562 631.189453125 288.032226562 639.142578125 c 2
 288.842773438 641.087890625 l 1
 290.202148438 642.765625 l 1
 290.202148438 642.765625 367.62890625 738.421875 376.069335938 748.7734375 c 0
 384.358398438 762.306640625 399.422851562 769.31640625 413.701171875 769.31640625 c 0
EndSplineSet
EndChar

